<svg width="1920" height="436" viewBox="0 0 1920 436" fill="none" xmlns="http://www.w3.org/2000/svg">
<path d="M-10.8 420.2L-11.1665 421.13L-11.1618 421.132L-10.8 420.2ZM-76.2 371.6L-76.9948 372.207L-76.9878 372.216L-76.2 371.6ZM-106.8 287.6V286.6H-107.911L-107.794 287.705L-106.8 287.6ZM2.40001 287.6L3.37015 287.357L3.18078 286.6H2.40001V287.6ZM18 315.2L17.3123 315.926L17.3226 315.936L17.3332 315.945L18 315.2ZM46.2 330.2L45.9253 331.162L45.9341 331.164L46.2 330.2ZM108 332.6L108.187 333.582L108.187 333.582L108 332.6ZM129 323.6L128.409 322.794L128.395 322.803L128.382 322.814L129 323.6ZM132.6 290L131.819 290.625L131.854 290.668L131.893 290.707L132.6 290ZM118.2 280.4L117.777 281.306L117.812 281.323L117.849 281.336L118.2 280.4ZM95.4 273.2L95.1831 274.176L95.1876 274.177L95.4 273.2ZM84 270.8L83.7831 271.776L83.7935 271.778L83.8039 271.781L84 270.8ZM73.2 268.4L73.4169 267.424L73.4169 267.424L73.2 268.4ZM61.8 266L61.5892 266.978L61.5965 266.979L61.6039 266.981L61.8 266ZM3.00001 251L2.69597 251.953L2.70522 251.956L2.71453 251.958L3.00001 251ZM-46.8 227.6L-46.2453 226.768L-46.2453 226.768L-46.8 227.6ZM-81 189.2L-80.1146 188.735L-80.1146 188.735L-81 189.2ZM-81.6 72.2L-80.715 72.6657L-80.7102 72.6563L-81.6 72.2ZM-49.8 35L-49.2282 35.8204L-49.22 35.8146L-49.2118 35.8087L-49.8 35ZM-6.59999 13.4L-6.89408 12.4442L-6.89408 12.4442L-6.59999 13.4ZM39.6 3.79999L39.7047 4.7945L39.7176 4.79314L39.7305 4.79145L39.6 3.79999ZM158.4 17.6L157.953 18.4944L157.959 18.4976L157.966 18.5008L158.4 17.6ZM212.4 65.6L211.558 66.14L211.566 66.151L212.4 65.6ZM237.6 142.4V143.4H238.698L238.596 142.307L237.6 142.4ZM132.6 142.4L131.609 142.535L131.727 143.4H132.6V142.4ZM121.8 120.2L121.07 120.884L121.081 120.896L121.093 120.907L121.8 120.2ZM98.4 105.8L98.0356 106.731L98.0595 106.741L98.0838 106.749L98.4 105.8ZM45.6 102.2L45.4157 101.217L45.4157 101.217L45.6 102.2ZM28.8 107.6L28.3528 106.706L28.3368 106.714L28.3212 106.722L28.8 107.6ZM21 145.4L20.3243 146.137L20.3389 146.151L20.3541 146.163L21 145.4ZM43.2 156.8L42.8837 157.749L42.8952 157.752L43.2 156.8ZM79.8 167L79.5575 167.97L79.571 167.973L79.8 167ZM99.6 171.8L99.3575 172.77L99.3864 172.777L99.4157 172.783L99.6 171.8ZM118.8 176L118.557 176.97L118.568 176.973L118.578 176.975L118.8 176ZM168 189.8L167.676 190.746L167.684 190.749L168 189.8ZM208.8 210.2L208.214 211.01L208.22 211.015L208.227 211.019L208.8 210.2ZM237 244.4L236.096 244.827L236.101 244.837L237 244.4ZM232.8 362.6L233.673 363.087L233.678 363.079L232.8 362.6ZM193.8 404.6L194.35 405.435L194.35 405.435L193.8 404.6ZM138.6 428.6L138.829 429.573L138.838 429.571L138.847 429.569L138.6 428.6ZM76.2 434.8C45.1131 434.8 16.2369 429.619 -10.4382 419.268L-11.1618 421.132C15.7631 431.581 44.8869 436.8 76.2 436.8V434.8ZM-10.4335 419.27C-36.6703 408.934 -58.3239 392.841 -75.4122 370.984L-76.9878 372.216C-59.6761 394.359 -37.7297 410.666 -11.1665 421.13L-10.4335 419.27ZM-75.4052 370.993C-92.0705 349.17 -102.22 321.355 -105.806 287.495L-107.794 287.705C-104.18 321.845 -93.9295 350.03 -76.9948 372.207L-75.4052 370.993ZM-106.8 288.6H2.40001V286.6H-106.8V288.6ZM1.42986 287.843C4.27113 299.208 9.56001 308.582 17.3123 315.926L18.6877 314.474C11.24 307.418 6.12888 298.392 3.37015 287.357L1.42986 287.843ZM17.3332 315.945C25.0609 322.859 34.6006 327.926 45.9253 331.162L46.4747 329.238C35.3994 326.074 26.1391 321.141 18.6668 314.455L17.3332 315.945ZM45.9341 331.164C57.6286 334.39 70.1188 336 83.4 336V334C70.2812 334 57.9714 332.41 46.4659 329.236L45.9341 331.164ZM83.4 336C91.4669 336 99.7296 335.193 108.187 333.582L107.813 331.618C99.4704 333.207 91.3331 334 83.4 334V336ZM108.187 333.582C116.713 331.958 123.869 328.903 129.618 324.386L128.382 322.814C122.931 327.097 116.087 330.042 107.813 331.618L108.187 333.582ZM129.591 324.406C135.884 319.792 139 313.071 139 304.4H137C137 312.529 134.116 318.608 128.409 322.794L129.591 324.406ZM139 304.4C139 298.186 137.128 293.114 133.307 289.293L131.893 290.707C135.272 294.086 137 298.614 137 304.4H139ZM133.381 289.375C130.037 285.195 125.065 281.906 118.551 279.464L117.849 281.336C124.135 283.694 128.763 286.805 131.819 290.625L133.381 289.375ZM118.623 279.494C112.534 276.652 104.857 274.233 95.6124 272.223L95.1876 274.177C104.343 276.167 111.866 278.548 117.777 281.306L118.623 279.494ZM95.6169 272.224C92.0093 271.422 88.2024 270.621 84.1961 269.819L83.8039 271.781C87.7977 272.579 91.5907 273.378 95.1831 274.176L95.6169 272.224ZM84.2169 269.824C84.2099 269.822 84.2029 269.821 84.1958 269.819C84.1888 269.818 84.1818 269.816 84.1748 269.814C84.1677 269.813 84.1607 269.811 84.1537 269.81C84.1466 269.808 84.1396 269.807 84.1326 269.805C84.1255 269.803 84.1185 269.802 84.1115 269.8C84.1044 269.799 84.0974 269.797 84.0904 269.796C84.0833 269.794 84.0763 269.793 84.0693 269.791C84.0623 269.789 84.0552 269.788 84.0482 269.786C84.0412 269.785 84.0341 269.783 84.0271 269.782C84.0201 269.78 84.013 269.778 84.006 269.777C83.999 269.775 83.9919 269.774 83.9849 269.772C83.9779 269.771 83.9708 269.769 83.9638 269.768C83.9568 269.766 83.9498 269.764 83.9427 269.763C83.9357 269.761 83.9287 269.76 83.9216 269.758C83.9146 269.757 83.9076 269.755 83.9005 269.753C83.8935 269.752 83.8865 269.75 83.8794 269.749C83.8724 269.747 83.8654 269.746 83.8583 269.744C83.8513 269.743 83.8443 269.741 83.8373 269.739C83.8302 269.738 83.8232 269.736 83.8162 269.735C83.8091 269.733 83.8021 269.732 83.7951 269.73C83.788 269.728 83.781 269.727 83.774 269.725C83.7669 269.724 83.7599 269.722 83.7529 269.721C83.7458 269.719 83.7388 269.718 83.7318 269.716C83.7248 269.714 83.7177 269.713 83.7107 269.711C83.7037 269.71 83.6966 269.708 83.6896 269.707C83.6826 269.705 83.6755 269.703 83.6685 269.702C83.6615 269.7 83.6544 269.699 83.6474 269.697C83.6404 269.696 83.6333 269.694 83.6263 269.693C83.6193 269.691 83.6123 269.689 83.6052 269.688C83.5982 269.686 83.5912 269.685 83.5841 269.683C83.5771 269.682 83.5701 269.68 83.563 269.678C83.556 269.677 83.549 269.675 83.5419 269.674C83.5349 269.672 83.5279 269.671 83.5208 269.669C83.5138 269.668 83.5068 269.666 83.4998 269.664C83.4927 269.663 83.4857 269.661 83.4787 269.66C83.4716 269.658 83.4646 269.657 83.4576 269.655C83.4505 269.653 83.4435 269.652 83.4365 269.65C83.4294 269.649 83.4224 269.647 83.4154 269.646C83.4083 269.644 83.4013 269.643 83.3943 269.641C83.3873 269.639 83.3802 269.638 83.3732 269.636C83.3662 269.635 83.3591 269.633 83.3521 269.632C83.3451 269.63 83.338 269.628 83.331 269.627C83.324 269.625 83.3169 269.624 83.3099 269.622C83.3029 269.621 83.2958 269.619 83.2888 269.618C83.2818 269.616 83.2748 269.614 83.2677 269.613C83.2607 269.611 83.2537 269.61 83.2466 269.608C83.2396 269.607 83.2326 269.605 83.2255 269.603C83.2185 269.602 83.2115 269.6 83.2044 269.599C83.1974 269.597 83.1904 269.596 83.1833 269.594C83.1763 269.593 83.1693 269.591 83.1623 269.589C83.1552 269.588 83.1482 269.586 83.1412 269.585C83.1341 269.583 83.1271 269.582 83.1201 269.58C83.113 269.578 83.106 269.577 83.099 269.575C83.0919 269.574 83.0849 269.572 83.0779 269.571C83.0708 269.569 83.0638 269.568 83.0568 269.566C83.0498 269.564 83.0427 269.563 83.0357 269.561C83.0287 269.56 83.0216 269.558 83.0146 269.557C83.0076 269.555 83.0005 269.553 82.9935 269.552C82.9865 269.55 82.9794 269.549 82.9724 269.547C82.9654 269.546 82.9583 269.544 82.9513 269.543C82.9443 269.541 82.9373 269.539 82.9302 269.538C82.9232 269.536 82.9162 269.535 82.9091 269.533C82.9021 269.532 82.8951 269.53 82.888 269.528C82.881 269.527 82.874 269.525 82.8669 269.524C82.8599 269.522 82.8529 269.521 82.8458 269.519C82.8388 269.518 82.8318 269.516 82.8248 269.514C82.8177 269.513 82.8107 269.511 82.8037 269.51C82.7966 269.508 82.7896 269.507 82.7826 269.505C82.7755 269.503 82.7685 269.502 82.7615 269.5C82.7544 269.499 82.7474 269.497 82.7404 269.496C82.7333 269.494 82.7263 269.493 82.7193 269.491C82.7123 269.489 82.7052 269.488 82.6982 269.486C82.6912 269.485 82.6841 269.483 82.6771 269.482C82.6701 269.48 82.663 269.478 82.656 269.477C82.649 269.475 82.6419 269.474 82.6349 269.472C82.6279 269.471 82.6208 269.469 82.6138 269.468C82.6068 269.466 82.5998 269.464 82.5927 269.463C82.5857 269.461 82.5787 269.46 82.5716 269.458C82.5646 269.457 82.5576 269.455 82.5505 269.453C82.5435 269.452 82.5365 269.45 82.5294 269.449C82.5224 269.447 82.5154 269.446 82.5083 269.444C82.5013 269.443 82.4943 269.441 82.4873 269.439C82.4802 269.438 82.4732 269.436 82.4662 269.435C82.4591 269.433 82.4521 269.432 82.4451 269.43C82.438 269.428 82.431 269.427 82.424 269.425C82.4169 269.424 82.4099 269.422 82.4029 269.421C82.3958 269.419 82.3888 269.418 82.3818 269.416C82.3748 269.414 82.3677 269.413 82.3607 269.411C82.3537 269.41 82.3466 269.408 82.3396 269.407C82.3326 269.405 82.3255 269.403 82.3185 269.402C82.3115 269.4 82.3044 269.399 82.2974 269.397C82.2904 269.396 82.2833 269.394 82.2763 269.393C82.2693 269.391 82.2623 269.389 82.2552 269.388C82.2482 269.386 82.2412 269.385 82.2341 269.383C82.2271 269.382 82.2201 269.38 82.213 269.378C82.206 269.377 82.199 269.375 82.1919 269.374C82.1849 269.372 82.1779 269.371 82.1708 269.369C82.1638 269.368 82.1568 269.366 82.1498 269.364C82.1427 269.363 82.1357 269.361 82.1287 269.36C82.1216 269.358 82.1146 269.357 82.1076 269.355C82.1005 269.353 82.0935 269.352 82.0865 269.35C82.0794 269.349 82.0724 269.347 82.0654 269.346C82.0583 269.344 82.0513 269.343 82.0443 269.341C82.0373 269.339 82.0302 269.338 82.0232 269.336C82.0162 269.335 82.0091 269.333 82.0021 269.332C81.9951 269.33 81.988 269.328 81.981 269.327C81.974 269.325 81.9669 269.324 81.9599 269.322C81.9529 269.321 81.9458 269.319 81.9388 269.318C81.9318 269.316 81.9248 269.314 81.9177 269.313C81.9107 269.311 81.9037 269.31 81.8966 269.308C81.8896 269.307 81.8826 269.305 81.8755 269.303C81.8685 269.302 81.8615 269.3 81.8544 269.299C81.8474 269.297 81.8404 269.296 81.8333 269.294C81.8263 269.293 81.8193 269.291 81.8123 269.289C81.8052 269.288 81.7982 269.286 81.7912 269.285C81.7841 269.283 81.7771 269.282 81.7701 269.28C81.763 269.278 81.756 269.277 81.749 269.275C81.7419 269.274 81.7349 269.272 81.7279 269.271C81.7208 269.269 81.7138 269.268 81.7068 269.266C81.6998 269.264 81.6927 269.263 81.6857 269.261C81.6787 269.26 81.6716 269.258 81.6646 269.257C81.6576 269.255 81.6505 269.253 81.6435 269.252C81.6365 269.25 81.6294 269.249 81.6224 269.247C81.6154 269.246 81.6083 269.244 81.6013 269.243C81.5943 269.241 81.5873 269.239 81.5802 269.238C81.5732 269.236 81.5662 269.235 81.5591 269.233C81.5521 269.232 81.5451 269.23 81.538 269.228C81.531 269.227 81.524 269.225 81.5169 269.224C81.5099 269.222 81.5029 269.221 81.4958 269.219C81.4888 269.218 81.4818 269.216 81.4748 269.214C81.4677 269.213 81.4607 269.211 81.4537 269.21C81.4466 269.208 81.4396 269.207 81.4326 269.205C81.4255 269.203 81.4185 269.202 81.4115 269.2C81.4044 269.199 81.3974 269.197 81.3904 269.196C81.3833 269.194 81.3763 269.193 81.3693 269.191C81.3623 269.189 81.3552 269.188 81.3482 269.186C81.3412 269.185 81.3341 269.183 81.3271 269.182C81.3201 269.18 81.313 269.178 81.306 269.177C81.299 269.175 81.2919 269.174 81.2849 269.172C81.2779 269.171 81.2708 269.169 81.2638 269.168C81.2568 269.166 81.2498 269.164 81.2427 269.163C81.2357 269.161 81.2287 269.16 81.2216 269.158C81.2146 269.157 81.2076 269.155 81.2005 269.153C81.1935 269.152 81.1865 269.15 81.1794 269.149C81.1724 269.147 81.1654 269.146 81.1583 269.144C81.1513 269.143 81.1443 269.141 81.1373 269.139C81.1302 269.138 81.1232 269.136 81.1162 269.135C81.1091 269.133 81.1021 269.132 81.0951 269.13C81.088 269.128 81.081 269.127 81.074 269.125C81.0669 269.124 81.0599 269.122 81.0529 269.121C81.0458 269.119 81.0388 269.118 81.0318 269.116C81.0248 269.114 81.0177 269.113 81.0107 269.111C81.0037 269.11 80.9966 269.108 80.9896 269.107C80.9826 269.105 80.9755 269.103 80.9685 269.102C80.9615 269.1 80.9544 269.099 80.9474 269.097C80.9404 269.096 80.9333 269.094 80.9263 269.093C80.9193 269.091 80.9123 269.089 80.9052 269.088C80.8982 269.086 80.8912 269.085 80.8841 269.083C80.8771 269.082 80.8701 269.08 80.863 269.078C80.856 269.077 80.849 269.075 80.8419 269.074C80.8349 269.072 80.8279 269.071 80.8208 269.069C80.8138 269.068 80.8068 269.066 80.7998 269.064C80.7927 269.063 80.7857 269.061 80.7787 269.06C80.7716 269.058 80.7646 269.057 80.7576 269.055C80.7505 269.053 80.7435 269.052 80.7365 269.05C80.7294 269.049 80.7224 269.047 80.7154 269.046C80.7083 269.044 80.7013 269.043 80.6943 269.041C80.6873 269.039 80.6802 269.038 80.6732 269.036C80.6662 269.035 80.6591 269.033 80.6521 269.032C80.6451 269.03 80.638 269.028 80.631 269.027C80.624 269.025 80.6169 269.024 80.6099 269.022C80.6029 269.021 80.5958 269.019 80.5888 269.018C80.5818 269.016 80.5748 269.014 80.5677 269.013C80.5607 269.011 80.5537 269.01 80.5466 269.008C80.5396 269.007 80.5326 269.005 80.5255 269.003C80.5185 269.002 80.5115 269 80.5044 268.999C80.4974 268.997 80.4904 268.996 80.4833 268.994C80.4763 268.993 80.4693 268.991 80.4623 268.989C80.4552 268.988 80.4482 268.986 80.4412 268.985C80.4341 268.983 80.4271 268.982 80.4201 268.98C80.413 268.978 80.406 268.977 80.399 268.975C80.3919 268.974 80.3849 268.972 80.3779 268.971C80.3708 268.969 80.3638 268.968 80.3568 268.966C80.3498 268.964 80.3427 268.963 80.3357 268.961C80.3287 268.96 80.3216 268.958 80.3146 268.957C80.3076 268.955 80.3005 268.953 80.2935 268.952C80.2865 268.95 80.2794 268.949 80.2724 268.947C80.2654 268.946 80.2583 268.944 80.2513 268.943C80.2443 268.941 80.2373 268.939 80.2302 268.938C80.2232 268.936 80.2162 268.935 80.2091 268.933C80.2021 268.932 80.1951 268.93 80.188 268.928C80.181 268.927 80.174 268.925 80.1669 268.924C80.1599 268.922 80.1529 268.921 80.1458 268.919C80.1388 268.918 80.1318 268.916 80.1248 268.914C80.1177 268.913 80.1107 268.911 80.1037 268.91C80.0966 268.908 80.0896 268.907 80.0826 268.905C80.0755 268.903 80.0685 268.902 80.0615 268.9C80.0544 268.899 80.0474 268.897 80.0404 268.896C80.0333 268.894 80.0263 268.893 80.0193 268.891C80.0123 268.889 80.0052 268.888 79.9982 268.886C79.9912 268.885 79.9841 268.883 79.9771 268.882C79.9701 268.88 79.963 268.878 79.956 268.877C79.949 268.875 79.9419 268.874 79.9349 268.872C79.9279 268.871 79.9208 268.869 79.9138 268.868C79.9068 268.866 79.8998 268.864 79.8927 268.863C79.8857 268.861 79.8787 268.86 79.8716 268.858C79.8646 268.857 79.8576 268.855 79.8505 268.853C79.8435 268.852 79.8365 268.85 79.8294 268.849C79.8224 268.847 79.8154 268.846 79.8083 268.844C79.8013 268.843 79.7943 268.841 79.7873 268.839C79.7802 268.838 79.7732 268.836 79.7662 268.835C79.7591 268.833 79.7521 268.832 79.7451 268.83C79.738 268.828 79.731 268.827 79.724 268.825C79.7169 268.824 79.7099 268.822 79.7029 268.821C79.6958 268.819 79.6888 268.818 79.6818 268.816C79.6748 268.814 79.6677 268.813 79.6607 268.811C79.6537 268.81 79.6466 268.808 79.6396 268.807C79.6326 268.805 79.6255 268.803 79.6185 268.802C79.6115 268.8 79.6044 268.799 79.5974 268.797C79.5904 268.796 79.5833 268.794 79.5763 268.793C79.5693 268.791 79.5623 268.789 79.5552 268.788C79.5482 268.786 79.5412 268.785 79.5341 268.783C79.5271 268.782 79.5201 268.78 79.513 268.778C79.506 268.777 79.499 268.775 79.4919 268.774C79.4849 268.772 79.4779 268.771 79.4708 268.769C79.4638 268.768 79.4568 268.766 79.4498 268.764C79.4427 268.763 79.4357 268.761 79.4287 268.76C79.4216 268.758 79.4146 268.757 79.4076 268.755C79.4005 268.753 79.3935 268.752 79.3865 268.75C79.3794 268.749 79.3724 268.747 79.3654 268.746C79.3583 268.744 79.3513 268.743 79.3443 268.741C79.3373 268.739 79.3302 268.738 79.3232 268.736C79.3162 268.735 79.3091 268.733 79.3021 268.732C79.2951 268.73 79.288 268.728 79.281 268.727C79.274 268.725 79.2669 268.724 79.2599 268.722C79.2529 268.721 79.2458 268.719 79.2388 268.718C79.2318 268.716 79.2248 268.714 79.2177 268.713C79.2107 268.711 79.2037 268.71 79.1966 268.708C79.1896 268.707 79.1826 268.705 79.1755 268.703C79.1685 268.702 79.1615 268.7 79.1544 268.699C79.1474 268.697 79.1404 268.696 79.1333 268.694C79.1263 268.693 79.1193 268.691 79.1123 268.689C79.1052 268.688 79.0982 268.686 79.0912 268.685C79.0841 268.683 79.0771 268.682 79.0701 268.68C79.063 268.678 79.056 268.677 79.049 268.675C79.0419 268.674 79.0349 268.672 79.0279 268.671C79.0208 268.669 79.0138 268.668 79.0068 268.666C78.9998 268.664 78.9927 268.663 78.9857 268.661C78.9787 268.66 78.9716 268.658 78.9646 268.657C78.9576 268.655 78.9505 268.653 78.9435 268.652C78.9365 268.65 78.9294 268.649 78.9224 268.647C78.9154 268.646 78.9083 268.644 78.9013 268.643C78.8943 268.641 78.8873 268.639 78.8802 268.638C78.8732 268.636 78.8662 268.635 78.8591 268.633C78.8521 268.632 78.8451 268.63 78.838 268.628C78.831 268.627 78.824 268.625 78.8169 268.624C78.8099 268.622 78.8029 268.621 78.7958 268.619C78.7888 268.618 78.7818 268.616 78.7748 268.614C78.7677 268.613 78.7607 268.611 78.7537 268.61C78.7466 268.608 78.7396 268.607 78.7326 268.605C78.7255 268.603 78.7185 268.602 78.7115 268.6C78.7044 268.599 78.6974 268.597 78.6904 268.596C78.6833 268.594 78.6763 268.593 78.6693 268.591C78.6623 268.589 78.6552 268.588 78.6482 268.586C78.6412 268.585 78.6341 268.583 78.6271 268.582C78.6201 268.58 78.613 268.578 78.606 268.577C78.599 268.575 78.5919 268.574 78.5849 268.572C78.5779 268.571 78.5708 268.569 78.5638 268.568C78.5568 268.566 78.5498 268.564 78.5427 268.563C78.5357 268.561 78.5287 268.56 78.5216 268.558C78.5146 268.557 78.5076 268.555 78.5005 268.553C78.4935 268.552 78.4865 268.55 78.4794 268.549C78.4724 268.547 78.4654 268.546 78.4583 268.544C78.4513 268.543 78.4443 268.541 78.4373 268.539C78.4302 268.538 78.4232 268.536 78.4162 268.535C78.4091 268.533 78.4021 268.532 78.3951 268.53C78.388 268.528 78.381 268.527 78.374 268.525C78.3669 268.524 78.3599 268.522 78.3529 268.521C78.3458 268.519 78.3388 268.518 78.3318 268.516C78.3248 268.514 78.3177 268.513 78.3107 268.511C78.3037 268.51 78.2966 268.508 78.2896 268.507C78.2826 268.505 78.2755 268.503 78.2685 268.502C78.2615 268.5 78.2544 268.499 78.2474 268.497C78.2404 268.496 78.2333 268.494 78.2263 268.493C78.2193 268.491 78.2123 268.489 78.2052 268.488C78.1982 268.486 78.1912 268.485 78.1841 268.483C78.1771 268.482 78.1701 268.48 78.163 268.478C78.156 268.477 78.149 268.475 78.1419 268.474C78.1349 268.472 78.1279 268.471 78.1208 268.469C78.1138 268.468 78.1068 268.466 78.0998 268.464C78.0927 268.463 78.0857 268.461 78.0787 268.46C78.0716 268.458 78.0646 268.457 78.0576 268.455C78.0505 268.453 78.0435 268.452 78.0365 268.45C78.0294 268.449 78.0224 268.447 78.0154 268.446C78.0083 268.444 78.0013 268.443 77.9943 268.441C77.9873 268.439 77.9802 268.438 77.9732 268.436C77.9662 268.435 77.9591 268.433 77.9521 268.432C77.9451 268.43 77.938 268.428 77.931 268.427C77.924 268.425 77.9169 268.424 77.9099 268.422C77.9029 268.421 77.8958 268.419 77.8888 268.418C77.8818 268.416 77.8748 268.414 77.8677 268.413C77.8607 268.411 77.8537 268.41 77.8466 268.408C77.8396 268.407 77.8326 268.405 77.8255 268.403C77.8185 268.402 77.8115 268.4 77.8044 268.399C77.7974 268.397 77.7904 268.396 77.7833 268.394C77.7763 268.393 77.7693 268.391 77.7623 268.389C77.7552 268.388 77.7482 268.386 77.7412 268.385C77.7341 268.383 77.7271 268.382 77.7201 268.38C77.713 268.378 77.706 268.377 77.699 268.375C77.6919 268.374 77.6849 268.372 77.6779 268.371C77.6708 268.369 77.6638 268.368 77.6568 268.366C77.6498 268.364 77.6427 268.363 77.6357 268.361C77.6287 268.36 77.6216 268.358 77.6146 268.357C77.6076 268.355 77.6005 268.353 77.5935 268.352C77.5865 268.35 77.5794 268.349 77.5724 268.347C77.5654 268.346 77.5583 268.344 77.5513 268.343C77.5443 268.341 77.5373 268.339 77.5302 268.338C77.5232 268.336 77.5162 268.335 77.5091 268.333C77.5021 268.332 77.4951 268.33 77.488 268.328C77.481 268.327 77.474 268.325 77.4669 268.324C77.4599 268.322 77.4529 268.321 77.4458 268.319C77.4388 268.318 77.4318 268.316 77.4248 268.314C77.4177 268.313 77.4107 268.311 77.4037 268.31C77.3966 268.308 77.3896 268.307 77.3826 268.305C77.3755 268.303 77.3685 268.302 77.3615 268.3C77.3544 268.299 77.3474 268.297 77.3404 268.296C77.3333 268.294 77.3263 268.293 77.3193 268.291C77.3123 268.289 77.3052 268.288 77.2982 268.286C77.2912 268.285 77.2841 268.283 77.2771 268.282C77.2701 268.28 77.263 268.278 77.256 268.277C77.249 268.275 77.2419 268.274 77.2349 268.272C77.2279 268.271 77.2208 268.269 77.2138 268.268C77.2068 268.266 77.1998 268.264 77.1927 268.263C77.1857 268.261 77.1787 268.26 77.1716 268.258C77.1646 268.257 77.1576 268.255 77.1505 268.253C77.1435 268.252 77.1365 268.25 77.1294 268.249C77.1224 268.247 77.1154 268.246 77.1083 268.244C77.1013 268.243 77.0943 268.241 77.0873 268.239C77.0802 268.238 77.0732 268.236 77.0662 268.235C77.0591 268.233 77.0521 268.232 77.0451 268.23C77.038 268.228 77.031 268.227 77.024 268.225C77.0169 268.224 77.0099 268.222 77.0029 268.221C76.9958 268.219 76.9888 268.218 76.9818 268.216C76.9748 268.214 76.9677 268.213 76.9607 268.211C76.9537 268.21 76.9466 268.208 76.9396 268.207C76.9326 268.205 76.9255 268.203 76.9185 268.202C76.9115 268.2 76.9044 268.199 76.8974 268.197C76.8904 268.196 76.8833 268.194 76.8763 268.193C76.8693 268.191 76.8623 268.189 76.8552 268.188C76.8482 268.186 76.8412 268.185 76.8341 268.183C76.8271 268.182 76.8201 268.18 76.813 268.178C76.806 268.177 76.799 268.175 76.7919 268.174C76.7849 268.172 76.7779 268.171 76.7708 268.169C76.7638 268.168 76.7568 268.166 76.7498 268.164C76.7427 268.163 76.7357 268.161 76.7287 268.16C76.7216 268.158 76.7146 268.157 76.7076 268.155C76.7005 268.153 76.6935 268.152 76.6865 268.15C76.6794 268.149 76.6724 268.147 76.6654 268.146C76.6583 268.144 76.6513 268.143 76.6443 268.141C76.6373 268.139 76.6302 268.138 76.6232 268.136C76.6162 268.135 76.6091 268.133 76.6021 268.132C76.5951 268.13 76.588 268.128 76.581 268.127C76.574 268.125 76.5669 268.124 76.5599 268.122C76.5529 268.121 76.5458 268.119 76.5388 268.118C76.5318 268.116 76.5248 268.114 76.5177 268.113C76.5107 268.111 76.5037 268.11 76.4966 268.108C76.4896 268.107 76.4826 268.105 76.4755 268.103C76.4685 268.102 76.4615 268.1 76.4544 268.099C76.4474 268.097 76.4404 268.096 76.4333 268.094C76.4263 268.093 76.4193 268.091 76.4123 268.089C76.4052 268.088 76.3982 268.086 76.3912 268.085C76.3841 268.083 76.3771 268.082 76.3701 268.08C76.363 268.078 76.356 268.077 76.349 268.075C76.3419 268.074 76.3349 268.072 76.3279 268.071C76.3208 268.069 76.3138 268.068 76.3068 268.066C76.2998 268.064 76.2927 268.063 76.2857 268.061C76.2787 268.06 76.2716 268.058 76.2646 268.057C76.2576 268.055 76.2505 268.053 76.2435 268.052C76.2365 268.05 76.2294 268.049 76.2224 268.047C76.2154 268.046 76.2083 268.044 76.2013 268.043C76.1943 268.041 76.1873 268.039 76.1802 268.038C76.1732 268.036 76.1662 268.035 76.1591 268.033C76.1521 268.032 76.1451 268.03 76.138 268.028C76.131 268.027 76.124 268.025 76.1169 268.024C76.1099 268.022 76.1029 268.021 76.0958 268.019C76.0888 268.018 76.0818 268.016 76.0748 268.014C76.0677 268.013 76.0607 268.011 76.0537 268.01C76.0466 268.008 76.0396 268.007 76.0326 268.005C76.0255 268.003 76.0185 268.002 76.0115 268C76.0044 267.999 75.9974 267.997 75.9904 267.996C75.9833 267.994 75.9763 267.993 75.9693 267.991C75.9623 267.989 75.9552 267.988 75.9482 267.986C75.9412 267.985 75.9341 267.983 75.9271 267.982C75.9201 267.98 75.913 267.978 75.906 267.977C75.899 267.975 75.8919 267.974 75.8849 267.972C75.8779 267.971 75.8708 267.969 75.8638 267.968C75.8568 267.966 75.8498 267.964 75.8427 267.963C75.8357 267.961 75.8287 267.96 75.8216 267.958C75.8146 267.957 75.8076 267.955 75.8005 267.953C75.7935 267.952 75.7865 267.95 75.7794 267.949C75.7724 267.947 75.7654 267.946 75.7583 267.944C75.7513 267.943 75.7443 267.941 75.7373 267.939C75.7302 267.938 75.7232 267.936 75.7162 267.935C75.7091 267.933 75.7021 267.932 75.6951 267.93C75.688 267.928 75.681 267.927 75.674 267.925C75.6669 267.924 75.6599 267.922 75.6529 267.921C75.6458 267.919 75.6388 267.918 75.6318 267.916C75.6248 267.914 75.6177 267.913 75.6107 267.911C75.6037 267.91 75.5966 267.908 75.5896 267.907C75.5826 267.905 75.5755 267.903 75.5685 267.902C75.5615 267.9 75.5544 267.899 75.5474 267.897C75.5404 267.896 75.5333 267.894 75.5263 267.893C75.5193 267.891 75.5123 267.889 75.5052 267.888C75.4982 267.886 75.4912 267.885 75.4841 267.883C75.4771 267.882 75.4701 267.88 75.463 267.878C75.456 267.877 75.449 267.875 75.4419 267.874C75.4349 267.872 75.4279 267.871 75.4208 267.869C75.4138 267.868 75.4068 267.866 75.3998 267.864C75.3927 267.863 75.3857 267.861 75.3787 267.86C75.3716 267.858 75.3646 267.857 75.3576 267.855C75.3505 267.853 75.3435 267.852 75.3365 267.85C75.3294 267.849 75.3224 267.847 75.3154 267.846C75.3083 267.844 75.3013 267.843 75.2943 267.841C75.2873 267.839 75.2802 267.838 75.2732 267.836C75.2662 267.835 75.2591 267.833 75.2521 267.832C75.2451 267.83 75.238 267.828 75.231 267.827C75.224 267.825 75.2169 267.824 75.2099 267.822C75.2029 267.821 75.1958 267.819 75.1888 267.818C75.1818 267.816 75.1748 267.814 75.1677 267.813C75.1607 267.811 75.1537 267.81 75.1466 267.808C75.1396 267.807 75.1326 267.805 75.1255 267.803C75.1185 267.802 75.1115 267.8 75.1044 267.799C75.0974 267.797 75.0904 267.796 75.0833 267.794C75.0763 267.793 75.0693 267.791 75.0623 267.789C75.0552 267.788 75.0482 267.786 75.0412 267.785C75.0341 267.783 75.0271 267.782 75.0201 267.78C75.013 267.778 75.006 267.777 74.999 267.775C74.9919 267.774 74.9849 267.772 74.9779 267.771C74.9708 267.769 74.9638 267.768 74.9568 267.766C74.9498 267.764 74.9427 267.763 74.9357 267.761C74.9287 267.76 74.9216 267.758 74.9146 267.757C74.9076 267.755 74.9005 267.753 74.8935 267.752C74.8865 267.75 74.8794 267.749 74.8724 267.747C74.8654 267.746 74.8583 267.744 74.8513 267.743C74.8443 267.741 74.8373 267.739 74.8302 267.738C74.8232 267.736 74.8162 267.735 74.8091 267.733C74.8021 267.732 74.7951 267.73 74.788 267.728C74.781 267.727 74.774 267.725 74.7669 267.724C74.7599 267.722 74.7529 267.721 74.7458 267.719C74.7388 267.718 74.7318 267.716 74.7248 267.714C74.7177 267.713 74.7107 267.711 74.7037 267.71C74.6966 267.708 74.6896 267.707 74.6826 267.705C74.6755 267.703 74.6685 267.702 74.6615 267.7C74.6544 267.699 74.6474 267.697 74.6404 267.696C74.6333 267.694 74.6263 267.693 74.6193 267.691C74.6123 267.689 74.6052 267.688 74.5982 267.686C74.5912 267.685 74.5841 267.683 74.5771 267.682C74.5701 267.68 74.563 267.678 74.556 267.677C74.549 267.675 74.5419 267.674 74.5349 267.672C74.5279 267.671 74.5208 267.669 74.5138 267.668C74.5068 267.666 74.4998 267.664 74.4927 267.663C74.4857 267.661 74.4787 267.66 74.4716 267.658C74.4646 267.657 74.4576 267.655 74.4505 267.653C74.4435 267.652 74.4365 267.65 74.4294 267.649C74.4224 267.647 74.4154 267.646 74.4083 267.644C74.4013 267.643 74.3943 267.641 74.3873 267.639C74.3802 267.638 74.3732 267.636 74.3662 267.635C74.3591 267.633 74.3521 267.632 74.3451 267.63C74.338 267.628 74.331 267.627 74.324 267.625C74.3169 267.624 74.3099 267.622 74.3029 267.621C74.2958 267.619 74.2888 267.618 74.2818 267.616C74.2748 267.614 74.2677 267.613 74.2607 267.611C74.2537 267.61 74.2466 267.608 74.2396 267.607C74.2326 267.605 74.2255 267.603 74.2185 267.602C74.2115 267.6 74.2044 267.599 74.1974 267.597C74.1904 267.596 74.1833 267.594 74.1763 267.593C74.1693 267.591 74.1623 267.589 74.1552 267.588C74.1482 267.586 74.1412 267.585 74.1341 267.583C74.1271 267.582 74.1201 267.58 74.113 267.578C74.106 267.577 74.099 267.575 74.0919 267.574C74.0849 267.572 74.0779 267.571 74.0708 267.569C74.0638 267.568 74.0568 267.566 74.0498 267.564C74.0427 267.563 74.0357 267.561 74.0287 267.56C74.0216 267.558 74.0146 267.557 74.0076 267.555C74.0005 267.553 73.9935 267.552 73.9865 267.55C73.9794 267.549 73.9724 267.547 73.9654 267.546C73.9583 267.544 73.9513 267.543 73.9443 267.541C73.9373 267.539 73.9302 267.538 73.9232 267.536C73.9162 267.535 73.9091 267.533 73.9021 267.532C73.8951 267.53 73.888 267.528 73.881 267.527C73.874 267.525 73.8669 267.524 73.8599 267.522C73.8529 267.521 73.8458 267.519 73.8388 267.518C73.8318 267.516 73.8248 267.514 73.8177 267.513C73.8107 267.511 73.8037 267.51 73.7966 267.508C73.7896 267.507 73.7826 267.505 73.7755 267.503C73.7685 267.502 73.7615 267.5 73.7544 267.499C73.7474 267.497 73.7404 267.496 73.7333 267.494C73.7263 267.493 73.7193 267.491 73.7123 267.489C73.7052 267.488 73.6982 267.486 73.6912 267.485C73.6841 267.483 73.6771 267.482 73.6701 267.48C73.663 267.478 73.656 267.477 73.649 267.475C73.6419 267.474 73.6349 267.472 73.6279 267.471C73.6208 267.469 73.6138 267.468 73.6068 267.466C73.5998 267.464 73.5927 267.463 73.5857 267.461C73.5787 267.46 73.5716 267.458 73.5646 267.457C73.5576 267.455 73.5505 267.453 73.5435 267.452C73.5365 267.45 73.5294 267.449 73.5224 267.447C73.5154 267.446 73.5083 267.444 73.5013 267.443C73.4943 267.441 73.4873 267.439 73.4802 267.438C73.4732 267.436 73.4662 267.435 73.4591 267.433C73.4521 267.432 73.4451 267.43 73.438 267.428C73.431 267.427 73.424 267.425 73.4169 267.424L72.9831 269.376C72.9901 269.378 72.9971 269.379 73.0042 269.381C73.0112 269.382 73.0182 269.384 73.0253 269.386C73.0323 269.387 73.0393 269.389 73.0464 269.39C73.0534 269.392 73.0604 269.393 73.0675 269.395C73.0745 269.396 73.0815 269.398 73.0885 269.4C73.0956 269.401 73.1026 269.403 73.1096 269.404C73.1167 269.406 73.1237 269.407 73.1307 269.409C73.1378 269.411 73.1448 269.412 73.1518 269.414C73.1589 269.415 73.1659 269.417 73.1729 269.418C73.18 269.42 73.187 269.421 73.194 269.423C73.201 269.425 73.2081 269.426 73.2151 269.428C73.2221 269.429 73.2292 269.431 73.2362 269.432C73.2432 269.434 73.2503 269.436 73.2573 269.437C73.2643 269.439 73.2714 269.44 73.2784 269.442C73.2854 269.443 73.2925 269.445 73.2995 269.446C73.3065 269.448 73.3135 269.45 73.3206 269.451C73.3276 269.453 73.3346 269.454 73.3417 269.456C73.3487 269.457 73.3557 269.459 73.3628 269.461C73.3698 269.462 73.3768 269.464 73.3839 269.465C73.3909 269.467 73.3979 269.468 73.405 269.47C73.412 269.471 73.419 269.473 73.426 269.475C73.4331 269.476 73.4401 269.478 73.4471 269.479C73.4542 269.481 73.4612 269.482 73.4682 269.484C73.4753 269.486 73.4823 269.487 73.4893 269.489C73.4964 269.49 73.5034 269.492 73.5104 269.493C73.5175 269.495 73.5245 269.496 73.5315 269.498C73.5385 269.5 73.5456 269.501 73.5526 269.503C73.5596 269.504 73.5667 269.506 73.5737 269.507C73.5807 269.509 73.5878 269.511 73.5948 269.512C73.6018 269.514 73.6089 269.515 73.6159 269.517C73.6229 269.518 73.63 269.52 73.637 269.521C73.644 269.523 73.651 269.525 73.6581 269.526C73.6651 269.528 73.6721 269.529 73.6792 269.531C73.6862 269.532 73.6932 269.534 73.7003 269.536C73.7073 269.537 73.7143 269.539 73.7214 269.54C73.7284 269.542 73.7354 269.543 73.7425 269.545C73.7495 269.546 73.7565 269.548 73.7635 269.55C73.7706 269.551 73.7776 269.553 73.7846 269.554C73.7917 269.556 73.7987 269.557 73.8057 269.559C73.8128 269.561 73.8198 269.562 73.8268 269.564C73.8339 269.565 73.8409 269.567 73.8479 269.568C73.855 269.57 73.862 269.571 73.869 269.573C73.876 269.575 73.8831 269.576 73.8901 269.578C73.8971 269.579 73.9042 269.581 73.9112 269.582C73.9182 269.584 73.9253 269.586 73.9323 269.587C73.9393 269.589 73.9464 269.59 73.9534 269.592C73.9604 269.593 73.9675 269.595 73.9745 269.596C73.9815 269.598 73.9885 269.6 73.9956 269.601C74.0026 269.603 74.0096 269.604 74.0167 269.606C74.0237 269.607 74.0307 269.609 74.0378 269.611C74.0448 269.612 74.0518 269.614 74.0589 269.615C74.0659 269.617 74.0729 269.618 74.08 269.62C74.087 269.621 74.094 269.623 74.101 269.625C74.1081 269.626 74.1151 269.628 74.1221 269.629C74.1292 269.631 74.1362 269.632 74.1432 269.634C74.1503 269.636 74.1573 269.637 74.1643 269.639C74.1714 269.64 74.1784 269.642 74.1854 269.643C74.1925 269.645 74.1995 269.646 74.2065 269.648C74.2135 269.65 74.2206 269.651 74.2276 269.653C74.2346 269.654 74.2417 269.656 74.2487 269.657C74.2557 269.659 74.2628 269.661 74.2698 269.662C74.2768 269.664 74.2839 269.665 74.2909 269.667C74.2979 269.668 74.305 269.67 74.312 269.671C74.319 269.673 74.326 269.675 74.3331 269.676C74.3401 269.678 74.3471 269.679 74.3542 269.681C74.3612 269.682 74.3682 269.684 74.3753 269.686C74.3823 269.687 74.3893 269.689 74.3964 269.69C74.4034 269.692 74.4104 269.693 74.4175 269.695C74.4245 269.696 74.4315 269.698 74.4385 269.7C74.4456 269.701 74.4526 269.703 74.4596 269.704C74.4667 269.706 74.4737 269.707 74.4807 269.709C74.4878 269.711 74.4948 269.712 74.5018 269.714C74.5089 269.715 74.5159 269.717 74.5229 269.718C74.53 269.72 74.537 269.721 74.544 269.723C74.551 269.725 74.5581 269.726 74.5651 269.728C74.5721 269.729 74.5792 269.731 74.5862 269.732C74.5932 269.734 74.6003 269.736 74.6073 269.737C74.6143 269.739 74.6214 269.74 74.6284 269.742C74.6354 269.743 74.6425 269.745 74.6495 269.746C74.6565 269.748 74.6635 269.75 74.6706 269.751C74.6776 269.753 74.6846 269.754 74.6917 269.756C74.6987 269.757 74.7057 269.759 74.7128 269.761C74.7198 269.762 74.7268 269.764 74.7339 269.765C74.7409 269.767 74.7479 269.768 74.755 269.77C74.762 269.771 74.769 269.773 74.776 269.775C74.7831 269.776 74.7901 269.778 74.7971 269.779C74.8042 269.781 74.8112 269.782 74.8182 269.784C74.8253 269.786 74.8323 269.787 74.8393 269.789C74.8464 269.79 74.8534 269.792 74.8604 269.793C74.8675 269.795 74.8745 269.796 74.8815 269.798C74.8885 269.8 74.8956 269.801 74.9026 269.803C74.9096 269.804 74.9167 269.806 74.9237 269.807C74.9307 269.809 74.9378 269.811 74.9448 269.812C74.9518 269.814 74.9589 269.815 74.9659 269.817C74.9729 269.818 74.98 269.82 74.987 269.821C74.994 269.823 75.001 269.825 75.0081 269.826C75.0151 269.828 75.0221 269.829 75.0292 269.831C75.0362 269.832 75.0432 269.834 75.0503 269.836C75.0573 269.837 75.0643 269.839 75.0714 269.84C75.0784 269.842 75.0854 269.843 75.0925 269.845C75.0995 269.846 75.1065 269.848 75.1135 269.85C75.1206 269.851 75.1276 269.853 75.1346 269.854C75.1417 269.856 75.1487 269.857 75.1557 269.859C75.1628 269.861 75.1698 269.862 75.1768 269.864C75.1839 269.865 75.1909 269.867 75.1979 269.868C75.205 269.87 75.212 269.871 75.219 269.873C75.226 269.875 75.2331 269.876 75.2401 269.878C75.2471 269.879 75.2542 269.881 75.2612 269.882C75.2682 269.884 75.2753 269.886 75.2823 269.887C75.2893 269.889 75.2964 269.89 75.3034 269.892C75.3104 269.893 75.3175 269.895 75.3245 269.896C75.3315 269.898 75.3385 269.9 75.3456 269.901C75.3526 269.903 75.3596 269.904 75.3667 269.906C75.3737 269.907 75.3807 269.909 75.3878 269.911C75.3948 269.912 75.4018 269.914 75.4089 269.915C75.4159 269.917 75.4229 269.918 75.43 269.92C75.437 269.921 75.444 269.923 75.451 269.925C75.4581 269.926 75.4651 269.928 75.4721 269.929C75.4792 269.931 75.4862 269.932 75.4932 269.934C75.5003 269.936 75.5073 269.937 75.5143 269.939C75.5214 269.94 75.5284 269.942 75.5354 269.943C75.5425 269.945 75.5495 269.946 75.5565 269.948C75.5635 269.95 75.5706 269.951 75.5776 269.953C75.5846 269.954 75.5917 269.956 75.5987 269.957C75.6057 269.959 75.6128 269.961 75.6198 269.962C75.6268 269.964 75.6339 269.965 75.6409 269.967C75.6479 269.968 75.655 269.97 75.662 269.971C75.669 269.973 75.676 269.975 75.6831 269.976C75.6901 269.978 75.6971 269.979 75.7042 269.981C75.7112 269.982 75.7182 269.984 75.7253 269.986C75.7323 269.987 75.7393 269.989 75.7464 269.99C75.7534 269.992 75.7604 269.993 75.7675 269.995C75.7745 269.996 75.7815 269.998 75.7885 270C75.7956 270.001 75.8026 270.003 75.8096 270.004C75.8167 270.006 75.8237 270.007 75.8307 270.009C75.8378 270.011 75.8448 270.012 75.8518 270.014C75.8589 270.015 75.8659 270.017 75.8729 270.018C75.88 270.02 75.887 270.021 75.894 270.023C75.901 270.025 75.9081 270.026 75.9151 270.028C75.9221 270.029 75.9292 270.031 75.9362 270.032C75.9432 270.034 75.9503 270.036 75.9573 270.037C75.9643 270.039 75.9714 270.04 75.9784 270.042C75.9854 270.043 75.9925 270.045 75.9995 270.046C76.0065 270.048 76.0135 270.05 76.0206 270.051C76.0276 270.053 76.0346 270.054 76.0417 270.056C76.0487 270.057 76.0557 270.059 76.0628 270.061C76.0698 270.062 76.0768 270.064 76.0839 270.065C76.0909 270.067 76.0979 270.068 76.105 270.07C76.112 270.071 76.119 270.073 76.126 270.075C76.1331 270.076 76.1401 270.078 76.1471 270.079C76.1542 270.081 76.1612 270.082 76.1682 270.084C76.1753 270.086 76.1823 270.087 76.1893 270.089C76.1964 270.09 76.2034 270.092 76.2104 270.093C76.2175 270.095 76.2245 270.096 76.2315 270.098C76.2385 270.1 76.2456 270.101 76.2526 270.103C76.2596 270.104 76.2667 270.106 76.2737 270.107C76.2807 270.109 76.2878 270.111 76.2948 270.112C76.3018 270.114 76.3089 270.115 76.3159 270.117C76.3229 270.118 76.33 270.12 76.337 270.121C76.344 270.123 76.351 270.125 76.3581 270.126C76.3651 270.128 76.3721 270.129 76.3792 270.131C76.3862 270.132 76.3932 270.134 76.4003 270.136C76.4073 270.137 76.4143 270.139 76.4214 270.14C76.4284 270.142 76.4354 270.143 76.4425 270.145C76.4495 270.146 76.4565 270.148 76.4635 270.15C76.4706 270.151 76.4776 270.153 76.4846 270.154C76.4917 270.156 76.4987 270.157 76.5057 270.159C76.5128 270.161 76.5198 270.162 76.5268 270.164C76.5339 270.165 76.5409 270.167 76.5479 270.168C76.555 270.17 76.562 270.171 76.569 270.173C76.576 270.175 76.5831 270.176 76.5901 270.178C76.5971 270.179 76.6042 270.181 76.6112 270.182C76.6182 270.184 76.6253 270.186 76.6323 270.187C76.6393 270.189 76.6464 270.19 76.6534 270.192C76.6604 270.193 76.6675 270.195 76.6745 270.196C76.6815 270.198 76.6885 270.2 76.6956 270.201C76.7026 270.203 76.7096 270.204 76.7167 270.206C76.7237 270.207 76.7307 270.209 76.7378 270.211C76.7448 270.212 76.7518 270.214 76.7589 270.215C76.7659 270.217 76.7729 270.218 76.78 270.22C76.787 270.221 76.794 270.223 76.801 270.225C76.8081 270.226 76.8151 270.228 76.8221 270.229C76.8292 270.231 76.8362 270.232 76.8432 270.234C76.8503 270.236 76.8573 270.237 76.8643 270.239C76.8714 270.24 76.8784 270.242 76.8854 270.243C76.8925 270.245 76.8995 270.246 76.9065 270.248C76.9135 270.25 76.9206 270.251 76.9276 270.253C76.9346 270.254 76.9417 270.256 76.9487 270.257C76.9557 270.259 76.9628 270.261 76.9698 270.262C76.9768 270.264 76.9839 270.265 76.9909 270.267C76.9979 270.268 77.005 270.27 77.012 270.271C77.019 270.273 77.026 270.275 77.0331 270.276C77.0401 270.278 77.0471 270.279 77.0542 270.281C77.0612 270.282 77.0682 270.284 77.0753 270.286C77.0823 270.287 77.0893 270.289 77.0964 270.29C77.1034 270.292 77.1104 270.293 77.1175 270.295C77.1245 270.296 77.1315 270.298 77.1385 270.3C77.1456 270.301 77.1526 270.303 77.1596 270.304C77.1667 270.306 77.1737 270.307 77.1807 270.309C77.1878 270.311 77.1948 270.312 77.2018 270.314C77.2089 270.315 77.2159 270.317 77.2229 270.318C77.23 270.32 77.237 270.321 77.244 270.323C77.251 270.325 77.2581 270.326 77.2651 270.328C77.2721 270.329 77.2792 270.331 77.2862 270.332C77.2932 270.334 77.3003 270.336 77.3073 270.337C77.3143 270.339 77.3214 270.34 77.3284 270.342C77.3354 270.343 77.3425 270.345 77.3495 270.346C77.3565 270.348 77.3635 270.35 77.3706 270.351C77.3776 270.353 77.3846 270.354 77.3917 270.356C77.3987 270.357 77.4057 270.359 77.4128 270.361C77.4198 270.362 77.4268 270.364 77.4339 270.365C77.4409 270.367 77.4479 270.368 77.455 270.37C77.462 270.371 77.469 270.373 77.476 270.375C77.4831 270.376 77.4901 270.378 77.4971 270.379C77.5042 270.381 77.5112 270.382 77.5182 270.384C77.5253 270.386 77.5323 270.387 77.5393 270.389C77.5464 270.39 77.5534 270.392 77.5604 270.393C77.5675 270.395 77.5745 270.396 77.5815 270.398C77.5885 270.4 77.5956 270.401 77.6026 270.403C77.6096 270.404 77.6167 270.406 77.6237 270.407C77.6307 270.409 77.6378 270.411 77.6448 270.412C77.6518 270.414 77.6589 270.415 77.6659 270.417C77.6729 270.418 77.68 270.42 77.687 270.421C77.694 270.423 77.701 270.425 77.7081 270.426C77.7151 270.428 77.7221 270.429 77.7292 270.431C77.7362 270.432 77.7432 270.434 77.7503 270.436C77.7573 270.437 77.7643 270.439 77.7714 270.44C77.7784 270.442 77.7854 270.443 77.7925 270.445C77.7995 270.446 77.8065 270.448 77.8135 270.45C77.8206 270.451 77.8276 270.453 77.8346 270.454C77.8417 270.456 77.8487 270.457 77.8557 270.459C77.8628 270.461 77.8698 270.462 77.8768 270.464C77.8839 270.465 77.8909 270.467 77.8979 270.468C77.905 270.47 77.912 270.471 77.919 270.473C77.926 270.475 77.9331 270.476 77.9401 270.478C77.9471 270.479 77.9542 270.481 77.9612 270.482C77.9682 270.484 77.9753 270.486 77.9823 270.487C77.9893 270.489 77.9964 270.49 78.0034 270.492C78.0104 270.493 78.0175 270.495 78.0245 270.496C78.0315 270.498 78.0385 270.5 78.0456 270.501C78.0526 270.503 78.0596 270.504 78.0667 270.506C78.0737 270.507 78.0807 270.509 78.0878 270.511C78.0948 270.512 78.1018 270.514 78.1089 270.515C78.1159 270.517 78.1229 270.518 78.13 270.52C78.137 270.521 78.144 270.523 78.151 270.525C78.1581 270.526 78.1651 270.528 78.1721 270.529C78.1792 270.531 78.1862 270.532 78.1932 270.534C78.2003 270.536 78.2073 270.537 78.2143 270.539C78.2214 270.54 78.2284 270.542 78.2354 270.543C78.2425 270.545 78.2495 270.546 78.2565 270.548C78.2635 270.55 78.2706 270.551 78.2776 270.553C78.2846 270.554 78.2917 270.556 78.2987 270.557C78.3057 270.559 78.3128 270.561 78.3198 270.562C78.3268 270.564 78.3339 270.565 78.3409 270.567C78.3479 270.568 78.355 270.57 78.362 270.571C78.369 270.573 78.376 270.575 78.3831 270.576C78.3901 270.578 78.3971 270.579 78.4042 270.581C78.4112 270.582 78.4182 270.584 78.4253 270.586C78.4323 270.587 78.4393 270.589 78.4464 270.59C78.4534 270.592 78.4604 270.593 78.4675 270.595C78.4745 270.596 78.4815 270.598 78.4885 270.6C78.4956 270.601 78.5026 270.603 78.5096 270.604C78.5167 270.606 78.5237 270.607 78.5307 270.609C78.5378 270.611 78.5448 270.612 78.5518 270.614C78.5589 270.615 78.5659 270.617 78.5729 270.618C78.58 270.62 78.587 270.621 78.594 270.623C78.601 270.625 78.6081 270.626 78.6151 270.628C78.6221 270.629 78.6292 270.631 78.6362 270.632C78.6432 270.634 78.6503 270.636 78.6573 270.637C78.6643 270.639 78.6714 270.64 78.6784 270.642C78.6854 270.643 78.6925 270.645 78.6995 270.646C78.7065 270.648 78.7135 270.65 78.7206 270.651C78.7276 270.653 78.7346 270.654 78.7417 270.656C78.7487 270.657 78.7557 270.659 78.7628 270.661C78.7698 270.662 78.7768 270.664 78.7839 270.665C78.7909 270.667 78.7979 270.668 78.805 270.67C78.812 270.671 78.819 270.673 78.826 270.675C78.8331 270.676 78.8401 270.678 78.8471 270.679C78.8542 270.681 78.8612 270.682 78.8682 270.684C78.8753 270.686 78.8823 270.687 78.8893 270.689C78.8964 270.69 78.9034 270.692 78.9104 270.693C78.9175 270.695 78.9245 270.696 78.9315 270.698C78.9385 270.7 78.9456 270.701 78.9526 270.703C78.9596 270.704 78.9667 270.706 78.9737 270.707C78.9807 270.709 78.9878 270.711 78.9948 270.712C79.0018 270.714 79.0089 270.715 79.0159 270.717C79.0229 270.718 79.03 270.72 79.037 270.721C79.044 270.723 79.051 270.725 79.0581 270.726C79.0651 270.728 79.0721 270.729 79.0792 270.731C79.0862 270.732 79.0932 270.734 79.1003 270.736C79.1073 270.737 79.1143 270.739 79.1214 270.74C79.1284 270.742 79.1354 270.743 79.1425 270.745C79.1495 270.746 79.1565 270.748 79.1635 270.75C79.1706 270.751 79.1776 270.753 79.1846 270.754C79.1917 270.756 79.1987 270.757 79.2057 270.759C79.2128 270.761 79.2198 270.762 79.2268 270.764C79.2339 270.765 79.2409 270.767 79.2479 270.768C79.255 270.77 79.262 270.771 79.269 270.773C79.276 270.775 79.2831 270.776 79.2901 270.778C79.2971 270.779 79.3042 270.781 79.3112 270.782C79.3182 270.784 79.3253 270.786 79.3323 270.787C79.3393 270.789 79.3464 270.79 79.3534 270.792C79.3604 270.793 79.3675 270.795 79.3745 270.796C79.3815 270.798 79.3885 270.8 79.3956 270.801C79.4026 270.803 79.4096 270.804 79.4167 270.806C79.4237 270.807 79.4307 270.809 79.4378 270.811C79.4448 270.812 79.4518 270.814 79.4589 270.815C79.4659 270.817 79.4729 270.818 79.48 270.82C79.487 270.821 79.494 270.823 79.501 270.825C79.5081 270.826 79.5151 270.828 79.5221 270.829C79.5292 270.831 79.5362 270.832 79.5432 270.834C79.5503 270.836 79.5573 270.837 79.5643 270.839C79.5714 270.84 79.5784 270.842 79.5854 270.843C79.5925 270.845 79.5995 270.846 79.6065 270.848C79.6135 270.85 79.6206 270.851 79.6276 270.853C79.6346 270.854 79.6417 270.856 79.6487 270.857C79.6557 270.859 79.6628 270.861 79.6698 270.862C79.6768 270.864 79.6839 270.865 79.6909 270.867C79.6979 270.868 79.705 270.87 79.712 270.871C79.719 270.873 79.726 270.875 79.7331 270.876C79.7401 270.878 79.7471 270.879 79.7542 270.881C79.7612 270.882 79.7682 270.884 79.7753 270.886C79.7823 270.887 79.7893 270.889 79.7964 270.89C79.8034 270.892 79.8104 270.893 79.8175 270.895C79.8245 270.896 79.8315 270.898 79.8385 270.9C79.8456 270.901 79.8526 270.903 79.8596 270.904C79.8667 270.906 79.8737 270.907 79.8807 270.909C79.8878 270.911 79.8948 270.912 79.9018 270.914C79.9089 270.915 79.9159 270.917 79.9229 270.918C79.93 270.92 79.937 270.921 79.944 270.923C79.951 270.925 79.9581 270.926 79.9651 270.928C79.9721 270.929 79.9792 270.931 79.9862 270.932C79.9932 270.934 80.0003 270.936 80.0073 270.937C80.0143 270.939 80.0214 270.94 80.0284 270.942C80.0354 270.943 80.0425 270.945 80.0495 270.946C80.0565 270.948 80.0635 270.95 80.0706 270.951C80.0776 270.953 80.0846 270.954 80.0917 270.956C80.0987 270.957 80.1057 270.959 80.1128 270.961C80.1198 270.962 80.1268 270.964 80.1339 270.965C80.1409 270.967 80.1479 270.968 80.155 270.97C80.162 270.971 80.169 270.973 80.176 270.975C80.1831 270.976 80.1901 270.978 80.1971 270.979C80.2042 270.981 80.2112 270.982 80.2182 270.984C80.2253 270.986 80.2323 270.987 80.2393 270.989C80.2464 270.99 80.2534 270.992 80.2604 270.993C80.2675 270.995 80.2745 270.996 80.2815 270.998C80.2885 271 80.2956 271.001 80.3026 271.003C80.3096 271.004 80.3167 271.006 80.3237 271.007C80.3307 271.009 80.3378 271.011 80.3448 271.012C80.3518 271.014 80.3589 271.015 80.3659 271.017C80.3729 271.018 80.38 271.02 80.387 271.021C80.394 271.023 80.401 271.025 80.4081 271.026C80.4151 271.028 80.4221 271.029 80.4292 271.031C80.4362 271.032 80.4432 271.034 80.4503 271.036C80.4573 271.037 80.4643 271.039 80.4714 271.04C80.4784 271.042 80.4854 271.043 80.4925 271.045C80.4995 271.046 80.5065 271.048 80.5135 271.05C80.5206 271.051 80.5276 271.053 80.5346 271.054C80.5417 271.056 80.5487 271.057 80.5557 271.059C80.5628 271.061 80.5698 271.062 80.5768 271.064C80.5839 271.065 80.5909 271.067 80.5979 271.068C80.605 271.07 80.612 271.071 80.619 271.073C80.626 271.075 80.6331 271.076 80.6401 271.078C80.6471 271.079 80.6542 271.081 80.6612 271.082C80.6682 271.084 80.6753 271.086 80.6823 271.087C80.6893 271.089 80.6964 271.09 80.7034 271.092C80.7104 271.093 80.7175 271.095 80.7245 271.096C80.7315 271.098 80.7385 271.1 80.7456 271.101C80.7526 271.103 80.7596 271.104 80.7667 271.106C80.7737 271.107 80.7807 271.109 80.7878 271.111C80.7948 271.112 80.8018 271.114 80.8089 271.115C80.8159 271.117 80.8229 271.118 80.83 271.12C80.837 271.121 80.844 271.123 80.851 271.125C80.8581 271.126 80.8651 271.128 80.8721 271.129C80.8792 271.131 80.8862 271.132 80.8932 271.134C80.9003 271.136 80.9073 271.137 80.9143 271.139C80.9214 271.14 80.9284 271.142 80.9354 271.143C80.9425 271.145 80.9495 271.146 80.9565 271.148C80.9635 271.15 80.9706 271.151 80.9776 271.153C80.9846 271.154 80.9917 271.156 80.9987 271.157C81.0057 271.159 81.0128 271.161 81.0198 271.162C81.0268 271.164 81.0339 271.165 81.0409 271.167C81.0479 271.168 81.055 271.17 81.062 271.171C81.069 271.173 81.076 271.175 81.0831 271.176C81.0901 271.178 81.0971 271.179 81.1042 271.181C81.1112 271.182 81.1182 271.184 81.1253 271.186C81.1323 271.187 81.1393 271.189 81.1464 271.19C81.1534 271.192 81.1604 271.193 81.1675 271.195C81.1745 271.196 81.1815 271.198 81.1885 271.2C81.1956 271.201 81.2026 271.203 81.2096 271.204C81.2167 271.206 81.2237 271.207 81.2307 271.209C81.2378 271.211 81.2448 271.212 81.2518 271.214C81.2589 271.215 81.2659 271.217 81.2729 271.218C81.28 271.22 81.287 271.221 81.294 271.223C81.301 271.225 81.3081 271.226 81.3151 271.228C81.3221 271.229 81.3292 271.231 81.3362 271.232C81.3432 271.234 81.3503 271.236 81.3573 271.237C81.3643 271.239 81.3714 271.24 81.3784 271.242C81.3854 271.243 81.3925 271.245 81.3995 271.246C81.4065 271.248 81.4135 271.25 81.4206 271.251C81.4276 271.253 81.4346 271.254 81.4417 271.256C81.4487 271.257 81.4557 271.259 81.4628 271.261C81.4698 271.262 81.4768 271.264 81.4839 271.265C81.4909 271.267 81.4979 271.268 81.505 271.27C81.512 271.271 81.519 271.273 81.526 271.275C81.5331 271.276 81.5401 271.278 81.5471 271.279C81.5542 271.281 81.5612 271.282 81.5682 271.284C81.5753 271.286 81.5823 271.287 81.5893 271.289C81.5964 271.29 81.6034 271.292 81.6104 271.293C81.6175 271.295 81.6245 271.296 81.6315 271.298C81.6385 271.3 81.6456 271.301 81.6526 271.303C81.6596 271.304 81.6667 271.306 81.6737 271.307C81.6807 271.309 81.6878 271.311 81.6948 271.312C81.7018 271.314 81.7089 271.315 81.7159 271.317C81.7229 271.318 81.73 271.32 81.737 271.321C81.744 271.323 81.751 271.325 81.7581 271.326C81.7651 271.328 81.7721 271.329 81.7792 271.331C81.7862 271.332 81.7932 271.334 81.8003 271.336C81.8073 271.337 81.8143 271.339 81.8214 271.34C81.8284 271.342 81.8354 271.343 81.8425 271.345C81.8495 271.346 81.8565 271.348 81.8635 271.35C81.8706 271.351 81.8776 271.353 81.8846 271.354C81.8917 271.356 81.8987 271.357 81.9057 271.359C81.9128 271.361 81.9198 271.362 81.9268 271.364C81.9339 271.365 81.9409 271.367 81.9479 271.368C81.955 271.37 81.962 271.371 81.969 271.373C81.976 271.375 81.9831 271.376 81.9901 271.378C81.9971 271.379 82.0042 271.381 82.0112 271.382C82.0182 271.384 82.0253 271.386 82.0323 271.387C82.0393 271.389 82.0464 271.39 82.0534 271.392C82.0604 271.393 82.0675 271.395 82.0745 271.396C82.0815 271.398 82.0885 271.4 82.0956 271.401C82.1026 271.403 82.1096 271.404 82.1167 271.406C82.1237 271.407 82.1307 271.409 82.1378 271.411C82.1448 271.412 82.1518 271.414 82.1589 271.415C82.1659 271.417 82.1729 271.418 82.18 271.42C82.187 271.421 82.194 271.423 82.201 271.425C82.2081 271.426 82.2151 271.428 82.2221 271.429C82.2292 271.431 82.2362 271.432 82.2432 271.434C82.2503 271.436 82.2573 271.437 82.2643 271.439C82.2714 271.44 82.2784 271.442 82.2854 271.443C82.2925 271.445 82.2995 271.446 82.3065 271.448C82.3135 271.45 82.3206 271.451 82.3276 271.453C82.3346 271.454 82.3417 271.456 82.3487 271.457C82.3557 271.459 82.3628 271.461 82.3698 271.462C82.3768 271.464 82.3839 271.465 82.3909 271.467C82.3979 271.468 82.405 271.47 82.412 271.471C82.419 271.473 82.426 271.475 82.4331 271.476C82.4401 271.478 82.4471 271.479 82.4542 271.481C82.4612 271.482 82.4682 271.484 82.4753 271.486C82.4823 271.487 82.4893 271.489 82.4964 271.49C82.5034 271.492 82.5104 271.493 82.5175 271.495C82.5245 271.496 82.5315 271.498 82.5385 271.5C82.5456 271.501 82.5526 271.503 82.5596 271.504C82.5667 271.506 82.5737 271.507 82.5807 271.509C82.5878 271.511 82.5948 271.512 82.6018 271.514C82.6089 271.515 82.6159 271.517 82.6229 271.518C82.63 271.52 82.637 271.521 82.644 271.523C82.651 271.525 82.6581 271.526 82.6651 271.528C82.6721 271.529 82.6792 271.531 82.6862 271.532C82.6932 271.534 82.7003 271.536 82.7073 271.537C82.7143 271.539 82.7214 271.54 82.7284 271.542C82.7354 271.543 82.7425 271.545 82.7495 271.546C82.7565 271.548 82.7635 271.55 82.7706 271.551C82.7776 271.553 82.7846 271.554 82.7917 271.556C82.7987 271.557 82.8057 271.559 82.8128 271.561C82.8198 271.562 82.8268 271.564 82.8339 271.565C82.8409 271.567 82.8479 271.568 82.855 271.57C82.862 271.571 82.869 271.573 82.876 271.575C82.8831 271.576 82.8901 271.578 82.8971 271.579C82.9042 271.581 82.9112 271.582 82.9182 271.584C82.9253 271.586 82.9323 271.587 82.9393 271.589C82.9464 271.59 82.9534 271.592 82.9604 271.593C82.9675 271.595 82.9745 271.596 82.9815 271.598C82.9885 271.6 82.9956 271.601 83.0026 271.603C83.0096 271.604 83.0167 271.606 83.0237 271.607C83.0307 271.609 83.0378 271.611 83.0448 271.612C83.0518 271.614 83.0589 271.615 83.0659 271.617C83.0729 271.618 83.08 271.62 83.087 271.621C83.094 271.623 83.101 271.625 83.1081 271.626C83.1151 271.628 83.1221 271.629 83.1292 271.631C83.1362 271.632 83.1432 271.634 83.1503 271.636C83.1573 271.637 83.1643 271.639 83.1714 271.64C83.1784 271.642 83.1854 271.643 83.1925 271.645C83.1995 271.646 83.2065 271.648 83.2135 271.65C83.2206 271.651 83.2276 271.653 83.2346 271.654C83.2417 271.656 83.2487 271.657 83.2557 271.659C83.2628 271.661 83.2698 271.662 83.2768 271.664C83.2839 271.665 83.2909 271.667 83.2979 271.668C83.305 271.67 83.312 271.671 83.319 271.673C83.326 271.675 83.3331 271.676 83.3401 271.678C83.3471 271.679 83.3542 271.681 83.3612 271.682C83.3682 271.684 83.3753 271.686 83.3823 271.687C83.3893 271.689 83.3964 271.69 83.4034 271.692C83.4104 271.693 83.4175 271.695 83.4245 271.696C83.4315 271.698 83.4385 271.7 83.4456 271.701C83.4526 271.703 83.4596 271.704 83.4667 271.706C83.4737 271.707 83.4807 271.709 83.4878 271.711C83.4948 271.712 83.5018 271.714 83.5089 271.715C83.5159 271.717 83.5229 271.718 83.53 271.72C83.537 271.721 83.544 271.723 83.551 271.725C83.5581 271.726 83.5651 271.728 83.5721 271.729C83.5792 271.731 83.5862 271.732 83.5932 271.734C83.6003 271.736 83.6073 271.737 83.6143 271.739C83.6214 271.74 83.6284 271.742 83.6354 271.743C83.6425 271.745 83.6495 271.746 83.6565 271.748C83.6635 271.75 83.6706 271.751 83.6776 271.753C83.6846 271.754 83.6917 271.756 83.6987 271.757C83.7057 271.759 83.7128 271.761 83.7198 271.762C83.7268 271.764 83.7339 271.765 83.7409 271.767C83.7479 271.768 83.755 271.77 83.762 271.771C83.769 271.773 83.776 271.775 83.7831 271.776L84.2169 269.824ZM73.4169 267.424C69.8093 266.622 66.0024 265.821 61.9961 265.019L61.6039 266.981C65.5977 267.779 69.3907 268.578 72.9831 269.376L73.4169 267.424ZM62.0108 265.022C41.6344 260.628 22.0594 255.634 3.28548 250.042L2.71453 251.958C21.5407 257.566 41.1656 262.572 61.5892 266.978L62.0108 265.022ZM3.30405 250.047C-15.4194 244.072 -31.9328 236.31 -46.2453 226.768L-47.3547 228.432C-32.8672 238.09 -16.1806 245.928 2.69597 251.953L3.30405 250.047ZM-46.2453 226.768C-60.4998 217.265 -71.7888 204.594 -80.1146 188.735L-81.8854 189.665C-73.4112 205.806 -61.9002 218.735 -47.3547 228.432L-46.2453 226.768ZM-80.1146 188.735C-88.4176 172.92 -92.6 152.892 -92.6 128.6H-94.6C-94.6 153.108 -90.3824 173.48 -81.8854 189.665L-80.1146 188.735ZM-92.6 128.6C-92.6 106.315 -88.62 87.6851 -80.7151 72.6657L-82.4849 71.7342C-90.58 87.1149 -94.6 106.085 -94.6 128.6H-92.6ZM-80.7102 72.6563C-72.778 57.1885 -62.2822 44.9186 -49.2282 35.8204L-50.3718 34.1796C-63.7178 43.4813 -74.422 56.0115 -82.4898 71.7437L-80.7102 72.6563ZM-49.2118 35.8087C-36.1011 26.2736 -21.8004 19.1233 -6.30591 14.3558L-6.89408 12.4442C-22.5996 17.2767 -37.0989 24.5263 -50.3882 34.1912L-49.2118 35.8087ZM-6.30591 14.3558C9.23651 9.57349 24.5731 6.3873 39.7047 4.7945L39.4953 2.80549C24.2269 4.41269 8.76351 7.62649 -6.89408 12.4442L-6.30591 14.3558ZM39.7305 4.79145C54.8984 2.79566 68.4536 1.8 80.4 1.8V-0.200005C68.3464 -0.200005 54.7016 0.804326 39.4696 2.80854L39.7305 4.79145ZM80.4 1.8C109.873 1.8 135.715 7.3754 157.953 18.4944L158.847 16.7056C136.285 5.42459 110.127 -0.200005 80.4 -0.200005V1.8ZM157.966 18.5008C180.197 29.2194 198.057 45.0934 211.558 66.1399L213.242 65.06C199.543 43.7065 181.403 27.5806 158.834 16.6992L157.966 18.5008ZM211.566 66.151C225.46 87.1905 233.817 112.626 236.604 142.493L238.596 142.307C235.783 112.174 227.34 86.4094 213.234 65.0489L211.566 66.151ZM237.6 141.4H132.6V143.4H237.6V141.4ZM133.591 142.265C132.363 133.259 128.669 125.655 122.507 119.493L121.093 120.907C126.931 126.745 130.437 133.941 131.609 142.535L133.591 142.265ZM122.53 119.516C116.4 112.977 108.449 108.096 98.7162 104.851L98.0838 106.749C107.551 109.904 115.2 114.623 121.07 120.884L122.53 119.516ZM98.7644 104.869C89.4228 101.213 78.4941 99.4 66 99.4V101.4C78.3059 101.4 88.9772 103.187 98.0356 106.731L98.7644 104.869ZM66 99.4C58.7446 99.4 51.8825 100.005 45.4157 101.217L45.7843 103.183C52.1175 101.995 58.8554 101.4 66 101.4V99.4ZM45.4157 101.217C38.9431 102.431 33.2514 104.256 28.3528 106.706L29.2472 108.494C33.9486 106.144 39.4569 104.369 45.7843 103.183L45.4157 101.217ZM28.3212 106.722C23.8126 109.181 20.1029 112.267 17.2107 115.986L18.7894 117.214C21.4971 113.733 24.9874 110.819 29.2789 108.478L28.3212 106.722ZM17.2107 115.986C14.2666 119.771 12.8 124.19 12.8 129.2H14.8C14.8 124.61 16.1334 120.629 18.7894 117.214L17.2107 115.986ZM12.8 129.2C12.8 135.886 15.3217 141.551 20.3243 146.137L21.6757 144.663C17.0783 140.448 14.8 135.314 14.8 129.2H12.8ZM20.3541 146.163C25.6863 150.675 33.2162 154.526 42.8838 157.749L43.5162 155.851C33.9838 152.674 26.7137 148.925 21.6459 144.637L20.3541 146.163ZM42.8952 157.752C52.9222 160.961 65.1443 164.367 79.5575 167.97L80.0425 166.03C65.6557 162.433 53.4778 159.039 43.5048 155.848L42.8952 157.752ZM79.571 167.973C86.3667 169.572 92.9622 171.171 99.3575 172.77L99.8425 170.83C93.4378 169.229 86.8333 167.628 80.0291 166.027L79.571 167.973ZM99.4157 172.783C105.796 173.979 112.177 175.375 118.557 176.97L119.043 175.03C112.624 173.425 106.204 172.021 99.7843 170.817L99.4157 172.783ZM118.578 176.975C136.148 180.968 152.514 185.559 167.676 190.746L168.324 188.854C153.086 183.641 136.652 179.032 119.022 175.025L118.578 176.975ZM167.684 190.749C183.201 195.921 196.707 202.678 208.214 211.01L209.387 209.39C197.693 200.922 183.999 194.079 168.316 188.851L167.684 190.749ZM208.227 211.019C220.072 219.311 229.363 230.57 236.096 244.827L237.904 243.973C231.037 229.43 221.528 217.889 209.373 209.381L208.227 211.019ZM236.101 244.837C242.813 258.656 246.2 276.493 246.2 298.4H248.2C248.2 276.307 244.787 258.144 237.9 243.963L236.101 244.837ZM246.2 298.4C246.2 323.475 241.424 344.701 231.922 362.121L233.678 363.079C243.376 345.299 248.2 323.725 248.2 298.4H246.2ZM231.927 362.113C222.405 379.173 209.516 393.053 193.25 403.765L194.35 405.435C210.885 394.547 223.995 380.427 233.673 363.087L231.927 362.113ZM193.25 403.765C176.949 414.499 158.653 422.456 138.353 427.631L138.847 429.569C159.347 424.344 177.851 416.301 194.35 405.435L193.25 403.765ZM138.371 427.627C118.047 432.409 97.3238 434.8 76.2 434.8V436.8C97.4762 436.8 118.353 434.391 138.829 429.573L138.371 427.627ZM360.623 416.6L360.147 417.479L360.623 416.6ZM305.423 361.4L304.538 361.865L304.542 361.873L304.547 361.882L305.423 361.4ZM306.023 184.4L305.147 183.919L305.144 183.924L306.023 184.4ZM362.423 128L362.894 128.882L362.905 128.876L362.423 128ZM521.423 123.8L520.996 124.704L520.996 124.704L521.423 123.8ZM573.623 168.8L572.786 169.347L572.786 169.347L573.623 168.8ZM594.023 240.8V241.8H595.052L595.023 240.772L594.023 240.8ZM492.023 240.8L491.044 241.003L491.209 241.8H492.023V240.8ZM475.823 214.4L475.223 215.2L475.233 215.207L475.242 215.214L475.823 214.4ZM412.823 216.8L413.492 217.543L413.502 217.534L413.512 217.525L412.823 216.8ZM396.023 243.8L396.979 244.094L396.982 244.084L396.023 243.8ZM414.023 329.6L414.648 328.819L414.648 328.819L414.023 329.6ZM477.023 330.2L477.623 331L477.636 330.991L477.648 330.981L477.023 330.2ZM492.023 304.4V303.4H491.192L491.04 304.218L492.023 304.4ZM597.623 304.4L598.623 304.428L598.652 303.4H597.623V304.4ZM575.423 377L576.231 377.589L576.237 377.581L575.423 377ZM520.223 420.8L520.625 421.716L520.625 421.716L520.223 420.8ZM444.023 434.8C412.158 434.8 384.528 428.428 361.1 415.721L360.147 417.479C383.919 430.372 411.889 436.8 444.023 436.8V434.8ZM361.1 415.721C337.672 403.014 319.409 384.754 306.3 360.918L304.547 361.882C317.838 386.046 336.375 404.586 360.147 417.479L361.1 415.721ZM306.309 360.935C293.6 336.708 287.223 307.675 287.223 273.8H285.223C285.223 307.925 291.647 337.292 304.538 361.865L306.309 360.935ZM287.223 273.8C287.223 238.722 293.8 209.096 306.903 184.876L305.144 183.924C291.846 208.504 285.223 238.478 285.223 273.8H287.223ZM306.9 184.881C320.411 160.244 339.073 141.587 362.894 128.882L361.953 127.118C337.774 140.013 318.836 158.956 305.147 183.919L306.9 184.881ZM362.905 128.876C386.736 115.769 414.366 109.2 445.823 109.2V107.2C414.081 107.2 386.11 113.831 361.942 127.124L362.905 128.876ZM445.823 109.2C474.1 109.2 499.15 114.377 520.996 124.704L521.851 122.896C499.697 112.423 474.347 107.2 445.823 107.2V109.2ZM520.996 124.704C542.836 135.028 560.091 149.908 572.786 169.347L574.461 168.253C561.556 148.492 544.011 133.372 521.851 122.896L520.996 124.704ZM572.786 169.347C585.466 188.762 592.228 212.573 593.024 240.828L595.023 240.772C594.219 212.227 587.381 188.038 574.461 168.253L572.786 169.347ZM594.023 239.8H492.023V241.8H594.023V239.8ZM493.003 240.597C490.56 228.79 485.04 219.754 476.405 213.586L475.242 215.214C483.407 221.046 488.687 229.61 491.044 241.003L493.003 240.597ZM476.423 213.6C468.224 207.45 458.204 204.4 446.423 204.4V206.4C457.843 206.4 467.423 209.35 475.223 215.2L476.423 213.6ZM446.423 204.4C431.848 204.4 420.372 208.25 412.135 216.075L413.512 217.525C421.275 210.15 432.199 206.4 446.423 206.4V204.4ZM412.154 216.057C404.011 223.386 398.314 232.548 395.065 243.516L396.982 244.084C400.132 233.452 405.636 224.614 413.492 217.543L412.154 216.057ZM395.068 243.506C391.842 253.989 390.223 264.088 390.223 273.8H392.223C392.223 264.312 393.805 254.411 396.979 244.094L395.068 243.506ZM390.223 273.8C390.223 284.714 392.043 295.228 395.683 305.339L397.564 304.661C394.004 294.772 392.223 284.486 392.223 273.8H390.223ZM395.683 305.339C399.343 315.506 405.249 323.861 413.399 330.381L414.648 328.819C406.798 322.539 401.104 314.494 397.564 304.661L395.683 305.339ZM413.399 330.381C421.622 336.959 432.463 340.2 445.823 340.2V338.2C432.784 338.2 422.425 335.041 414.648 328.819L413.399 330.381ZM445.823 340.2C458.779 340.2 469.407 337.162 477.623 331L476.423 329.4C468.64 335.238 458.468 338.2 445.823 338.2V340.2ZM477.648 330.981C485.85 324.419 490.966 315.6 493.007 304.582L491.04 304.218C489.08 314.8 484.197 323.18 476.399 329.419L477.648 330.981ZM492.023 305.4H597.623V303.4H492.023V305.4ZM596.624 304.372C595.828 333.013 588.473 357.01 574.61 376.419L576.237 377.581C590.374 357.79 597.819 333.387 598.623 304.428L596.624 304.372ZM574.615 376.411C560.725 395.461 542.468 409.952 519.822 419.884L520.625 421.716C543.579 411.648 562.122 396.939 576.231 377.589L574.615 376.411ZM519.822 419.884C497.163 429.822 471.902 434.8 444.023 434.8V436.8C472.144 436.8 497.684 431.778 520.625 421.716L519.822 419.884ZM639.239 431H638.239V432H639.239V431ZM639.239 6.2V5.2H638.239V6.2H639.239ZM745.439 6.2H746.439V5.2H745.439V6.2ZM745.439 143.6H744.439V146.083L746.16 144.293L745.439 143.6ZM777.839 120.8L778.221 121.724L778.235 121.718L778.248 121.712L777.839 120.8ZM811.439 110.6L811.298 109.61L811.293 109.611L811.439 110.6ZM906.839 128.6L906.201 129.37L906.21 129.377L906.839 128.6ZM942.239 183.2L941.281 183.486L941.284 183.496L941.287 183.506L942.239 183.2ZM953.039 431V432H954.039V431H953.039ZM846.839 431H845.839V432H846.839V431ZM844.439 245.6L843.463 245.817L843.466 245.829L844.439 245.6ZM836.039 225.8L835.182 226.314L835.194 226.335L835.207 226.355L836.039 225.8ZM821.039 211.4L820.509 212.248L820.529 212.26L820.549 212.272L821.039 211.4ZM772.439 210.8L772.886 211.694L772.897 211.689L772.907 211.684L772.439 210.8ZM756.839 224.6L757.671 225.155L757.671 225.155L756.839 224.6ZM747.839 245L746.872 244.746L746.867 244.764L746.863 244.783L747.839 245ZM745.439 431V432H746.439V431H745.439ZM640.239 431V6.2H638.239V431H640.239ZM639.239 7.2H745.439V5.2H639.239V7.2ZM744.439 6.2V143.6H746.439V6.2H744.439ZM746.16 144.293C756.078 133.978 766.767 126.464 778.221 121.724L777.457 119.876C765.712 124.736 754.8 132.422 744.718 142.907L746.16 144.293ZM778.248 121.712C789.778 116.544 800.89 113.174 811.586 111.589L811.293 109.611C800.388 111.226 789.1 114.656 777.43 119.887L778.248 121.712ZM811.58 111.59C822.757 109.993 831.905 109.2 839.039 109.2V107.2C831.773 107.2 822.521 108.007 811.298 109.61L811.58 111.59ZM839.039 109.2C867.688 109.2 890.035 115.964 906.201 129.37L907.477 127.83C890.844 114.036 867.99 107.2 839.039 107.2V109.2ZM906.21 129.377C922.837 142.838 934.532 160.859 941.281 183.486L943.197 182.914C936.346 159.941 924.441 141.562 907.468 127.823L906.21 129.377ZM941.287 183.506C948.452 205.796 952.039 230.091 952.039 256.4H954.039C954.039 229.909 950.427 205.404 943.191 182.894L941.287 183.506ZM952.039 256.4V431H954.039V256.4H952.039ZM953.039 430H846.839V432H953.039V430ZM847.839 431V265.4H845.839V431H847.839ZM847.839 265.4C847.839 258.916 847.029 252.239 845.412 245.371L843.466 245.829C845.05 252.561 845.839 259.084 845.839 265.4H847.839ZM845.415 245.383C843.789 238.065 840.941 231.35 836.871 225.245L835.207 226.355C839.137 232.25 841.889 238.735 843.463 245.817L845.415 245.383ZM836.897 225.285C833.203 219.129 828.073 214.209 821.529 210.528L820.549 212.272C826.805 215.791 831.675 220.471 835.182 226.314L836.897 225.285ZM821.569 210.552C814.966 206.425 806.567 204.4 796.439 204.4V206.4C806.311 206.4 814.312 208.375 820.509 212.248L821.569 210.552ZM796.439 204.4C787.108 204.4 778.941 206.226 771.971 209.916L772.907 211.684C779.537 208.174 787.37 206.4 796.439 206.4V204.4ZM771.992 209.906C765.435 213.184 760.103 217.902 756.007 224.045L757.671 225.155C761.575 219.298 766.643 214.816 772.886 211.694L771.992 209.906ZM756.007 224.045C751.94 230.145 748.898 237.048 746.872 244.746L748.806 245.254C750.781 237.752 753.738 231.055 757.671 225.155L756.007 224.045ZM746.863 244.783C745.246 252.06 744.439 259.733 744.439 267.8H746.439C746.439 259.867 747.232 252.34 748.815 245.217L746.863 244.783ZM744.439 267.8V431H746.439V267.8H744.439ZM745.439 430H639.239V432H745.439V430ZM1046.19 399.8L1045.52 400.534L1045.52 400.54L1045.53 400.545L1046.19 399.8ZM1006.59 114.8V113.8H1005.59V114.8H1006.59ZM1112.79 114.8H1113.79V113.8H1112.79V114.8ZM1116.99 311L1116.04 311.303L1116.05 311.316L1116.99 311ZM1131.39 331.4L1130.79 332.194L1130.8 332.203L1130.81 332.211L1131.39 331.4ZM1187.79 330.2L1187.09 329.493L1187.07 329.505L1187.06 329.518L1187.79 330.2ZM1198.59 308L1197.61 307.829L1197.61 307.847L1197.6 307.865L1198.59 308ZM1200.99 114.8V113.8H1199.99V114.8H1200.99ZM1306.59 114.8H1307.59V113.8H1306.59V114.8ZM1266.39 402.2L1267.04 402.963L1267.04 402.962L1266.39 402.2ZM1158.99 434.8C1110.75 434.8 1073.42 422.841 1046.86 399.055L1045.53 400.545C1072.57 424.759 1110.43 436.8 1158.99 436.8V434.8ZM1046.87 399.066C1020.74 374.914 1007.59 338.822 1007.59 290.6H1005.59C1005.59 339.178 1018.85 375.886 1045.52 400.534L1046.87 399.066ZM1007.59 290.6V114.8H1005.59V290.6H1007.59ZM1006.59 115.8H1112.79V113.8H1006.59V115.8ZM1111.79 114.8V282.2H1113.79V114.8H1111.79ZM1111.79 282.2C1111.79 292.69 1113.21 302.394 1116.04 311.303L1117.95 310.697C1115.18 302.006 1113.79 292.51 1113.79 282.2H1111.79ZM1116.05 311.316C1118.91 319.899 1123.82 326.868 1130.79 332.194L1132 330.606C1125.37 325.532 1120.68 318.901 1117.94 310.684L1116.05 311.316ZM1130.81 332.211C1138.22 337.567 1147.85 340.2 1159.59 340.2V338.2C1148.14 338.2 1138.96 335.633 1131.98 330.589L1130.81 332.211ZM1159.59 340.2C1172.91 340.2 1182.65 337.18 1188.52 330.882L1187.06 329.518C1181.74 335.22 1172.68 338.2 1159.59 338.2V340.2ZM1188.5 330.907C1194.66 324.745 1198.36 317.141 1199.58 308.135L1197.6 307.865C1196.43 316.459 1192.92 323.655 1187.09 329.493L1188.5 330.907ZM1199.58 308.171C1201.19 298.924 1201.99 290.266 1201.99 282.2H1199.99C1199.99 290.134 1199.2 298.676 1197.61 307.829L1199.58 308.171ZM1201.99 282.2V114.8H1199.99V282.2H1201.99ZM1200.99 115.8H1306.59V113.8H1200.99V115.8ZM1305.59 114.8V290.6H1307.59V114.8H1305.59ZM1305.59 290.6C1305.59 342.047 1292.23 378.903 1265.75 401.438L1267.04 402.962C1294.15 379.897 1307.59 342.353 1307.59 290.6H1305.59ZM1265.75 401.437C1239.58 423.642 1204.03 434.8 1158.99 434.8V436.8C1204.36 436.8 1240.41 425.558 1267.04 402.963L1265.75 401.437ZM1362.29 431H1361.29V432H1362.29V431ZM1362.29 6.2V5.2H1361.29V6.2H1362.29ZM1468.49 6.2H1469.49V5.2H1468.49V6.2ZM1468.49 143.6H1467.49V146.083L1469.21 144.293L1468.49 143.6ZM1500.89 120.8L1501.27 121.724L1501.28 121.718L1501.3 121.712L1500.89 120.8ZM1534.49 110.6L1534.34 109.61L1534.34 109.611L1534.49 110.6ZM1629.89 128.6L1629.25 129.37L1629.26 129.377L1629.89 128.6ZM1665.29 183.2L1664.33 183.486L1664.33 183.496L1664.33 183.506L1665.29 183.2ZM1676.09 431V432H1677.09V431H1676.09ZM1569.89 431H1568.89V432H1569.89V431ZM1567.49 245.6L1566.51 245.817L1566.51 245.829L1567.49 245.6ZM1559.09 225.8L1558.23 226.314L1558.24 226.335L1558.25 226.355L1559.09 225.8ZM1544.09 211.4L1543.56 212.248L1543.58 212.26L1543.6 212.272L1544.09 211.4ZM1495.49 210.8L1495.93 211.694L1495.94 211.689L1495.95 211.684L1495.49 210.8ZM1479.89 224.6L1480.72 225.155L1480.72 225.155L1479.89 224.6ZM1470.89 245L1469.92 244.746L1469.91 244.764L1469.91 244.783L1470.89 245ZM1468.49 431V432H1469.49V431H1468.49ZM1363.29 431V6.2H1361.29V431H1363.29ZM1362.29 7.2H1468.49V5.2H1362.29V7.2ZM1467.49 6.2V143.6H1469.49V6.2H1467.49ZM1469.21 144.293C1479.13 133.978 1489.81 126.464 1501.27 121.724L1500.5 119.876C1488.76 124.736 1477.85 132.422 1467.77 142.907L1469.21 144.293ZM1501.3 121.712C1512.82 116.544 1523.94 113.174 1534.63 111.589L1534.34 109.611C1523.44 111.226 1512.15 114.656 1500.48 119.887L1501.3 121.712ZM1534.63 111.59C1545.8 109.993 1554.95 109.2 1562.09 109.2V107.2C1554.82 107.2 1545.57 108.007 1534.34 109.61L1534.63 111.59ZM1562.09 109.2C1590.73 109.2 1613.08 115.964 1629.25 129.37L1630.52 127.83C1613.89 114.036 1591.04 107.2 1562.09 107.2V109.2ZM1629.26 129.377C1645.88 142.838 1657.58 160.859 1664.33 183.486L1666.24 182.914C1659.39 159.941 1647.49 141.562 1630.52 127.823L1629.26 129.377ZM1664.33 183.506C1671.5 205.796 1675.09 230.091 1675.09 256.4H1677.09C1677.09 229.909 1673.47 205.404 1666.24 182.894L1664.33 183.506ZM1675.09 256.4V431H1677.09V256.4H1675.09ZM1676.09 430H1569.89V432H1676.09V430ZM1570.89 431V265.4H1568.89V431H1570.89ZM1570.89 265.4C1570.89 258.916 1570.08 252.239 1568.46 245.371L1566.51 245.829C1568.1 252.561 1568.89 259.084 1568.89 265.4H1570.89ZM1568.46 245.383C1566.84 238.065 1563.99 231.35 1559.92 225.245L1558.25 226.355C1562.18 232.25 1564.94 238.735 1566.51 245.817L1568.46 245.383ZM1559.94 225.285C1556.25 219.129 1551.12 214.209 1544.58 210.528L1543.6 212.272C1549.85 215.791 1554.72 220.471 1558.23 226.314L1559.94 225.285ZM1544.62 210.552C1538.01 206.425 1529.61 204.4 1519.49 204.4V206.4C1529.36 206.4 1537.36 208.375 1543.56 212.248L1544.62 210.552ZM1519.49 204.4C1510.15 204.4 1501.99 206.226 1495.02 209.916L1495.95 211.684C1502.58 208.174 1510.42 206.4 1519.49 206.4V204.4ZM1495.04 209.906C1488.48 213.184 1483.15 217.902 1479.05 224.045L1480.72 225.155C1484.62 219.298 1489.69 214.816 1495.93 211.694L1495.04 209.906ZM1479.05 224.045C1474.99 230.145 1471.94 237.048 1469.92 244.746L1471.85 245.254C1473.83 237.752 1476.78 231.055 1480.72 225.155L1479.05 224.045ZM1469.91 244.783C1468.29 252.06 1467.49 259.733 1467.49 267.8H1469.49C1469.49 259.867 1470.28 252.34 1471.86 245.217L1469.91 244.783ZM1467.49 267.8V431H1469.49V267.8H1467.49ZM1468.49 430H1362.29V432H1468.49V430ZM1795.04 416.6L1794.56 417.476L1794.57 417.481L1794.58 417.486L1795.04 416.6ZM1738.64 360.8L1737.76 361.282L1737.77 361.293L1738.64 360.8ZM1739.24 188L1740.12 188.481L1740.12 188.475L1739.24 188ZM1796.24 129.2L1796.74 130.067L1796.74 130.067L1796.24 129.2ZM1991.24 150.2L1991.96 149.504L1991.96 149.504L1991.24 150.2ZM2021.24 199.4L2020.3 199.734L2020.3 199.743L2020.3 199.751L2021.24 199.4ZM2030.84 284L2029.85 283.876L2029.84 283.905L2029.84 283.933L2030.84 284ZM2027.84 303.2V304.2H2028.63L2028.81 303.429L2027.84 303.2ZM1823.84 303.2V302.2H1822.73L1822.85 303.305L1823.84 303.2ZM1831.04 324.8L1830.18 325.307L1830.19 325.325L1830.2 325.343L1831.04 324.8ZM1849.04 341L1849.51 340.115L1849.51 340.115L1849.04 341ZM1902.44 344L1902.72 344.959L1902.74 344.954L1902.76 344.949L1902.44 344ZM1928.24 324.2V323.2H1927.52L1927.29 323.884L1928.24 324.2ZM2032.04 324.2L2033.02 324.411L2033.28 323.2H2032.04V324.2ZM2000.84 388.4L2000.1 387.729L2000.1 387.73L2000.84 388.4ZM1946.84 424.4L1946.5 423.459L1946.5 423.461L1946.84 424.4ZM1825.64 234.2H1824.64V235.2H1825.64V234.2ZM1932.44 234.2V235.2H1933.44V234.2H1932.44ZM1927.04 215.6L1926.14 216.026L1926.15 216.059L1926.17 216.09L1927.04 215.6ZM1910.24 198.8L1909.74 199.665L1909.75 199.671L1909.76 199.676L1910.24 198.8ZM1849.04 198.8L1849.52 199.676L1849.52 199.676L1849.04 198.8ZM1831.04 215.6L1830.18 215.093L1830.17 215.101L1830.17 215.11L1831.04 215.6ZM1880.24 434.8C1847.97 434.8 1819.74 428.427 1795.51 415.714L1794.58 417.486C1819.14 430.373 1847.71 436.8 1880.24 436.8V434.8ZM1795.52 415.724C1771.69 402.614 1753.02 384.147 1739.51 360.307L1737.77 361.293C1751.46 385.453 1770.4 404.186 1794.56 417.476L1795.52 415.724ZM1739.52 360.318C1726.41 336.494 1719.84 308.067 1719.84 275H1717.84C1717.84 308.333 1724.47 337.106 1737.76 361.282L1739.52 360.318ZM1719.84 275C1719.84 241.939 1726.61 213.11 1740.12 188.481L1738.36 187.519C1724.67 212.49 1717.84 241.661 1717.84 275H1719.84ZM1740.12 188.475C1753.63 163.436 1772.5 143.973 1796.74 130.067L1795.74 128.333C1771.18 142.427 1752.05 162.164 1738.36 187.525L1740.12 188.475ZM1796.74 130.067C1820.97 116.167 1849.19 109.2 1881.44 109.2V107.2C1848.89 107.2 1820.32 114.233 1795.74 128.333L1796.74 130.067ZM1881.44 109.2C1904.54 109.2 1925.21 112.784 1943.48 119.931L1944.21 118.069C1925.67 110.816 1904.74 107.2 1881.44 107.2V109.2ZM1943.48 119.931C1961.75 127.081 1977.43 137.403 1990.52 150.896L1991.96 149.504C1978.65 135.797 1962.73 125.319 1944.21 118.069L1943.48 119.931ZM1990.52 150.896C2003.62 164.386 2013.54 180.659 2020.3 199.734L2022.18 199.066C2015.34 179.741 2005.27 163.214 1991.96 149.504L1990.52 150.896ZM2020.3 199.751C2027.46 218.821 2031.04 240.3 2031.04 264.2H2033.04C2033.04 240.1 2029.43 218.378 2022.18 199.049L2020.3 199.751ZM2031.04 264.2C2031.04 270.961 2030.64 277.519 2029.85 283.876L2031.83 284.124C2032.64 277.681 2033.04 271.039 2033.04 264.2H2031.04ZM2029.84 283.933C2029.45 289.871 2028.46 296.216 2026.87 302.971L2028.81 303.429C2030.42 296.584 2031.43 290.129 2031.84 284.067L2029.84 283.933ZM2027.84 302.2H1823.84V304.2H2027.84V302.2ZM1822.85 303.305C1823.66 311.051 1826.11 318.388 1830.18 325.307L1831.9 324.293C1827.97 317.612 1825.62 310.549 1824.84 303.095L1822.85 303.305ZM1830.2 325.343C1834.7 332.296 1840.83 337.81 1848.57 341.885L1849.51 340.115C1842.05 336.19 1836.18 330.904 1831.88 324.257L1830.2 325.343ZM1848.57 341.885C1856.36 345.982 1866.13 348 1877.84 348V346C1866.35 346 1856.92 344.018 1849.51 340.115L1848.57 341.885ZM1877.84 348C1887.5 348 1895.81 346.994 1902.72 344.959L1902.16 343.041C1895.48 345.006 1887.38 346 1877.84 346V348ZM1902.76 344.949C1910.04 342.522 1915.95 339.472 1920.47 335.774L1919.21 334.226C1914.93 337.728 1909.25 340.678 1902.12 343.051L1902.76 344.949ZM1920.47 335.774C1924.95 332.11 1927.91 328.364 1929.19 324.516L1927.29 323.884C1926.17 327.236 1923.53 330.69 1919.21 334.226L1920.47 335.774ZM1928.24 325.2H2032.04V323.2H1928.24V325.2ZM2031.06 323.989C2025.49 349.848 2015.16 371.08 2000.1 387.729L2001.58 389.071C2016.92 372.12 2027.39 350.552 2033.02 324.411L2031.06 323.989ZM2000.1 387.73C1985.41 404.005 1967.55 415.913 1946.5 423.459L1947.18 425.341C1968.53 417.687 1986.67 405.595 2001.58 389.07L2000.1 387.73ZM1946.5 423.461C1925.81 431.018 1903.73 434.8 1880.24 434.8V436.8C1903.95 436.8 1926.27 432.982 1947.18 425.339L1946.5 423.461ZM1825.64 235.2H1932.44V233.2H1825.64V235.2ZM1933.44 234.2C1933.44 227.994 1931.58 221.626 1927.91 215.11L1926.17 216.09C1929.7 222.374 1931.44 228.406 1931.44 234.2H1933.44ZM1927.95 215.174C1924.64 208.145 1918.87 202.403 1910.72 197.924L1909.76 199.676C1917.61 203.997 1923.04 209.455 1926.14 216.026L1927.95 215.174ZM1910.74 197.935C1902.94 193.415 1892.54 191.2 1879.64 191.2V193.2C1892.34 193.2 1902.35 195.385 1909.74 199.665L1910.74 197.935ZM1879.64 191.2C1867.13 191.2 1856.75 193.419 1848.56 197.924L1849.52 199.676C1857.33 195.381 1867.35 193.2 1879.64 193.2V191.2ZM1848.56 197.924C1840.43 202.397 1834.28 208.115 1830.18 215.093L1831.9 216.107C1835.8 209.485 1841.65 204.003 1849.52 199.676L1848.56 197.924ZM1830.17 215.11C1826.5 221.626 1824.64 227.994 1824.64 234.2H1826.64C1826.64 228.406 1828.38 222.374 1831.91 216.09L1830.17 215.11Z" fill="black" fill-opacity="0.1"/>
</svg>
