<svg width="1920" height="822" viewBox="0 0 1920 822" fill="none" xmlns="http://www.w3.org/2000/svg">
<mask id="path-1-outside-1_225_490" maskUnits="userSpaceOnUse" x="-118" y="146" width="2152" height="446" fill="black">
<rect fill="white" x="-118" y="146" width="2152" height="446"/>
<path d="M71.2 586.8C40 586.8 11 581.6 -15.8 571.2C-42.2 560.8 -64 544.6 -81.2 522.6C-98 500.6 -108.2 472.6 -111.8 438.6H-2.59999C0.200007 449.8 5.40001 459 13 466.2C20.6 473 30 478 41.2 481.2C52.8 484.4 65.2 486 78.4 486C86.4 486 94.6 485.2 103 483.6C111.4 482 118.4 479 124 474.6C130 470.2 133 463.8 133 455.4C133 449.4 131.2 444.6 127.6 441C124.4 437 119.6 433.8 113.2 431.4C107.2 428.6 99.6 426.2 90.4 424.2C86.8 423.4 83 422.6 79 421.8C75.4 421 71.8 420.2 68.2 419.4C64.6 418.6 60.8 417.8 56.8 417C36.4 412.6 16.8 407.6 -1.99999 402C-20.8 396 -37.4 388.2 -51.8 378.6C-66.2 369 -77.6 356.2 -86 340.2C-94.4 324.2 -98.6 304 -98.6 279.6C-98.6 257.2 -94.6 238.4 -86.6 223.2C-78.6 207.6 -68 195.2 -54.8 186C-41.6 176.4 -27.2 169.2 -11.6 164.4C4.00001 159.6 19.4 156.4 34.6 154.8C49.8 152.8 63.4 151.8 75.4 151.8C105 151.8 131 157.4 153.4 168.6C175.8 179.4 193.8 195.4 207.4 216.6C221.4 237.8 229.8 263.4 232.6 293.4H127.6C126.4 284.6 122.8 277.2 116.8 271.2C110.8 264.8 103 260 93.4 256.8C84.2 253.2 73.4 251.4 61 251.4C53.8 251.4 47 252 40.6 253.2C34.2 254.4 28.6 256.2 23.8 258.6C19.4 261 15.8 264 13 267.6C10.2 271.2 8.8 275.4 8.8 280.2C8.8 286.6 11.2 292 16 296.4C21.2 300.8 28.6 304.6 38.2 307.8C48.2 311 60.4 314.4 74.8 318C81.6 319.6 88.2 321.2 94.6 322.8C101 324 107.4 325.4 113.8 327C131.4 331 147.8 335.6 163 340.8C178.6 346 192.2 352.8 203.8 361.2C215.8 369.6 225.2 381 232 395.4C238.8 409.4 242.2 427.4 242.2 449.4C242.2 474.6 237.4 496 227.8 513.6C218.2 530.8 205.2 544.8 188.8 555.6C172.4 566.4 154 574.4 133.6 579.6C113.2 584.4 92.4 586.8 71.2 586.8ZM439.023 586.8C407.023 586.8 379.223 580.4 355.623 567.6C332.023 554.8 313.623 536.4 300.423 512.4C287.623 488 281.223 458.8 281.223 424.8C281.223 389.6 287.823 359.8 301.023 335.4C314.623 310.6 333.423 291.8 357.423 279C381.423 265.8 409.223 259.2 440.823 259.2C469.223 259.2 494.423 264.4 516.423 274.8C538.423 285.2 555.823 300.2 568.623 319.8C581.423 339.4 588.223 363.4 589.023 391.8H487.023C484.623 380.2 479.223 371.4 470.823 365.4C462.823 359.4 453.023 356.4 441.423 356.4C427.023 356.4 415.823 360.2 407.823 367.8C399.823 375 394.223 384 391.023 394.8C387.823 405.2 386.223 415.2 386.223 424.8C386.223 435.6 388.023 446 391.623 456C395.223 466 401.023 474.2 409.023 480.6C417.023 487 427.623 490.2 440.823 490.2C453.623 490.2 464.023 487.2 472.023 481.2C480.023 474.8 485.023 466.2 487.023 455.4H592.623C591.823 484.2 584.423 508.4 570.423 528C556.423 547.2 538.023 561.8 515.223 571.8C492.423 581.8 467.023 586.8 439.023 586.8ZM634.239 582V157.2H740.439V294.6C750.439 284.2 761.239 276.6 772.839 271.8C784.439 266.6 795.639 263.2 806.439 261.6C817.639 260 826.839 259.2 834.039 259.2C862.839 259.2 885.439 266 901.839 279.6C918.639 293.2 930.439 311.4 937.239 334.2C944.439 356.6 948.039 381 948.039 407.4V582H841.839V416.4C841.839 410 841.039 403.4 839.439 396.6C837.839 389.4 835.039 382.8 831.039 376.8C827.439 370.8 822.439 366 816.039 362.4C809.639 358.4 801.439 356.4 791.439 356.4C782.239 356.4 774.239 358.2 767.439 361.8C761.039 365 755.839 369.6 751.839 375.6C747.839 381.6 744.839 388.4 742.839 396C741.239 403.2 740.439 410.8 740.439 418.8V582H634.239ZM1153.99 586.8C1105.59 586.8 1067.99 574.8 1041.19 550.8C1014.79 526.4 1001.59 490 1001.59 441.6V265.8H1107.79V433.2C1107.79 443.6 1109.19 453.2 1111.99 462C1114.79 470.4 1119.59 477.2 1126.39 482.4C1133.59 487.6 1142.99 490.2 1154.59 490.2C1167.79 490.2 1177.19 487.2 1182.79 481.2C1188.79 475.2 1192.39 467.8 1193.59 459C1195.19 449.8 1195.99 441.2 1195.99 433.2V265.8H1301.59V441.6C1301.59 493.2 1288.19 530.4 1261.39 553.2C1234.99 575.6 1199.19 586.8 1153.99 586.8ZM1357.29 582V157.2H1463.49V294.6C1473.49 284.2 1484.29 276.6 1495.89 271.8C1507.49 266.6 1518.69 263.2 1529.49 261.6C1540.69 260 1549.89 259.2 1557.09 259.2C1585.89 259.2 1608.49 266 1624.89 279.6C1641.69 293.2 1653.49 311.4 1660.29 334.2C1667.49 356.6 1671.09 381 1671.09 407.4V582H1564.89V416.4C1564.89 410 1564.09 403.4 1562.49 396.6C1560.89 389.4 1558.09 382.8 1554.09 376.8C1550.49 370.8 1545.49 366 1539.09 362.4C1532.69 358.4 1524.49 356.4 1514.49 356.4C1505.29 356.4 1497.29 358.2 1490.49 361.8C1484.09 365 1478.89 369.6 1474.89 375.6C1470.89 381.6 1467.89 388.4 1465.89 396C1464.29 403.2 1463.49 410.8 1463.49 418.8V582H1357.29ZM1875.24 586.8C1842.84 586.8 1814.44 580.4 1790.04 567.6C1766.04 554.4 1747.24 535.8 1733.64 511.8C1720.44 487.8 1713.84 459.2 1713.84 426C1713.84 392.8 1720.64 363.8 1734.24 339C1747.84 313.8 1766.84 294.2 1791.24 280.2C1815.64 266.2 1844.04 259.2 1876.44 259.2C1899.64 259.2 1920.44 262.8 1938.84 270C1957.24 277.2 1973.04 287.6 1986.24 301.2C1999.44 314.8 2009.44 331.2 2016.24 350.4C2023.44 369.6 2027.04 391.2 2027.04 415.2C2027.04 422 2026.64 428.6 2025.84 435C2025.44 441 2024.44 447.4 2022.84 454.2H1818.84C1819.64 461.8 1822.04 469 1826.04 475.8C1830.44 482.6 1836.44 488 1844.04 492C1851.64 496 1861.24 498 1872.84 498C1882.44 498 1890.64 497 1897.44 495C1904.64 492.6 1910.44 489.6 1914.84 486C1919.24 482.4 1922.04 478.8 1923.24 475.2H2027.04C2021.44 501.2 2011.04 522.6 1995.84 539.4C1981.04 555.8 1963.04 567.8 1941.84 575.4C1921.04 583 1898.84 586.8 1875.24 586.8ZM1820.64 385.2H1927.44C1927.44 379.2 1925.64 373 1922.04 366.6C1918.84 359.8 1913.24 354.2 1905.24 349.8C1897.64 345.4 1887.44 343.2 1874.64 343.2C1862.24 343.2 1852.04 345.4 1844.04 349.8C1836.04 354.2 1830.04 359.8 1826.04 366.6C1822.44 373 1820.64 379.2 1820.64 385.2Z"/>
</mask>
<path d="M-15.8 571.2L-17.6326 575.852L-17.6208 575.857L-17.6089 575.861L-15.8 571.2ZM-81.2 522.6L-85.1738 525.635L-85.1566 525.657L-85.139 525.68L-81.2 522.6ZM-111.8 438.6V433.6H-117.357L-116.772 439.126L-111.8 438.6ZM-2.59999 438.6L2.25072 437.387L1.30389 433.6H-2.59999V438.6ZM13 466.2L9.56128 469.83L9.61296 469.879L9.66603 469.926L13 466.2ZM41.2 481.2L39.8264 486.008L39.8484 486.014L39.8704 486.02L41.2 481.2ZM103 483.6L103.936 488.512L103 483.6ZM124 474.6L121.043 470.568L120.976 470.617L120.911 470.668L124 474.6ZM127.6 441L123.696 444.123L123.869 444.34L124.064 444.536L127.6 441ZM113.2 431.4L111.086 435.931L111.262 436.013L111.444 436.082L113.2 431.4ZM90.4 424.2L89.3154 429.081L89.3266 429.083L89.3379 429.086L90.4 424.2ZM79 421.8L77.9154 426.681L77.9673 426.692L78.0194 426.703L79 421.8ZM68.2 419.4L69.2847 414.519H69.2847L68.2 419.4ZM56.8 417L55.7458 421.888L55.7826 421.896L55.8194 421.903L56.8 417ZM-1.99998 402L-3.52019 406.763L-3.47392 406.778L-3.42737 406.792L-1.99998 402ZM-51.8 378.6L-49.0265 374.44L-51.8 378.6ZM-86 340.2L-81.573 337.876L-86 340.2ZM-86.6 223.2L-82.1754 225.529L-82.163 225.505L-82.1509 225.482L-86.6 223.2ZM-54.8 186L-51.941 190.102L-51.8998 190.073L-51.8591 190.044L-54.8 186ZM-11.6 164.4L-13.0704 159.621H-13.0704L-11.6 164.4ZM34.6 154.8L35.1234 159.773L35.188 159.766L35.2523 159.757L34.6 154.8ZM153.4 168.6L151.164 173.072L151.196 173.088L151.229 173.104L153.4 168.6ZM207.4 216.6L203.192 219.3L203.209 219.328L203.228 219.355L207.4 216.6ZM232.6 293.4V298.4H238.088L237.578 292.935L232.6 293.4ZM127.6 293.4L122.646 294.076L123.236 298.4H127.6V293.4ZM116.8 271.2L113.152 274.62L113.207 274.679L113.264 274.736L116.8 271.2ZM93.4 256.8L91.578 261.456L91.6973 261.503L91.8189 261.543L93.4 256.8ZM40.6 253.2L39.6786 248.286H39.6786L40.6 253.2ZM23.8 258.6L21.5639 254.128L21.4841 254.168L21.4057 254.21L23.8 258.6ZM16 296.4L12.6214 300.086L12.6945 300.153L12.7703 300.217L16 296.4ZM38.2 307.8L36.6189 312.543L36.6474 312.553L36.6761 312.562L38.2 307.8ZM74.8 318L73.5873 322.851L73.621 322.859L73.6548 322.867L74.8 318ZM94.6 322.8L93.3873 327.651L93.532 327.687L93.6786 327.714L94.6 322.8ZM113.8 327L112.587 331.851L112.639 331.864L112.692 331.876L113.8 327ZM163 340.8L161.382 345.531L161.4 345.537L161.419 345.543L163 340.8ZM203.8 361.2L200.867 365.25L200.9 365.273L200.933 365.296L203.8 361.2ZM232 395.4L227.479 397.535L227.49 397.56L227.502 397.585L232 395.4ZM227.8 513.6L232.166 516.037L232.178 516.016L232.19 515.994L227.8 513.6ZM188.8 555.6L191.55 559.776L188.8 555.6ZM133.6 579.6L134.745 584.467L134.79 584.456L134.835 584.445L133.6 579.6ZM71.2 581.8C40.5657 581.8 12.1846 576.696 -13.9911 566.539L-17.6089 575.861C9.81538 586.504 39.4343 591.8 71.2 591.8V581.8ZM-13.9674 566.548C-39.5516 556.469 -60.6195 540.806 -77.261 519.52L-85.139 525.68C-67.3805 548.394 -44.8484 565.131 -17.6326 575.852L-13.9674 566.548ZM-77.2262 519.565C-93.3523 498.448 -103.302 471.375 -106.828 438.074L-116.772 439.126C-113.098 473.825 -102.648 502.752 -85.1738 525.635L-77.2262 519.565ZM-111.8 443.6H-2.59999V433.6H-111.8V443.6ZM-7.45071 439.813C-4.44437 451.838 1.20001 461.909 9.56128 469.83L16.4387 462.57C9.59999 456.091 4.84438 447.762 2.25072 437.387L-7.45071 439.813ZM9.66603 469.926C17.9045 477.297 28.0032 482.63 39.8264 486.008L42.5736 476.392C31.9968 473.37 23.2955 468.703 16.334 462.474L9.66603 469.926ZM39.8704 486.02C51.9431 489.35 64.7938 491 78.4 491V481C65.6062 481 53.6569 479.45 42.5297 476.38L39.8704 486.02ZM78.4 491C86.7346 491 95.2482 490.166 103.936 488.512L102.064 478.688C93.9518 480.234 86.0654 481 78.4 481V491ZM103.936 488.512C112.965 486.792 120.746 483.516 127.089 478.532L120.911 470.668C116.054 474.484 109.835 477.208 102.064 478.688L103.936 488.512ZM126.957 478.632C134.421 473.159 138 465.156 138 455.4H128C128 462.444 125.579 467.241 121.043 470.568L126.957 478.632ZM138 455.4C138 448.329 135.839 442.168 131.136 437.464L124.064 444.536C126.561 447.032 128 450.471 128 455.4H138ZM131.504 437.877C127.584 432.976 121.926 429.332 114.956 426.718L111.444 436.082C117.274 438.268 121.216 441.024 123.696 444.123L131.504 437.877ZM115.314 426.869C108.87 423.862 100.886 421.363 91.4622 419.314L89.3379 429.086C98.3137 431.037 105.53 433.338 111.086 435.931L115.314 426.869ZM91.4847 419.319C87.8466 418.511 84.0118 417.703 79.9806 416.897L78.0194 426.703C81.9883 427.497 85.7534 428.289 89.3154 429.081L91.4847 419.319ZM80.0847 416.919C80.0776 416.917 80.0706 416.916 80.0636 416.914C80.0565 416.913 80.0495 416.911 80.0425 416.91C80.0354 416.908 80.0284 416.907 80.0214 416.905C80.0144 416.903 80.0073 416.902 80.0003 416.9C79.9933 416.899 79.9862 416.897 79.9792 416.896C79.9722 416.894 79.9651 416.892 79.9581 416.891C79.9511 416.889 79.944 416.888 79.937 416.886C79.93 416.885 79.9229 416.883 79.9159 416.882C79.9089 416.88 79.9019 416.878 79.8948 416.877C79.8878 416.875 79.8808 416.874 79.8737 416.872C79.8667 416.871 79.8597 416.869 79.8526 416.867C79.8456 416.866 79.8386 416.864 79.8315 416.863C79.8245 416.861 79.8175 416.86 79.8104 416.858C79.8034 416.857 79.7964 416.855 79.7894 416.853C79.7823 416.852 79.7753 416.85 79.7683 416.849C79.7612 416.847 79.7542 416.846 79.7472 416.844C79.7401 416.842 79.7331 416.841 79.7261 416.839C79.719 416.838 79.712 416.836 79.705 416.835C79.698 416.833 79.6909 416.832 79.6839 416.83C79.6768 416.828 79.6698 416.827 79.6628 416.825C79.6558 416.824 79.6487 416.822 79.6417 416.821C79.6347 416.819 79.6276 416.818 79.6206 416.816C79.6136 416.814 79.6065 416.813 79.5995 416.811C79.5925 416.81 79.5854 416.808 79.5784 416.807C79.5714 416.805 79.5643 416.803 79.5573 416.802C79.5503 416.8 79.5433 416.799 79.5362 416.797C79.5292 416.796 79.5222 416.794 79.5151 416.792C79.5081 416.791 79.5011 416.789 79.494 416.788C79.487 416.786 79.48 416.785 79.4729 416.783C79.4659 416.782 79.4589 416.78 79.4519 416.778C79.4448 416.777 79.4378 416.775 79.4308 416.774C79.4237 416.772 79.4167 416.771 79.4097 416.769C79.4026 416.767 79.3956 416.766 79.3886 416.764C79.3815 416.763 79.3745 416.761 79.3675 416.76C79.3604 416.758 79.3534 416.757 79.3464 416.755C79.3394 416.753 79.3323 416.752 79.3253 416.75C79.3183 416.749 79.3112 416.747 79.3042 416.746C79.2972 416.744 79.2901 416.742 79.2831 416.741C79.2761 416.739 79.269 416.738 79.262 416.736C79.255 416.735 79.2479 416.733 79.2409 416.732C79.2339 416.73 79.2269 416.728 79.2198 416.727C79.2128 416.725 79.2058 416.724 79.1987 416.722C79.1917 416.721 79.1847 416.719 79.1776 416.717C79.1706 416.716 79.1636 416.714 79.1565 416.713C79.1495 416.711 79.1425 416.71 79.1355 416.708C79.1284 416.707 79.1214 416.705 79.1143 416.703C79.1073 416.702 79.1003 416.7 79.0933 416.699C79.0862 416.697 79.0792 416.696 79.0722 416.694C79.0651 416.693 79.0581 416.691 79.0511 416.689C79.044 416.688 79.037 416.686 79.03 416.685C79.0229 416.683 79.0159 416.682 79.0089 416.68C79.0018 416.678 78.9948 416.677 78.9878 416.675C78.9808 416.674 78.9737 416.672 78.9667 416.671C78.9597 416.669 78.9526 416.667 78.9456 416.666C78.9386 416.664 78.9315 416.663 78.9245 416.661C78.9175 416.66 78.9104 416.658 78.9034 416.657C78.8964 416.655 78.8894 416.653 78.8823 416.652C78.8753 416.65 78.8683 416.649 78.8612 416.647C78.8542 416.646 78.8472 416.644 78.8401 416.642C78.8331 416.641 78.8261 416.639 78.819 416.638C78.812 416.636 78.805 416.635 78.7979 416.633C78.7909 416.632 78.7839 416.63 78.7769 416.628C78.7698 416.627 78.7628 416.625 78.7558 416.624C78.7487 416.622 78.7417 416.621 78.7347 416.619C78.7276 416.617 78.7206 416.616 78.7136 416.614C78.7065 416.613 78.6995 416.611 78.6925 416.61C78.6854 416.608 78.6784 416.607 78.6714 416.605C78.6644 416.603 78.6573 416.602 78.6503 416.6C78.6433 416.599 78.6362 416.597 78.6292 416.596C78.6222 416.594 78.6151 416.592 78.6081 416.591C78.6011 416.589 78.594 416.588 78.587 416.586C78.58 416.585 78.573 416.583 78.5659 416.582C78.5589 416.58 78.5518 416.578 78.5448 416.577C78.5378 416.575 78.5308 416.574 78.5237 416.572C78.5167 416.571 78.5097 416.569 78.5026 416.568C78.4956 416.566 78.4886 416.564 78.4815 416.563C78.4745 416.561 78.4675 416.56 78.4604 416.558C78.4534 416.557 78.4464 416.555 78.4393 416.553C78.4323 416.552 78.4253 416.55 78.4183 416.549C78.4112 416.547 78.4042 416.546 78.3972 416.544C78.3901 416.542 78.3831 416.541 78.3761 416.539C78.369 416.538 78.362 416.536 78.355 416.535C78.3479 416.533 78.3409 416.532 78.3339 416.53C78.3269 416.528 78.3198 416.527 78.3128 416.525C78.3058 416.524 78.2987 416.522 78.2917 416.521C78.2847 416.519 78.2776 416.517 78.2706 416.516C78.2636 416.514 78.2565 416.513 78.2495 416.511C78.2425 416.51 78.2354 416.508 78.2284 416.507C78.2214 416.505 78.2144 416.503 78.2073 416.502C78.2003 416.5 78.1933 416.499 78.1862 416.497C78.1792 416.496 78.1722 416.494 78.1651 416.492C78.1581 416.491 78.1511 416.489 78.144 416.488C78.137 416.486 78.13 416.485 78.1229 416.483C78.1159 416.482 78.1089 416.48 78.1019 416.478C78.0948 416.477 78.0878 416.475 78.0808 416.474C78.0737 416.472 78.0667 416.471 78.0597 416.469C78.0526 416.467 78.0456 416.466 78.0386 416.464C78.0315 416.463 78.0245 416.461 78.0175 416.46C78.0105 416.458 78.0034 416.457 77.9964 416.455C77.9893 416.453 77.9823 416.452 77.9753 416.45C77.9683 416.449 77.9612 416.447 77.9542 416.446C77.9472 416.444 77.9401 416.443 77.9331 416.441C77.9261 416.439 77.919 416.438 77.912 416.436C77.905 416.435 77.8979 416.433 77.8909 416.432C77.8839 416.43 77.8768 416.428 77.8698 416.427C77.8628 416.425 77.8558 416.424 77.8487 416.422C77.8417 416.421 77.8347 416.419 77.8276 416.417C77.8206 416.416 77.8136 416.414 77.8065 416.413C77.7995 416.411 77.7925 416.41 77.7854 416.408C77.7784 416.407 77.7714 416.405 77.7644 416.403C77.7573 416.402 77.7503 416.4 77.7433 416.399C77.7362 416.397 77.7292 416.396 77.7222 416.394C77.7151 416.392 77.7081 416.391 77.7011 416.389C77.694 416.388 77.687 416.386 77.68 416.385C77.6729 416.383 77.6659 416.382 77.6589 416.38C77.6519 416.378 77.6448 416.377 77.6378 416.375C77.6308 416.374 77.6237 416.372 77.6167 416.371C77.6097 416.369 77.6026 416.367 77.5956 416.366C77.5886 416.364 77.5815 416.363 77.5745 416.361C77.5675 416.36 77.5604 416.358 77.5534 416.357C77.5464 416.355 77.5394 416.353 77.5323 416.352C77.5253 416.35 77.5183 416.349 77.5112 416.347C77.5042 416.346 77.4972 416.344 77.4901 416.342C77.4831 416.341 77.4761 416.339 77.469 416.338C77.462 416.336 77.455 416.335 77.448 416.333C77.4409 416.332 77.4339 416.33 77.4268 416.328C77.4198 416.327 77.4128 416.325 77.4058 416.324C77.3987 416.322 77.3917 416.321 77.3847 416.319C77.3776 416.318 77.3706 416.316 77.3636 416.314C77.3565 416.313 77.3495 416.311 77.3425 416.31C77.3354 416.308 77.3284 416.307 77.3214 416.305C77.3143 416.303 77.3073 416.302 77.3003 416.3C77.2933 416.299 77.2862 416.297 77.2792 416.296C77.2722 416.294 77.2651 416.292 77.2581 416.291C77.2511 416.289 77.244 416.288 77.237 416.286C77.23 416.285 77.2229 416.283 77.2159 416.282C77.2089 416.28 77.2019 416.278 77.1948 416.277C77.1878 416.275 77.1808 416.274 77.1737 416.272C77.1667 416.271 77.1597 416.269 77.1526 416.267C77.1456 416.266 77.1386 416.264 77.1315 416.263C77.1245 416.261 77.1175 416.26 77.1104 416.258C77.1034 416.257 77.0964 416.255 77.0894 416.253C77.0823 416.252 77.0753 416.25 77.0683 416.249C77.0612 416.247 77.0542 416.246 77.0472 416.244C77.0401 416.242 77.0331 416.241 77.0261 416.239C77.019 416.238 77.012 416.236 77.005 416.235C76.9979 416.233 76.9909 416.232 76.9839 416.23C76.9769 416.228 76.9698 416.227 76.9628 416.225C76.9558 416.224 76.9487 416.222 76.9417 416.221C76.9347 416.219 76.9276 416.217 76.9206 416.216C76.9136 416.214 76.9065 416.213 76.8995 416.211C76.8925 416.21 76.8855 416.208 76.8784 416.207C76.8714 416.205 76.8643 416.203 76.8573 416.202C76.8503 416.2 76.8433 416.199 76.8362 416.197C76.8292 416.196 76.8222 416.194 76.8151 416.192C76.8081 416.191 76.8011 416.189 76.794 416.188C76.787 416.186 76.78 416.185 76.7729 416.183C76.7659 416.182 76.7589 416.18 76.7518 416.178C76.7448 416.177 76.7378 416.175 76.7308 416.174C76.7237 416.172 76.7167 416.171 76.7097 416.169C76.7026 416.167 76.6956 416.166 76.6886 416.164C76.6815 416.163 76.6745 416.161 76.6675 416.16C76.6604 416.158 76.6534 416.157 76.6464 416.155C76.6394 416.153 76.6323 416.152 76.6253 416.15C76.6183 416.149 76.6112 416.147 76.6042 416.146C76.5972 416.144 76.5901 416.142 76.5831 416.141C76.5761 416.139 76.569 416.138 76.562 416.136C76.555 416.135 76.5479 416.133 76.5409 416.132C76.5339 416.13 76.5269 416.128 76.5198 416.127C76.5128 416.125 76.5058 416.124 76.4987 416.122C76.4917 416.121 76.4847 416.119 76.4776 416.117C76.4706 416.116 76.4636 416.114 76.4565 416.113C76.4495 416.111 76.4425 416.11 76.4354 416.108C76.4284 416.107 76.4214 416.105 76.4144 416.103C76.4073 416.102 76.4003 416.1 76.3933 416.099C76.3862 416.097 76.3792 416.096 76.3722 416.094C76.3651 416.092 76.3581 416.091 76.3511 416.089C76.344 416.088 76.337 416.086 76.33 416.085C76.323 416.083 76.3159 416.082 76.3089 416.08C76.3018 416.078 76.2948 416.077 76.2878 416.075C76.2808 416.074 76.2737 416.072 76.2667 416.071C76.2597 416.069 76.2526 416.067 76.2456 416.066C76.2386 416.064 76.2315 416.063 76.2245 416.061C76.2175 416.06 76.2104 416.058 76.2034 416.057C76.1964 416.055 76.1893 416.053 76.1823 416.052C76.1753 416.05 76.1683 416.049 76.1612 416.047C76.1542 416.046 76.1472 416.044 76.1401 416.042C76.1331 416.041 76.1261 416.039 76.119 416.038C76.112 416.036 76.105 416.035 76.0979 416.033C76.0909 416.032 76.0839 416.03 76.0769 416.028C76.0698 416.027 76.0628 416.025 76.0558 416.024C76.0487 416.022 76.0417 416.021 76.0347 416.019C76.0276 416.017 76.0206 416.016 76.0136 416.014C76.0065 416.013 75.9995 416.011 75.9925 416.01C75.9854 416.008 75.9784 416.007 75.9714 416.005C75.9644 416.003 75.9573 416.002 75.9503 416C75.9433 415.999 75.9362 415.997 75.9292 415.996C75.9222 415.994 75.9151 415.992 75.9081 415.991C75.9011 415.989 75.894 415.988 75.887 415.986C75.88 415.985 75.8729 415.983 75.8659 415.982C75.8589 415.98 75.8519 415.978 75.8448 415.977C75.8378 415.975 75.8308 415.974 75.8237 415.972C75.8167 415.971 75.8097 415.969 75.8026 415.967C75.7956 415.966 75.7886 415.964 75.7815 415.963C75.7745 415.961 75.7675 415.96 75.7605 415.958C75.7534 415.957 75.7464 415.955 75.7393 415.953C75.7323 415.952 75.7253 415.95 75.7183 415.949C75.7112 415.947 75.7042 415.946 75.6972 415.944C75.6901 415.942 75.6831 415.941 75.6761 415.939C75.669 415.938 75.662 415.936 75.655 415.935C75.6479 415.933 75.6409 415.932 75.6339 415.93C75.6268 415.928 75.6198 415.927 75.6128 415.925C75.6058 415.924 75.5987 415.922 75.5917 415.921C75.5847 415.919 75.5776 415.917 75.5706 415.916C75.5636 415.914 75.5565 415.913 75.5495 415.911C75.5425 415.91 75.5354 415.908 75.5284 415.907C75.5214 415.905 75.5144 415.903 75.5073 415.902C75.5003 415.9 75.4933 415.899 75.4862 415.897C75.4792 415.896 75.4722 415.894 75.4651 415.892C75.4581 415.891 75.4511 415.889 75.444 415.888C75.437 415.886 75.43 415.885 75.4229 415.883C75.4159 415.882 75.4089 415.88 75.4019 415.878C75.3948 415.877 75.3878 415.875 75.3808 415.874C75.3737 415.872 75.3667 415.871 75.3597 415.869C75.3526 415.867 75.3456 415.866 75.3386 415.864C75.3315 415.863 75.3245 415.861 75.3175 415.86C75.3104 415.858 75.3034 415.857 75.2964 415.855C75.2894 415.853 75.2823 415.852 75.2753 415.85C75.2683 415.849 75.2612 415.847 75.2542 415.846C75.2472 415.844 75.2401 415.842 75.2331 415.841C75.2261 415.839 75.219 415.838 75.212 415.836C75.205 415.835 75.198 415.833 75.1909 415.832C75.1839 415.83 75.1768 415.828 75.1698 415.827C75.1628 415.825 75.1558 415.824 75.1487 415.822C75.1417 415.821 75.1347 415.819 75.1276 415.817C75.1206 415.816 75.1136 415.814 75.1065 415.813C75.0995 415.811 75.0925 415.81 75.0854 415.808C75.0784 415.807 75.0714 415.805 75.0643 415.803C75.0573 415.802 75.0503 415.8 75.0433 415.799C75.0362 415.797 75.0292 415.796 75.0222 415.794C75.0151 415.792 75.0081 415.791 75.0011 415.789C74.994 415.788 74.987 415.786 74.98 415.785C74.9729 415.783 74.9659 415.782 74.9589 415.78C74.9519 415.778 74.9448 415.777 74.9378 415.775C74.9308 415.774 74.9237 415.772 74.9167 415.771C74.9097 415.769 74.9026 415.767 74.8956 415.766C74.8886 415.764 74.8815 415.763 74.8745 415.761C74.8675 415.76 74.8604 415.758 74.8534 415.757C74.8464 415.755 74.8394 415.753 74.8323 415.752C74.8253 415.75 74.8183 415.749 74.8112 415.747C74.8042 415.746 74.7972 415.744 74.7901 415.742C74.7831 415.741 74.7761 415.739 74.769 415.738C74.762 415.736 74.755 415.735 74.7479 415.733C74.7409 415.732 74.7339 415.73 74.7269 415.728C74.7198 415.727 74.7128 415.725 74.7058 415.724C74.6987 415.722 74.6917 415.721 74.6847 415.719C74.6776 415.717 74.6706 415.716 74.6636 415.714C74.6565 415.713 74.6495 415.711 74.6425 415.71C74.6355 415.708 74.6284 415.707 74.6214 415.705C74.6143 415.703 74.6073 415.702 74.6003 415.7C74.5933 415.699 74.5862 415.697 74.5792 415.696C74.5722 415.694 74.5651 415.692 74.5581 415.691C74.5511 415.689 74.544 415.688 74.537 415.686C74.53 415.685 74.5229 415.683 74.5159 415.682C74.5089 415.68 74.5018 415.678 74.4948 415.677C74.4878 415.675 74.4808 415.674 74.4737 415.672C74.4667 415.671 74.4597 415.669 74.4526 415.667C74.4456 415.666 74.4386 415.664 74.4315 415.663C74.4245 415.661 74.4175 415.66 74.4104 415.658C74.4034 415.657 74.3964 415.655 74.3893 415.653C74.3823 415.652 74.3753 415.65 74.3683 415.649C74.3612 415.647 74.3542 415.646 74.3472 415.644C74.3401 415.642 74.3331 415.641 74.3261 415.639C74.319 415.638 74.312 415.636 74.305 415.635C74.2979 415.633 74.2909 415.632 74.2839 415.63C74.2769 415.628 74.2698 415.627 74.2628 415.625C74.2558 415.624 74.2487 415.622 74.2417 415.621C74.2347 415.619 74.2276 415.617 74.2206 415.616C74.2136 415.614 74.2065 415.613 74.1995 415.611C74.1925 415.61 74.1854 415.608 74.1784 415.607C74.1714 415.605 74.1644 415.603 74.1573 415.602C74.1503 415.6 74.1432 415.599 74.1362 415.597C74.1292 415.596 74.1222 415.594 74.1151 415.592C74.1081 415.591 74.1011 415.589 74.094 415.588C74.087 415.586 74.08 415.585 74.0729 415.583C74.0659 415.582 74.0589 415.58 74.0518 415.578C74.0448 415.577 74.0378 415.575 74.0308 415.574C74.0237 415.572 74.0167 415.571 74.0097 415.569C74.0026 415.567 73.9956 415.566 73.9886 415.564C73.9815 415.563 73.9745 415.561 73.9675 415.56C73.9604 415.558 73.9534 415.557 73.9464 415.555C73.9393 415.553 73.9323 415.552 73.9253 415.55C73.9183 415.549 73.9112 415.547 73.9042 415.546C73.8972 415.544 73.8901 415.542 73.8831 415.541C73.8761 415.539 73.869 415.538 73.862 415.536C73.855 415.535 73.8479 415.533 73.8409 415.532C73.8339 415.53 73.8268 415.528 73.8198 415.527C73.8128 415.525 73.8058 415.524 73.7987 415.522C73.7917 415.521 73.7847 415.519 73.7776 415.517C73.7706 415.516 73.7636 415.514 73.7565 415.513C73.7495 415.511 73.7425 415.51 73.7354 415.508C73.7284 415.507 73.7214 415.505 73.7144 415.503C73.7073 415.502 73.7003 415.5 73.6933 415.499C73.6862 415.497 73.6792 415.496 73.6722 415.494C73.6651 415.492 73.6581 415.491 73.6511 415.489C73.644 415.488 73.637 415.486 73.63 415.485C73.6229 415.483 73.6159 415.482 73.6089 415.48C73.6019 415.478 73.5948 415.477 73.5878 415.475C73.5807 415.474 73.5737 415.472 73.5667 415.471C73.5597 415.469 73.5526 415.467 73.5456 415.466C73.5386 415.464 73.5315 415.463 73.5245 415.461C73.5175 415.46 73.5104 415.458 73.5034 415.457C73.4964 415.455 73.4893 415.453 73.4823 415.452C73.4753 415.45 73.4683 415.449 73.4612 415.447C73.4542 415.446 73.4472 415.444 73.4401 415.442C73.4331 415.441 73.4261 415.439 73.419 415.438C73.412 415.436 73.405 415.435 73.3979 415.433C73.3909 415.432 73.3839 415.43 73.3768 415.428C73.3698 415.427 73.3628 415.425 73.3558 415.424C73.3487 415.422 73.3417 415.421 73.3347 415.419C73.3276 415.417 73.3206 415.416 73.3136 415.414C73.3065 415.413 73.2995 415.411 73.2925 415.41C73.2854 415.408 73.2784 415.407 73.2714 415.405C73.2643 415.403 73.2573 415.402 73.2503 415.4C73.2433 415.399 73.2362 415.397 73.2292 415.396C73.2222 415.394 73.2151 415.392 73.2081 415.391C73.2011 415.389 73.194 415.388 73.187 415.386C73.18 415.385 73.1729 415.383 73.1659 415.382C73.1589 415.38 73.1519 415.378 73.1448 415.377C73.1378 415.375 73.1308 415.374 73.1237 415.372C73.1167 415.371 73.1097 415.369 73.1026 415.367C73.0956 415.366 73.0886 415.364 73.0815 415.363C73.0745 415.361 73.0675 415.36 73.0604 415.358C73.0534 415.357 73.0464 415.355 73.0394 415.353C73.0323 415.352 73.0253 415.35 73.0182 415.349C73.0112 415.347 73.0042 415.346 72.9972 415.344C72.9901 415.342 72.9831 415.341 72.9761 415.339C72.969 415.338 72.962 415.336 72.955 415.335C72.9479 415.333 72.9409 415.332 72.9339 415.33C72.9268 415.328 72.9198 415.327 72.9128 415.325C72.9058 415.324 72.8987 415.322 72.8917 415.321C72.8847 415.319 72.8776 415.317 72.8706 415.316C72.8636 415.314 72.8565 415.313 72.8495 415.311C72.8425 415.31 72.8354 415.308 72.8284 415.307C72.8214 415.305 72.8143 415.303 72.8073 415.302C72.8003 415.3 72.7933 415.299 72.7862 415.297C72.7792 415.296 72.7722 415.294 72.7651 415.292C72.7581 415.291 72.7511 415.289 72.744 415.288C72.737 415.286 72.73 415.285 72.7229 415.283C72.7159 415.282 72.7089 415.28 72.7018 415.278C72.6948 415.277 72.6878 415.275 72.6808 415.274C72.6737 415.272 72.6667 415.271 72.6597 415.269C72.6526 415.267 72.6456 415.266 72.6386 415.264C72.6315 415.263 72.6245 415.261 72.6175 415.26C72.6104 415.258 72.6034 415.257 72.5964 415.255C72.5894 415.253 72.5823 415.252 72.5753 415.25C72.5683 415.249 72.5612 415.247 72.5542 415.246C72.5472 415.244 72.5401 415.242 72.5331 415.241C72.5261 415.239 72.519 415.238 72.512 415.236C72.505 415.235 72.4979 415.233 72.4909 415.232C72.4839 415.23 72.4769 415.228 72.4698 415.227C72.4628 415.225 72.4557 415.224 72.4487 415.222C72.4417 415.221 72.4347 415.219 72.4276 415.217C72.4206 415.216 72.4136 415.214 72.4065 415.213C72.3995 415.211 72.3925 415.21 72.3854 415.208C72.3784 415.207 72.3714 415.205 72.3643 415.203C72.3573 415.202 72.3503 415.2 72.3433 415.199C72.3362 415.197 72.3292 415.196 72.3222 415.194C72.3151 415.192 72.3081 415.191 72.3011 415.189C72.294 415.188 72.287 415.186 72.28 415.185C72.2729 415.183 72.2659 415.182 72.2589 415.18C72.2518 415.178 72.2448 415.177 72.2378 415.175C72.2308 415.174 72.2237 415.172 72.2167 415.171C72.2097 415.169 72.2026 415.167 72.1956 415.166C72.1886 415.164 72.1815 415.163 72.1745 415.161C72.1675 415.16 72.1604 415.158 72.1534 415.157C72.1464 415.155 72.1393 415.153 72.1323 415.152C72.1253 415.15 72.1183 415.149 72.1112 415.147C72.1042 415.146 72.0972 415.144 72.0901 415.142C72.0831 415.141 72.0761 415.139 72.069 415.138C72.062 415.136 72.055 415.135 72.0479 415.133C72.0409 415.132 72.0339 415.13 72.0269 415.128C72.0198 415.127 72.0128 415.125 72.0058 415.124C71.9987 415.122 71.9917 415.121 71.9847 415.119C71.9776 415.117 71.9706 415.116 71.9636 415.114C71.9565 415.113 71.9495 415.111 71.9425 415.11C71.9354 415.108 71.9284 415.107 71.9214 415.105C71.9144 415.103 71.9073 415.102 71.9003 415.1C71.8932 415.099 71.8862 415.097 71.8792 415.096C71.8722 415.094 71.8651 415.092 71.8581 415.091C71.8511 415.089 71.844 415.088 71.837 415.086C71.83 415.085 71.8229 415.083 71.8159 415.082C71.8089 415.08 71.8018 415.078 71.7948 415.077C71.7878 415.075 71.7808 415.074 71.7737 415.072C71.7667 415.071 71.7597 415.069 71.7526 415.067C71.7456 415.066 71.7386 415.064 71.7315 415.063C71.7245 415.061 71.7175 415.06 71.7104 415.058C71.7034 415.057 71.6964 415.055 71.6893 415.053C71.6823 415.052 71.6753 415.05 71.6683 415.049C71.6612 415.047 71.6542 415.046 71.6472 415.044C71.6401 415.042 71.6331 415.041 71.6261 415.039C71.619 415.038 71.612 415.036 71.605 415.035C71.5979 415.033 71.5909 415.032 71.5839 415.03C71.5768 415.028 71.5698 415.027 71.5628 415.025C71.5558 415.024 71.5487 415.022 71.5417 415.021C71.5347 415.019 71.5276 415.017 71.5206 415.016C71.5136 415.014 71.5065 415.013 71.4995 415.011C71.4925 415.01 71.4854 415.008 71.4784 415.007C71.4714 415.005 71.4644 415.003 71.4573 415.002C71.4503 415 71.4433 414.999 71.4362 414.997C71.4292 414.996 71.4222 414.994 71.4151 414.992C71.4081 414.991 71.4011 414.989 71.394 414.988C71.387 414.986 71.38 414.985 71.3729 414.983C71.3659 414.982 71.3589 414.98 71.3519 414.978C71.3448 414.977 71.3378 414.975 71.3307 414.974C71.3237 414.972 71.3167 414.971 71.3097 414.969C71.3026 414.967 71.2956 414.966 71.2886 414.964C71.2815 414.963 71.2745 414.961 71.2675 414.96C71.2604 414.958 71.2534 414.957 71.2464 414.955C71.2393 414.953 71.2323 414.952 71.2253 414.95C71.2183 414.949 71.2112 414.947 71.2042 414.946C71.1972 414.944 71.1901 414.942 71.1831 414.941C71.1761 414.939 71.169 414.938 71.162 414.936C71.155 414.935 71.1479 414.933 71.1409 414.932C71.1339 414.93 71.1268 414.928 71.1198 414.927C71.1128 414.925 71.1058 414.924 71.0987 414.922C71.0917 414.921 71.0847 414.919 71.0776 414.917C71.0706 414.916 71.0636 414.914 71.0565 414.913C71.0495 414.911 71.0425 414.91 71.0354 414.908C71.0284 414.907 71.0214 414.905 71.0143 414.903C71.0073 414.902 71.0003 414.9 70.9933 414.899C70.9862 414.897 70.9792 414.896 70.9722 414.894C70.9651 414.892 70.9581 414.891 70.9511 414.889C70.944 414.888 70.937 414.886 70.93 414.885C70.9229 414.883 70.9159 414.882 70.9089 414.88C70.9019 414.878 70.8948 414.877 70.8878 414.875C70.8808 414.874 70.8737 414.872 70.8667 414.871C70.8597 414.869 70.8526 414.867 70.8456 414.866C70.8386 414.864 70.8315 414.863 70.8245 414.861C70.8175 414.86 70.8104 414.858 70.8034 414.857C70.7964 414.855 70.7894 414.853 70.7823 414.852C70.7753 414.85 70.7682 414.849 70.7612 414.847C70.7542 414.846 70.7472 414.844 70.7401 414.842C70.7331 414.841 70.7261 414.839 70.719 414.838C70.712 414.836 70.705 414.835 70.6979 414.833C70.6909 414.832 70.6839 414.83 70.6768 414.828C70.6698 414.827 70.6628 414.825 70.6558 414.824C70.6487 414.822 70.6417 414.821 70.6347 414.819C70.6276 414.817 70.6206 414.816 70.6136 414.814C70.6065 414.813 70.5995 414.811 70.5925 414.81C70.5854 414.808 70.5784 414.807 70.5714 414.805C70.5643 414.803 70.5573 414.802 70.5503 414.8C70.5433 414.799 70.5362 414.797 70.5292 414.796C70.5222 414.794 70.5151 414.792 70.5081 414.791C70.5011 414.789 70.494 414.788 70.487 414.786C70.48 414.785 70.4729 414.783 70.4659 414.782C70.4589 414.78 70.4518 414.778 70.4448 414.777C70.4378 414.775 70.4308 414.774 70.4237 414.772C70.4167 414.771 70.4097 414.769 70.4026 414.767C70.3956 414.766 70.3886 414.764 70.3815 414.763C70.3745 414.761 70.3675 414.76 70.3604 414.758C70.3534 414.757 70.3464 414.755 70.3394 414.753C70.3323 414.752 70.3253 414.75 70.3183 414.749C70.3112 414.747 70.3042 414.746 70.2972 414.744C70.2901 414.742 70.2831 414.741 70.2761 414.739C70.269 414.738 70.262 414.736 70.255 414.735C70.2479 414.733 70.2409 414.732 70.2339 414.73C70.2269 414.728 70.2198 414.727 70.2128 414.725C70.2057 414.724 70.1987 414.722 70.1917 414.721C70.1847 414.719 70.1776 414.717 70.1706 414.716C70.1636 414.714 70.1565 414.713 70.1495 414.711C70.1425 414.71 70.1354 414.708 70.1284 414.707C70.1214 414.705 70.1143 414.703 70.1073 414.702C70.1003 414.7 70.0933 414.699 70.0862 414.697C70.0792 414.696 70.0722 414.694 70.0651 414.692C70.0581 414.691 70.0511 414.689 70.044 414.688C70.037 414.686 70.03 414.685 70.0229 414.683C70.0159 414.682 70.0089 414.68 70.0018 414.678C69.9948 414.677 69.9878 414.675 69.9808 414.674C69.9737 414.672 69.9667 414.671 69.9597 414.669C69.9526 414.667 69.9456 414.666 69.9386 414.664C69.9315 414.663 69.9245 414.661 69.9175 414.66C69.9104 414.658 69.9034 414.657 69.8964 414.655C69.8893 414.653 69.8823 414.652 69.8753 414.65C69.8683 414.649 69.8612 414.647 69.8542 414.646C69.8472 414.644 69.8401 414.642 69.8331 414.641C69.8261 414.639 69.819 414.638 69.812 414.636C69.805 414.635 69.7979 414.633 69.7909 414.632C69.7839 414.63 69.7769 414.628 69.7698 414.627C69.7628 414.625 69.7558 414.624 69.7487 414.622C69.7417 414.621 69.7347 414.619 69.7276 414.617C69.7206 414.616 69.7136 414.614 69.7065 414.613C69.6995 414.611 69.6925 414.61 69.6854 414.608C69.6784 414.607 69.6714 414.605 69.6644 414.603C69.6573 414.602 69.6503 414.6 69.6432 414.599C69.6362 414.597 69.6292 414.596 69.6222 414.594C69.6151 414.592 69.6081 414.591 69.6011 414.589C69.594 414.588 69.587 414.586 69.58 414.585C69.5729 414.583 69.5659 414.582 69.5589 414.58C69.5518 414.578 69.5448 414.577 69.5378 414.575C69.5308 414.574 69.5237 414.572 69.5167 414.571C69.5097 414.569 69.5026 414.567 69.4956 414.566C69.4886 414.564 69.4815 414.563 69.4745 414.561C69.4675 414.56 69.4604 414.558 69.4534 414.557C69.4464 414.555 69.4393 414.553 69.4323 414.552C69.4253 414.55 69.4183 414.549 69.4112 414.547C69.4042 414.546 69.3972 414.544 69.3901 414.542C69.3831 414.541 69.3761 414.539 69.369 414.538C69.362 414.536 69.355 414.535 69.3479 414.533C69.3409 414.532 69.3339 414.53 69.3268 414.528C69.3198 414.527 69.3128 414.525 69.3058 414.524C69.2987 414.522 69.2917 414.521 69.2847 414.519L67.1154 424.281C67.1224 424.282 67.1294 424.284 67.1364 424.286C67.1435 424.287 67.1505 424.289 67.1575 424.29C67.1646 424.292 67.1716 424.293 67.1786 424.295C67.1857 424.297 67.1927 424.298 67.1997 424.3C67.2068 424.301 67.2138 424.303 67.2208 424.304C67.2279 424.306 67.2349 424.307 67.2419 424.309C67.2489 424.311 67.256 424.312 67.263 424.314C67.27 424.315 67.2771 424.317 67.2841 424.318C67.2911 424.32 67.2982 424.322 67.3052 424.323C67.3122 424.325 67.3193 424.326 67.3263 424.328C67.3333 424.329 67.3403 424.331 67.3474 424.332C67.3544 424.334 67.3615 424.336 67.3685 424.337C67.3755 424.339 67.3825 424.34 67.3896 424.342C67.3966 424.343 67.4036 424.345 67.4107 424.347C67.4177 424.348 67.4247 424.35 67.4318 424.351C67.4388 424.353 67.4458 424.354 67.4529 424.356C67.4599 424.357 67.4669 424.359 67.474 424.361C67.481 424.362 67.488 424.364 67.495 424.365C67.5021 424.367 67.5091 424.368 67.5161 424.37C67.5232 424.372 67.5302 424.373 67.5372 424.375C67.5443 424.376 67.5513 424.378 67.5583 424.379C67.5654 424.381 67.5724 424.382 67.5794 424.384C67.5864 424.386 67.5935 424.387 67.6005 424.389C67.6075 424.39 67.6146 424.392 67.6216 424.393C67.6286 424.395 67.6357 424.397 67.6427 424.398C67.6497 424.4 67.6568 424.401 67.6638 424.403C67.6708 424.404 67.6779 424.406 67.6849 424.407C67.6919 424.409 67.6989 424.411 67.706 424.412C67.713 424.414 67.72 424.415 67.7271 424.417C67.7341 424.418 67.7411 424.42 67.7482 424.422C67.7552 424.423 67.7622 424.425 67.7693 424.426C67.7763 424.428 67.7833 424.429 67.7904 424.431C67.7974 424.432 67.8044 424.434 67.8114 424.436C67.8185 424.437 67.8255 424.439 67.8325 424.44C67.8396 424.442 67.8466 424.443 67.8536 424.445C67.8607 424.447 67.8677 424.448 67.8747 424.45C67.8818 424.451 67.8888 424.453 67.8958 424.454C67.9028 424.456 67.9099 424.457 67.9169 424.459C67.924 424.461 67.931 424.462 67.938 424.464C67.945 424.465 67.9521 424.467 67.9591 424.468C67.9661 424.47 67.9732 424.472 67.9802 424.473C67.9872 424.475 67.9943 424.476 68.0013 424.478C68.0083 424.479 68.0154 424.481 68.0224 424.482C68.0294 424.484 68.0365 424.486 68.0435 424.487C68.0505 424.489 68.0575 424.49 68.0646 424.492C68.0716 424.493 68.0786 424.495 68.0857 424.497C68.0927 424.498 68.0997 424.5 68.1068 424.501C68.1138 424.503 68.1208 424.504 68.1279 424.506C68.1349 424.507 68.1419 424.509 68.1489 424.511C68.156 424.512 68.163 424.514 68.17 424.515C68.1771 424.517 68.1841 424.518 68.1911 424.52C68.1982 424.522 68.2052 424.523 68.2122 424.525C68.2193 424.526 68.2263 424.528 68.2333 424.529C68.2404 424.531 68.2474 424.532 68.2544 424.534C68.2614 424.536 68.2685 424.537 68.2755 424.539C68.2825 424.54 68.2896 424.542 68.2966 424.543C68.3036 424.545 68.3107 424.547 68.3177 424.548C68.3247 424.55 68.3318 424.551 68.3388 424.553C68.3458 424.554 68.3529 424.556 68.3599 424.557C68.3669 424.559 68.3739 424.561 68.381 424.562C68.388 424.564 68.395 424.565 68.4021 424.567C68.4091 424.568 68.4161 424.57 68.4232 424.572C68.4302 424.573 68.4372 424.575 68.4443 424.576C68.4513 424.578 68.4583 424.579 68.4653 424.581C68.4724 424.582 68.4794 424.584 68.4865 424.586C68.4935 424.587 68.5005 424.589 68.5075 424.59C68.5146 424.592 68.5216 424.593 68.5286 424.595C68.5357 424.597 68.5427 424.598 68.5497 424.6C68.5568 424.601 68.5638 424.603 68.5708 424.604C68.5779 424.606 68.5849 424.607 68.5919 424.609C68.599 424.611 68.606 424.612 68.613 424.614C68.62 424.615 68.6271 424.617 68.6341 424.618C68.6411 424.62 68.6482 424.622 68.6552 424.623C68.6622 424.625 68.6693 424.626 68.6763 424.628C68.6833 424.629 68.6904 424.631 68.6974 424.632C68.7044 424.634 68.7114 424.636 68.7185 424.637C68.7255 424.639 68.7325 424.64 68.7396 424.642C68.7466 424.643 68.7536 424.645 68.7607 424.647C68.7677 424.648 68.7747 424.65 68.7818 424.651C68.7888 424.653 68.7958 424.654 68.8029 424.656C68.8099 424.657 68.8169 424.659 68.8239 424.661C68.831 424.662 68.838 424.664 68.845 424.665C68.8521 424.667 68.8591 424.668 68.8661 424.67C68.8732 424.672 68.8802 424.673 68.8872 424.675C68.8943 424.676 68.9013 424.678 68.9083 424.679C68.9154 424.681 68.9224 424.682 68.9294 424.684C68.9364 424.686 68.9435 424.687 68.9505 424.689C68.9575 424.69 68.9646 424.692 68.9716 424.693C68.9786 424.695 68.9857 424.697 68.9927 424.698C68.9997 424.7 69.0068 424.701 69.0138 424.703C69.0208 424.704 69.0278 424.706 69.0349 424.707C69.0419 424.709 69.049 424.711 69.056 424.712C69.063 424.714 69.07 424.715 69.0771 424.717C69.0841 424.718 69.0911 424.72 69.0982 424.722C69.1052 424.723 69.1122 424.725 69.1193 424.726C69.1263 424.728 69.1333 424.729 69.1404 424.731C69.1474 424.732 69.1544 424.734 69.1615 424.736C69.1685 424.737 69.1755 424.739 69.1825 424.74C69.1896 424.742 69.1966 424.743 69.2036 424.745C69.2107 424.747 69.2177 424.748 69.2247 424.75C69.2318 424.751 69.2388 424.753 69.2458 424.754C69.2529 424.756 69.2599 424.757 69.2669 424.759C69.2739 424.761 69.281 424.762 69.288 424.764C69.295 424.765 69.3021 424.767 69.3091 424.768C69.3161 424.77 69.3232 424.772 69.3302 424.773C69.3372 424.775 69.3443 424.776 69.3513 424.778C69.3583 424.779 69.3654 424.781 69.3724 424.782C69.3794 424.784 69.3864 424.786 69.3935 424.787C69.4005 424.789 69.4075 424.79 69.4146 424.792C69.4216 424.793 69.4286 424.795 69.4357 424.797C69.4427 424.798 69.4497 424.8 69.4568 424.801C69.4638 424.803 69.4708 424.804 69.4779 424.806C69.4849 424.807 69.4919 424.809 69.4989 424.811C69.506 424.812 69.513 424.814 69.52 424.815C69.5271 424.817 69.5341 424.818 69.5411 424.82C69.5482 424.822 69.5552 424.823 69.5622 424.825C69.5693 424.826 69.5763 424.828 69.5833 424.829C69.5903 424.831 69.5974 424.832 69.6044 424.834C69.6115 424.836 69.6185 424.837 69.6255 424.839C69.6325 424.84 69.6396 424.842 69.6466 424.843C69.6536 424.845 69.6607 424.847 69.6677 424.848C69.6747 424.85 69.6818 424.851 69.6888 424.853C69.6958 424.854 69.7029 424.856 69.7099 424.857C69.7169 424.859 69.724 424.861 69.731 424.862C69.738 424.864 69.745 424.865 69.7521 424.867C69.7591 424.868 69.7661 424.87 69.7732 424.872C69.7802 424.873 69.7872 424.875 69.7943 424.876C69.8013 424.878 69.8083 424.879 69.8154 424.881C69.8224 424.882 69.8294 424.884 69.8364 424.886C69.8435 424.887 69.8505 424.889 69.8575 424.89C69.8646 424.892 69.8716 424.893 69.8786 424.895C69.8857 424.897 69.8927 424.898 69.8997 424.9C69.9068 424.901 69.9138 424.903 69.9208 424.904C69.9279 424.906 69.9349 424.907 69.9419 424.909C69.9489 424.911 69.956 424.912 69.963 424.914C69.97 424.915 69.9771 424.917 69.9841 424.918C69.9911 424.92 69.9982 424.922 70.0052 424.923C70.0122 424.925 70.0193 424.926 70.0263 424.928C70.0333 424.929 70.0404 424.931 70.0474 424.932C70.0544 424.934 70.0614 424.936 70.0685 424.937C70.0755 424.939 70.0825 424.94 70.0896 424.942C70.0966 424.943 70.1036 424.945 70.1107 424.947C70.1177 424.948 70.1247 424.95 70.1318 424.951C70.1388 424.953 70.1458 424.954 70.1528 424.956C70.1599 424.957 70.1669 424.959 70.174 424.961C70.181 424.962 70.188 424.964 70.195 424.965C70.2021 424.967 70.2091 424.968 70.2161 424.97C70.2232 424.972 70.2302 424.973 70.2372 424.975C70.2443 424.976 70.2513 424.978 70.2583 424.979C70.2654 424.981 70.2724 424.982 70.2794 424.984C70.2865 424.986 70.2935 424.987 70.3005 424.989C70.3075 424.99 70.3146 424.992 70.3216 424.993C70.3286 424.995 70.3357 424.997 70.3427 424.998C70.3497 425 70.3568 425.001 70.3638 425.003C70.3708 425.004 70.3779 425.006 70.3849 425.007C70.3919 425.009 70.3989 425.011 70.406 425.012C70.413 425.014 70.42 425.015 70.4271 425.017C70.4341 425.018 70.4411 425.02 70.4482 425.022C70.4552 425.023 70.4622 425.025 70.4693 425.026C70.4763 425.028 70.4833 425.029 70.4904 425.031C70.4974 425.032 70.5044 425.034 70.5114 425.036C70.5185 425.037 70.5255 425.039 70.5325 425.04C70.5396 425.042 70.5466 425.043 70.5536 425.045C70.5607 425.047 70.5677 425.048 70.5747 425.05C70.5818 425.051 70.5888 425.053 70.5958 425.054C70.6029 425.056 70.6099 425.057 70.6169 425.059C70.6239 425.061 70.631 425.062 70.638 425.064C70.645 425.065 70.6521 425.067 70.6591 425.068C70.6661 425.07 70.6732 425.072 70.6802 425.073C70.6872 425.075 70.6943 425.076 70.7013 425.078C70.7083 425.079 70.7153 425.081 70.7224 425.082C70.7294 425.084 70.7365 425.086 70.7435 425.087C70.7505 425.089 70.7575 425.09 70.7646 425.092C70.7716 425.093 70.7786 425.095 70.7857 425.097C70.7927 425.098 70.7997 425.1 70.8068 425.101C70.8138 425.103 70.8208 425.104 70.8279 425.106C70.8349 425.107 70.8419 425.109 70.849 425.111C70.856 425.112 70.863 425.114 70.87 425.115C70.8771 425.117 70.8841 425.118 70.8911 425.12C70.8982 425.122 70.9052 425.123 70.9122 425.125C70.9193 425.126 70.9263 425.128 70.9333 425.129C70.9404 425.131 70.9474 425.132 70.9544 425.134C70.9614 425.136 70.9685 425.137 70.9755 425.139C70.9825 425.14 70.9896 425.142 70.9966 425.143C71.0036 425.145 71.0107 425.147 71.0177 425.148C71.0247 425.15 71.0318 425.151 71.0388 425.153C71.0458 425.154 71.0529 425.156 71.0599 425.157C71.0669 425.159 71.0739 425.161 71.081 425.162C71.088 425.164 71.095 425.165 71.1021 425.167C71.1091 425.168 71.1161 425.17 71.1232 425.172C71.1302 425.173 71.1372 425.175 71.1443 425.176C71.1513 425.178 71.1583 425.179 71.1654 425.181C71.1724 425.182 71.1794 425.184 71.1864 425.186C71.1935 425.187 71.2005 425.189 71.2076 425.19C71.2146 425.192 71.2216 425.193 71.2286 425.195C71.2357 425.197 71.2427 425.198 71.2497 425.2C71.2568 425.201 71.2638 425.203 71.2708 425.204C71.2779 425.206 71.2849 425.207 71.2919 425.209C71.299 425.211 71.306 425.212 71.313 425.214C71.32 425.215 71.3271 425.217 71.3341 425.218C71.3411 425.22 71.3482 425.222 71.3552 425.223C71.3622 425.225 71.3693 425.226 71.3763 425.228C71.3833 425.229 71.3904 425.231 71.3974 425.232C71.4044 425.234 71.4115 425.236 71.4185 425.237C71.4255 425.239 71.4325 425.24 71.4396 425.242C71.4466 425.243 71.4536 425.245 71.4607 425.247C71.4677 425.248 71.4747 425.25 71.4818 425.251C71.4888 425.253 71.4958 425.254 71.5029 425.256C71.5099 425.257 71.5169 425.259 71.524 425.261C71.531 425.262 71.538 425.264 71.545 425.265C71.5521 425.267 71.5591 425.268 71.5661 425.27C71.5732 425.272 71.5802 425.273 71.5872 425.275C71.5943 425.276 71.6013 425.278 71.6083 425.279C71.6154 425.281 71.6224 425.282 71.6294 425.284C71.6364 425.286 71.6435 425.287 71.6505 425.289C71.6575 425.29 71.6646 425.292 71.6716 425.293C71.6786 425.295 71.6857 425.297 71.6927 425.298C71.6997 425.3 71.7068 425.301 71.7138 425.303C71.7208 425.304 71.7279 425.306 71.7349 425.307C71.7419 425.309 71.7489 425.311 71.756 425.312C71.763 425.314 71.7701 425.315 71.7771 425.317C71.7841 425.318 71.7911 425.32 71.7982 425.322C71.8052 425.323 71.8122 425.325 71.8193 425.326C71.8263 425.328 71.8333 425.329 71.8404 425.331C71.8474 425.332 71.8544 425.334 71.8615 425.336C71.8685 425.337 71.8755 425.339 71.8825 425.34C71.8896 425.342 71.8966 425.343 71.9036 425.345C71.9107 425.347 71.9177 425.348 71.9247 425.35C71.9318 425.351 71.9388 425.353 71.9458 425.354C71.9529 425.356 71.9599 425.357 71.9669 425.359C71.974 425.361 71.981 425.362 71.988 425.364C71.995 425.365 72.0021 425.367 72.0091 425.368C72.0161 425.37 72.0232 425.372 72.0302 425.373C72.0372 425.375 72.0443 425.376 72.0513 425.378C72.0583 425.379 72.0654 425.381 72.0724 425.382C72.0794 425.384 72.0865 425.386 72.0935 425.387C72.1005 425.389 72.1075 425.39 72.1146 425.392C72.1216 425.393 72.1286 425.395 72.1357 425.397C72.1427 425.398 72.1497 425.4 72.1568 425.401C72.1638 425.403 72.1708 425.404 72.1779 425.406C72.1849 425.407 72.1919 425.409 72.1989 425.411C72.206 425.412 72.213 425.414 72.22 425.415C72.2271 425.417 72.2341 425.418 72.2411 425.42C72.2482 425.422 72.2552 425.423 72.2622 425.425C72.2693 425.426 72.2763 425.428 72.2833 425.429C72.2904 425.431 72.2974 425.432 72.3044 425.434C72.3114 425.436 72.3185 425.437 72.3255 425.439C72.3326 425.44 72.3396 425.442 72.3466 425.443C72.3536 425.445 72.3607 425.447 72.3677 425.448C72.3747 425.45 72.3818 425.451 72.3888 425.453C72.3958 425.454 72.4029 425.456 72.4099 425.457C72.4169 425.459 72.424 425.461 72.431 425.462C72.438 425.464 72.445 425.465 72.4521 425.467C72.4591 425.468 72.4661 425.47 72.4732 425.472C72.4802 425.473 72.4872 425.475 72.4943 425.476C72.5013 425.478 72.5083 425.479 72.5154 425.481C72.5224 425.482 72.5294 425.484 72.5365 425.486C72.5435 425.487 72.5505 425.489 72.5575 425.49C72.5646 425.492 72.5716 425.493 72.5786 425.495C72.5857 425.497 72.5927 425.498 72.5997 425.5C72.6068 425.501 72.6138 425.503 72.6208 425.504C72.6279 425.506 72.6349 425.507 72.6419 425.509C72.649 425.511 72.656 425.512 72.663 425.514C72.67 425.515 72.6771 425.517 72.6841 425.518C72.6911 425.52 72.6982 425.522 72.7052 425.523C72.7122 425.525 72.7193 425.526 72.7263 425.528C72.7333 425.529 72.7404 425.531 72.7474 425.532C72.7544 425.534 72.7614 425.536 72.7685 425.537C72.7755 425.539 72.7825 425.54 72.7896 425.542C72.7966 425.543 72.8036 425.545 72.8107 425.547C72.8177 425.548 72.8247 425.55 72.8318 425.551C72.8388 425.553 72.8458 425.554 72.8529 425.556C72.8599 425.557 72.8669 425.559 72.8739 425.561C72.881 425.562 72.888 425.564 72.8951 425.565C72.9021 425.567 72.9091 425.568 72.9161 425.57C72.9232 425.572 72.9302 425.573 72.9372 425.575C72.9443 425.576 72.9513 425.578 72.9583 425.579C72.9654 425.581 72.9724 425.582 72.9794 425.584C72.9865 425.586 72.9935 425.587 73.0005 425.589C73.0075 425.59 73.0146 425.592 73.0216 425.593C73.0286 425.595 73.0357 425.597 73.0427 425.598C73.0497 425.6 73.0568 425.601 73.0638 425.603C73.0708 425.604 73.0779 425.606 73.0849 425.607C73.0919 425.609 73.099 425.611 73.106 425.612C73.113 425.614 73.12 425.615 73.1271 425.617C73.1341 425.618 73.1411 425.62 73.1482 425.622C73.1552 425.623 73.1622 425.625 73.1693 425.626C73.1763 425.628 73.1833 425.629 73.1904 425.631C73.1974 425.632 73.2044 425.634 73.2115 425.636C73.2185 425.637 73.2255 425.639 73.2325 425.64C73.2396 425.642 73.2466 425.643 73.2536 425.645C73.2607 425.647 73.2677 425.648 73.2747 425.65C73.2818 425.651 73.2888 425.653 73.2958 425.654C73.3029 425.656 73.3099 425.657 73.3169 425.659C73.3239 425.661 73.331 425.662 73.338 425.664C73.345 425.665 73.3521 425.667 73.3591 425.668C73.3661 425.67 73.3732 425.672 73.3802 425.673C73.3872 425.675 73.3943 425.676 73.4013 425.678C73.4083 425.679 73.4154 425.681 73.4224 425.682C73.4294 425.684 73.4364 425.686 73.4435 425.687C73.4505 425.689 73.4576 425.69 73.4646 425.692C73.4716 425.693 73.4786 425.695 73.4857 425.697C73.4927 425.698 73.4997 425.7 73.5068 425.701C73.5138 425.703 73.5208 425.704 73.5279 425.706C73.5349 425.707 73.5419 425.709 73.549 425.711C73.556 425.712 73.563 425.714 73.57 425.715C73.5771 425.717 73.5841 425.718 73.5911 425.72C73.5982 425.722 73.6052 425.723 73.6122 425.725C73.6193 425.726 73.6263 425.728 73.6333 425.729C73.6404 425.731 73.6474 425.732 73.6544 425.734C73.6615 425.736 73.6685 425.737 73.6755 425.739C73.6825 425.74 73.6896 425.742 73.6966 425.743C73.7036 425.745 73.7107 425.747 73.7177 425.748C73.7247 425.75 73.7318 425.751 73.7388 425.753C73.7458 425.754 73.7529 425.756 73.7599 425.757C73.7669 425.759 73.774 425.761 73.781 425.762C73.788 425.764 73.795 425.765 73.8021 425.767C73.8091 425.768 73.8161 425.77 73.8232 425.772C73.8302 425.773 73.8372 425.775 73.8443 425.776C73.8513 425.778 73.8583 425.779 73.8654 425.781C73.8724 425.782 73.8794 425.784 73.8864 425.786C73.8935 425.787 73.9005 425.789 73.9075 425.79C73.9146 425.792 73.9216 425.793 73.9286 425.795C73.9357 425.797 73.9427 425.798 73.9497 425.8C73.9568 425.801 73.9638 425.803 73.9708 425.804C73.9779 425.806 73.9849 425.807 73.9919 425.809C73.9989 425.811 74.006 425.812 74.013 425.814C74.0201 425.815 74.0271 425.817 74.0341 425.818C74.0411 425.82 74.0482 425.822 74.0552 425.823C74.0622 425.825 74.0693 425.826 74.0763 425.828C74.0833 425.829 74.0904 425.831 74.0974 425.832C74.1044 425.834 74.1115 425.836 74.1185 425.837C74.1255 425.839 74.1325 425.84 74.1396 425.842C74.1466 425.843 74.1536 425.845 74.1607 425.847C74.1677 425.848 74.1747 425.85 74.1818 425.851C74.1888 425.853 74.1958 425.854 74.2029 425.856C74.2099 425.857 74.2169 425.859 74.224 425.861C74.231 425.862 74.238 425.864 74.245 425.865C74.2521 425.867 74.2591 425.868 74.2661 425.87C74.2732 425.872 74.2802 425.873 74.2872 425.875C74.2943 425.876 74.3013 425.878 74.3083 425.879C74.3154 425.881 74.3224 425.882 74.3294 425.884C74.3365 425.886 74.3435 425.887 74.3505 425.889C74.3575 425.89 74.3646 425.892 74.3716 425.893C74.3786 425.895 74.3857 425.897 74.3927 425.898C74.3997 425.9 74.4068 425.901 74.4138 425.903C74.4208 425.904 74.4279 425.906 74.4349 425.907C74.4419 425.909 74.4489 425.911 74.456 425.912C74.463 425.914 74.47 425.915 74.4771 425.917C74.4841 425.918 74.4911 425.92 74.4982 425.922C74.5052 425.923 74.5122 425.925 74.5193 425.926C74.5263 425.928 74.5333 425.929 74.5404 425.931C74.5474 425.932 74.5544 425.934 74.5614 425.936C74.5685 425.937 74.5755 425.939 74.5826 425.94C74.5896 425.942 74.5966 425.943 74.6036 425.945C74.6107 425.947 74.6177 425.948 74.6247 425.95C74.6318 425.951 74.6388 425.953 74.6458 425.954C74.6529 425.956 74.6599 425.957 74.6669 425.959C74.674 425.961 74.681 425.962 74.688 425.964C74.695 425.965 74.7021 425.967 74.7091 425.968C74.7161 425.97 74.7232 425.972 74.7302 425.973C74.7372 425.975 74.7443 425.976 74.7513 425.978C74.7583 425.979 74.7654 425.981 74.7724 425.982C74.7794 425.984 74.7865 425.986 74.7935 425.987C74.8005 425.989 74.8075 425.99 74.8146 425.992C74.8216 425.993 74.8286 425.995 74.8357 425.997C74.8427 425.998 74.8497 426 74.8568 426.001C74.8638 426.003 74.8708 426.004 74.8779 426.006C74.8849 426.007 74.8919 426.009 74.899 426.011C74.906 426.012 74.913 426.014 74.92 426.015C74.9271 426.017 74.9341 426.018 74.9411 426.02C74.9482 426.022 74.9552 426.023 74.9622 426.025C74.9693 426.026 74.9763 426.028 74.9833 426.029C74.9904 426.031 74.9974 426.032 75.0044 426.034C75.0114 426.036 75.0185 426.037 75.0255 426.039C75.0325 426.04 75.0396 426.042 75.0466 426.043C75.0536 426.045 75.0607 426.047 75.0677 426.048C75.0747 426.05 75.0818 426.051 75.0888 426.053C75.0958 426.054 75.1029 426.056 75.1099 426.057C75.1169 426.059 75.1239 426.061 75.131 426.062C75.138 426.064 75.1451 426.065 75.1521 426.067C75.1591 426.068 75.1661 426.07 75.1732 426.072C75.1802 426.073 75.1872 426.075 75.1943 426.076C75.2013 426.078 75.2083 426.079 75.2154 426.081C75.2224 426.082 75.2294 426.084 75.2365 426.086C75.2435 426.087 75.2505 426.089 75.2575 426.09C75.2646 426.092 75.2716 426.093 75.2786 426.095C75.2857 426.097 75.2927 426.098 75.2997 426.1C75.3068 426.101 75.3138 426.103 75.3208 426.104C75.3279 426.106 75.3349 426.107 75.3419 426.109C75.349 426.111 75.356 426.112 75.363 426.114C75.37 426.115 75.3771 426.117 75.3841 426.118C75.3911 426.12 75.3982 426.122 75.4052 426.123C75.4122 426.125 75.4193 426.126 75.4263 426.128C75.4333 426.129 75.4404 426.131 75.4474 426.132C75.4544 426.134 75.4615 426.136 75.4685 426.137C75.4755 426.139 75.4825 426.14 75.4896 426.142C75.4966 426.143 75.5036 426.145 75.5107 426.147C75.5177 426.148 75.5247 426.15 75.5318 426.151C75.5388 426.153 75.5458 426.154 75.5529 426.156C75.5599 426.157 75.5669 426.159 75.5739 426.161C75.581 426.162 75.588 426.164 75.595 426.165C75.6021 426.167 75.6091 426.168 75.6161 426.17C75.6232 426.172 75.6302 426.173 75.6372 426.175C75.6443 426.176 75.6513 426.178 75.6583 426.179C75.6654 426.181 75.6724 426.182 75.6794 426.184C75.6864 426.186 75.6935 426.187 75.7005 426.189C75.7076 426.19 75.7146 426.192 75.7216 426.193C75.7286 426.195 75.7357 426.197 75.7427 426.198C75.7497 426.2 75.7568 426.201 75.7638 426.203C75.7708 426.204 75.7779 426.206 75.7849 426.207C75.7919 426.209 75.799 426.211 75.806 426.212C75.813 426.214 75.82 426.215 75.8271 426.217C75.8341 426.218 75.8411 426.22 75.8482 426.222C75.8552 426.223 75.8622 426.225 75.8693 426.226C75.8763 426.228 75.8833 426.229 75.8904 426.231C75.8974 426.232 75.9044 426.234 75.9115 426.236C75.9185 426.237 75.9255 426.239 75.9325 426.24C75.9396 426.242 75.9466 426.243 75.9536 426.245C75.9607 426.247 75.9677 426.248 75.9747 426.25C75.9818 426.251 75.9888 426.253 75.9958 426.254C76.0029 426.256 76.0099 426.257 76.0169 426.259C76.024 426.261 76.031 426.262 76.038 426.264C76.045 426.265 76.0521 426.267 76.0591 426.268C76.0661 426.27 76.0732 426.272 76.0802 426.273C76.0872 426.275 76.0943 426.276 76.1013 426.278C76.1083 426.279 76.1154 426.281 76.1224 426.282C76.1294 426.284 76.1364 426.286 76.1435 426.287C76.1505 426.289 76.1575 426.29 76.1646 426.292C76.1716 426.293 76.1786 426.295 76.1857 426.297C76.1927 426.298 76.1997 426.3 76.2068 426.301C76.2138 426.303 76.2208 426.304 76.2279 426.306C76.2349 426.307 76.2419 426.309 76.2489 426.311C76.256 426.312 76.263 426.314 76.2701 426.315C76.2771 426.317 76.2841 426.318 76.2911 426.32C76.2982 426.322 76.3052 426.323 76.3122 426.325C76.3193 426.326 76.3263 426.328 76.3333 426.329C76.3404 426.331 76.3474 426.332 76.3544 426.334C76.3615 426.336 76.3685 426.337 76.3755 426.339C76.3825 426.34 76.3896 426.342 76.3966 426.343C76.4036 426.345 76.4107 426.347 76.4177 426.348C76.4247 426.35 76.4318 426.351 76.4388 426.353C76.4458 426.354 76.4529 426.356 76.4599 426.357C76.4669 426.359 76.474 426.361 76.481 426.362C76.488 426.364 76.495 426.365 76.5021 426.367C76.5091 426.368 76.5161 426.37 76.5232 426.372C76.5302 426.373 76.5372 426.375 76.5443 426.376C76.5513 426.378 76.5583 426.379 76.5654 426.381C76.5724 426.382 76.5794 426.384 76.5865 426.386C76.5935 426.387 76.6005 426.389 76.6075 426.39C76.6146 426.392 76.6216 426.393 76.6286 426.395C76.6357 426.397 76.6427 426.398 76.6497 426.4C76.6568 426.401 76.6638 426.403 76.6708 426.404C76.6779 426.406 76.6849 426.407 76.6919 426.409C76.6989 426.411 76.706 426.412 76.713 426.414C76.72 426.415 76.7271 426.417 76.7341 426.418C76.7411 426.42 76.7482 426.422 76.7552 426.423C76.7622 426.425 76.7693 426.426 76.7763 426.428C76.7833 426.429 76.7904 426.431 76.7974 426.432C76.8044 426.434 76.8114 426.436 76.8185 426.437C76.8255 426.439 76.8326 426.44 76.8396 426.442C76.8466 426.443 76.8536 426.445 76.8607 426.447C76.8677 426.448 76.8747 426.45 76.8818 426.451C76.8888 426.453 76.8958 426.454 76.9029 426.456C76.9099 426.457 76.9169 426.459 76.924 426.461C76.931 426.462 76.938 426.464 76.945 426.465C76.9521 426.467 76.9591 426.468 76.9661 426.47C76.9732 426.472 76.9802 426.473 76.9872 426.475C76.9943 426.476 77.0013 426.478 77.0083 426.479C77.0154 426.481 77.0224 426.482 77.0294 426.484C77.0365 426.486 77.0435 426.487 77.0505 426.489C77.0575 426.49 77.0646 426.492 77.0716 426.493C77.0786 426.495 77.0857 426.497 77.0927 426.498C77.0997 426.5 77.1068 426.501 77.1138 426.503C77.1208 426.504 77.1279 426.506 77.1349 426.507C77.1419 426.509 77.149 426.511 77.156 426.512C77.163 426.514 77.17 426.515 77.1771 426.517C77.1841 426.518 77.1911 426.52 77.1982 426.522C77.2052 426.523 77.2122 426.525 77.2193 426.526C77.2263 426.528 77.2333 426.529 77.2404 426.531C77.2474 426.532 77.2544 426.534 77.2614 426.536C77.2685 426.537 77.2755 426.539 77.2825 426.54C77.2896 426.542 77.2966 426.543 77.3036 426.545C77.3107 426.547 77.3177 426.548 77.3247 426.55C77.3318 426.551 77.3388 426.553 77.3458 426.554C77.3529 426.556 77.3599 426.557 77.3669 426.559C77.3739 426.561 77.381 426.562 77.388 426.564C77.3951 426.565 77.4021 426.567 77.4091 426.568C77.4161 426.57 77.4232 426.572 77.4302 426.573C77.4372 426.575 77.4443 426.576 77.4513 426.578C77.4583 426.579 77.4654 426.581 77.4724 426.582C77.4794 426.584 77.4865 426.586 77.4935 426.587C77.5005 426.589 77.5075 426.59 77.5146 426.592C77.5216 426.593 77.5286 426.595 77.5357 426.597C77.5427 426.598 77.5497 426.6 77.5568 426.601C77.5638 426.603 77.5708 426.604 77.5779 426.606C77.5849 426.607 77.5919 426.609 77.599 426.611C77.606 426.612 77.613 426.614 77.62 426.615C77.6271 426.617 77.6341 426.618 77.6411 426.62C77.6482 426.622 77.6552 426.623 77.6622 426.625C77.6693 426.626 77.6763 426.628 77.6833 426.629C77.6904 426.631 77.6974 426.632 77.7044 426.634C77.7115 426.636 77.7185 426.637 77.7255 426.639C77.7325 426.64 77.7396 426.642 77.7466 426.643C77.7536 426.645 77.7607 426.647 77.7677 426.648C77.7747 426.65 77.7818 426.651 77.7888 426.653C77.7958 426.654 77.8029 426.656 77.8099 426.657C77.8169 426.659 77.8239 426.661 77.831 426.662C77.838 426.664 77.845 426.665 77.8521 426.667C77.8591 426.668 77.8661 426.67 77.8732 426.672C77.8802 426.673 77.8872 426.675 77.8943 426.676C77.9013 426.678 77.9083 426.679 77.9154 426.681L80.0847 416.919ZM69.2847 414.519C65.6466 413.711 61.8118 412.903 57.7806 412.097L55.8194 421.903C59.7883 422.697 63.5534 423.489 67.1154 424.281L69.2847 414.519ZM57.8542 412.112C37.5719 407.738 18.0968 402.769 -0.572617 397.208L-3.42737 406.792C15.5033 412.431 35.2281 417.462 55.7458 421.888L57.8542 412.112ZM-0.479782 397.237C-18.8969 391.359 -35.064 383.748 -49.0265 374.44L-54.5735 382.76C-39.736 392.652 -22.703 400.641 -3.52019 406.763L-0.479782 397.237ZM-49.0265 374.44C-62.6992 365.325 -73.5441 353.169 -81.573 337.876L-90.427 342.524C-81.6559 359.231 -69.7008 372.675 -54.5735 382.76L-49.0265 374.44ZM-81.573 337.876C-89.4882 322.799 -93.6 303.461 -93.6 279.6H-103.6C-103.6 304.539 -99.3118 325.601 -90.427 342.524L-81.573 337.876ZM-93.6 279.6C-93.6 257.773 -89.7001 239.826 -82.1754 225.529L-91.0246 220.871C-99.4999 236.974 -103.6 256.627 -103.6 279.6H-93.6ZM-82.1509 225.482C-74.4899 210.543 -64.4112 198.793 -51.941 190.102L-57.659 181.898C-71.5888 191.607 -82.7101 204.657 -91.0491 220.918L-82.1509 225.482ZM-51.8591 190.044C-39.1054 180.768 -25.2022 173.817 -10.1296 169.179L-13.0704 159.621C-29.1978 164.583 -44.0946 172.032 -57.7409 181.956L-51.8591 190.044ZM-10.1296 169.179C5.18251 164.467 20.2655 161.337 35.1234 159.773L34.0766 149.827C18.5345 151.463 2.8175 154.732 -13.0704 159.621L-10.1296 169.179ZM35.2523 159.757C50.2921 157.778 63.6682 156.8 75.4 156.8V146.8C63.1318 146.8 49.3079 147.822 33.9477 149.843L35.2523 159.757ZM75.4 156.8C104.364 156.8 129.574 162.277 151.164 173.072L155.636 164.128C132.426 152.523 105.636 146.8 75.4 146.8V156.8ZM151.229 173.104C172.785 183.497 190.084 198.867 203.192 219.3L211.608 213.9C197.516 191.933 178.815 175.303 155.572 164.096L151.229 173.104ZM203.228 219.355C216.698 239.753 224.884 264.531 227.622 293.865L237.578 292.935C234.716 262.269 226.102 235.847 211.572 213.845L203.228 219.355ZM232.6 288.4H127.6V298.4H232.6V288.4ZM132.554 292.724C131.214 282.896 127.146 274.475 120.336 267.664L113.264 274.736C118.454 279.925 121.586 286.304 122.646 294.076L132.554 292.724ZM120.448 267.78C113.798 260.687 105.247 255.479 94.9811 252.057L91.8189 261.543C100.753 264.521 107.802 268.913 113.152 274.62L120.448 267.78ZM95.222 252.144C85.3142 248.267 73.8705 246.4 61 246.4V256.4C72.9296 256.4 83.0858 258.133 91.578 261.456L95.222 252.144ZM61 246.4C53.5229 246.4 46.4124 247.023 39.6786 248.286L41.5214 258.114C47.5877 256.977 54.0771 256.4 61 256.4V246.4ZM39.6786 248.286C32.9156 249.554 26.8568 251.481 21.5639 254.128L26.0361 263.072C30.3432 260.919 35.4845 259.246 41.5215 258.114L39.6786 248.286ZM21.4057 254.21C16.4632 256.906 12.3147 260.337 9.05324 264.53L16.9468 270.67C19.2853 267.663 22.3368 265.094 26.1943 262.989L21.4057 254.21ZM9.05324 264.53C5.53314 269.056 3.8 274.351 3.8 280.2H13.8C13.8 276.449 14.8669 273.344 16.9468 270.67L9.05324 264.53ZM3.8 280.2C3.8 288.029 6.80872 294.757 12.6214 300.086L19.3786 292.714C15.5913 289.242 13.8 285.171 13.8 280.2H3.8ZM12.7703 300.217C18.6317 305.177 26.6812 309.231 36.6189 312.543L39.7811 303.057C30.5188 299.969 23.7683 296.423 19.2297 292.583L12.7703 300.217ZM36.6761 312.562C46.8111 315.805 59.1216 319.234 73.5873 322.851L76.0127 313.149C61.6784 309.566 49.5889 306.195 39.7239 303.038L36.6761 312.562ZM73.6548 322.867C80.4336 324.462 87.011 326.057 93.3873 327.651L95.8127 317.949C89.389 316.343 82.7664 314.738 75.9452 313.133L73.6548 322.867ZM93.6786 327.714C99.9796 328.896 106.282 330.275 112.587 331.851L115.013 322.149C108.518 320.525 102.02 319.104 95.5215 317.886L93.6786 327.714ZM112.692 331.876C130.14 335.841 146.368 340.395 161.382 345.531L164.618 336.069C149.232 330.805 132.66 326.159 114.908 322.124L112.692 331.876ZM161.419 345.543C176.606 350.606 189.736 357.189 200.867 365.25L206.733 357.15C194.664 348.411 180.594 341.394 164.581 336.057L161.419 345.543ZM200.933 365.296C212.159 373.154 221.017 383.851 227.479 397.535L236.521 393.265C229.383 378.149 219.441 366.046 206.667 357.104L200.933 365.296ZM227.502 397.585C233.864 410.682 237.2 427.864 237.2 449.4H247.2C247.2 426.936 243.736 408.118 236.498 393.215L227.502 397.585ZM237.2 449.4C237.2 473.974 232.52 494.505 223.411 511.206L232.19 515.994C242.28 497.495 247.2 475.226 247.2 449.4H237.2ZM223.434 511.163C214.224 527.664 201.777 541.067 186.05 551.424L191.55 559.776C208.623 548.533 222.176 533.936 232.166 516.037L223.434 511.163ZM186.05 551.424C170.147 561.897 152.265 569.682 132.365 574.755L134.835 584.445C155.735 579.118 174.653 570.903 191.55 559.776L186.05 551.424ZM132.455 574.733C112.434 579.444 92.0189 581.8 71.2 581.8V591.8C92.7811 591.8 113.966 589.356 134.745 584.467L132.455 574.733ZM355.623 567.6L353.24 571.995L355.623 567.6ZM300.423 512.4L295.996 514.723L296.019 514.766L296.042 514.81L300.423 512.4ZM301.023 335.4L296.639 332.996L296.633 333.008L296.626 333.021L301.023 335.4ZM357.423 279L359.776 283.412L359.805 283.397L359.833 283.381L357.423 279ZM516.423 274.8L514.287 279.32L516.423 274.8ZM568.623 319.8L564.437 322.534L568.623 319.8ZM589.023 391.8V396.8H594.166L594.021 391.659L589.023 391.8ZM487.023 391.8L482.127 392.813L482.952 396.8H487.023V391.8ZM470.823 365.4L467.823 369.4L467.87 369.435L467.917 369.469L470.823 365.4ZM407.823 367.8L411.168 371.516L411.218 371.471L411.267 371.425L407.823 367.8ZM391.023 394.8L395.802 396.27L395.81 396.245L395.817 396.22L391.023 394.8ZM409.023 480.6L412.147 476.696L409.023 480.6ZM472.023 481.2L475.023 485.2L475.086 485.153L475.147 485.104L472.023 481.2ZM487.023 455.4V450.4H482.864L482.107 454.49L487.023 455.4ZM592.623 455.4L597.622 455.539L597.764 450.4H592.623V455.4ZM570.423 528L574.464 530.946L574.478 530.926L574.492 530.906L570.423 528ZM515.223 571.8L517.232 576.379L515.223 571.8ZM439.023 581.8C407.697 581.8 380.747 575.538 358.007 563.205L353.24 571.995C377.7 585.262 406.35 591.8 439.023 591.8V581.8ZM358.007 563.205C335.267 550.871 317.553 533.169 304.805 509.99L296.042 514.81C309.694 539.631 328.78 558.729 353.24 571.995L358.007 563.205ZM304.851 510.077C292.505 486.542 286.223 458.177 286.223 424.8H276.223C276.223 459.423 282.742 489.458 295.996 514.723L304.851 510.077ZM286.223 424.8C286.223 390.212 292.709 361.278 305.421 337.779L296.626 333.021C282.938 358.322 276.223 388.988 276.223 424.8H286.223ZM305.408 337.804C318.56 313.821 336.67 295.735 359.776 283.412L355.07 274.588C330.177 287.865 310.687 307.379 296.639 332.996L305.408 337.804ZM359.833 283.381C382.988 270.646 409.935 264.2 440.823 264.2V254.2C408.512 254.2 379.859 260.954 355.014 274.619L359.833 283.381ZM440.823 264.2C468.607 264.2 493.057 269.285 514.287 279.32L518.56 270.28C495.789 259.515 469.84 254.2 440.823 254.2V264.2ZM514.287 279.32C535.486 289.342 552.163 303.739 564.437 322.534L572.81 317.066C559.484 296.661 541.361 281.058 518.56 270.28L514.287 279.32ZM564.437 322.534C576.634 341.211 583.246 364.266 584.025 391.941L594.021 391.659C593.201 362.534 586.213 337.589 572.81 317.066L564.437 322.534ZM589.023 386.8H487.023V396.8H589.023V386.8ZM491.92 390.787C489.305 378.149 483.305 368.171 473.73 361.331L467.917 369.469C475.142 374.629 479.942 382.251 482.127 392.813L491.92 390.787ZM473.823 361.4C464.824 354.651 453.925 351.4 441.423 351.4V361.4C452.121 361.4 460.823 364.149 467.823 369.4L473.823 361.4ZM441.423 351.4C426.146 351.4 413.565 355.449 404.38 364.175L411.267 371.425C418.082 364.951 427.901 361.4 441.423 361.4V351.4ZM404.479 364.084C395.76 371.93 389.679 381.738 386.229 393.38L395.817 396.22C398.768 386.262 403.887 378.07 411.168 371.516L404.479 364.084ZM386.245 393.33C382.917 404.143 381.223 414.64 381.223 424.8H391.223C391.223 415.76 392.73 406.257 395.802 396.27L386.245 393.33ZM381.223 424.8C381.223 436.168 383.12 447.141 386.919 457.694L396.328 454.306C392.927 444.858 391.223 435.032 391.223 424.8H381.223ZM386.919 457.694C390.819 468.528 397.151 477.505 405.9 484.504L412.147 476.696C404.896 470.895 399.627 463.472 396.328 454.306L386.919 457.694ZM405.9 484.504C415.015 491.796 426.82 495.2 440.823 495.2V485.2C428.427 485.2 419.032 482.204 412.147 476.696L405.9 484.504ZM440.823 495.2C454.4 495.2 465.942 492.011 475.023 485.2L469.023 477.2C462.105 482.389 452.847 485.2 440.823 485.2V495.2ZM475.147 485.104C484.155 477.898 489.738 468.199 491.94 456.31L482.107 454.49C480.309 464.201 475.891 471.702 468.9 477.296L475.147 485.104ZM487.023 460.4H592.623V450.4H487.023V460.4ZM587.625 455.261C586.847 483.265 579.671 506.451 566.355 525.094L574.492 530.906C589.176 510.349 596.799 485.135 597.622 455.539L587.625 455.261ZM566.383 525.054C552.93 543.505 535.246 557.559 513.215 567.221L517.232 576.379C540.801 566.041 559.917 550.895 574.464 530.946L566.383 525.054ZM513.215 567.221C491.123 576.911 466.418 581.8 439.023 581.8V591.8C467.629 591.8 493.724 586.689 517.232 576.379L513.215 567.221ZM634.239 582H629.239V587H634.239V582ZM634.239 157.2V152.2H629.239V157.2H634.239ZM740.439 157.2H745.439V152.2H740.439V157.2ZM740.439 294.6H735.439V307.014L744.043 298.066L740.439 294.6ZM772.839 271.8L774.751 276.42L774.818 276.392L774.884 276.363L772.839 271.8ZM806.439 261.6L805.732 256.65L805.719 256.652L805.706 256.654L806.439 261.6ZM901.839 279.6L898.647 283.449L898.67 283.468L898.693 283.486L901.839 279.6ZM937.239 334.2L932.448 335.629L932.463 335.68L932.479 335.73L937.239 334.2ZM948.039 582V587H953.039V582H948.039ZM841.839 582H836.839V587H841.839V582ZM839.439 396.6L834.558 397.685L834.565 397.715L834.572 397.745L839.439 396.6ZM831.039 376.8L826.752 379.372L826.813 379.474L826.879 379.573L831.039 376.8ZM816.039 362.4L813.389 366.64L813.487 366.701L813.588 366.758L816.039 362.4ZM767.439 361.8L769.675 366.272L769.727 366.246L769.779 366.219L767.439 361.8ZM751.839 375.6L755.999 378.374L751.839 375.6ZM742.839 396L738.004 394.728L737.979 394.821L737.958 394.915L742.839 396ZM740.439 582V587H745.439V582H740.439ZM639.239 582V157.2H629.239V582H639.239ZM634.239 162.2H740.439V152.2H634.239V162.2ZM735.439 157.2V294.6H745.439V157.2H735.439ZM744.043 298.066C753.636 288.089 763.877 280.92 774.751 276.42L770.927 267.18C758.601 272.28 747.242 280.311 736.835 291.134L744.043 298.066ZM774.884 276.363C786.133 271.32 796.892 268.069 807.172 266.546L805.706 256.654C794.386 258.331 782.745 261.88 770.794 267.237L774.884 276.363ZM807.146 266.55C818.228 264.967 827.169 264.2 834.039 264.2V254.2C826.509 254.2 817.05 255.033 805.732 256.65L807.146 266.55ZM834.039 264.2C862.084 264.2 883.417 270.818 898.647 283.449L905.031 275.751C887.462 261.182 863.594 254.2 834.039 254.2V264.2ZM898.693 283.486C914.631 296.388 925.906 313.694 932.448 335.629L942.031 332.771C934.973 309.106 922.647 290.012 904.985 275.714L898.693 283.486ZM932.479 335.73C939.502 357.579 943.039 381.457 943.039 407.4H953.039C953.039 380.543 949.376 355.621 941.999 332.67L932.479 335.73ZM943.039 407.4V582H953.039V407.4H943.039ZM948.039 577H841.839V587H948.039V577ZM846.839 582V416.4H836.839V582H846.839ZM846.839 416.4C846.839 409.581 845.987 402.596 844.306 395.455L834.572 397.745C836.092 404.204 836.839 410.419 836.839 416.4H846.839ZM844.32 395.515C842.589 387.727 839.55 380.552 835.199 374.026L826.879 379.573C830.529 385.048 833.089 391.073 834.558 397.685L844.32 395.515ZM835.327 374.228C831.257 367.446 825.608 362.046 818.49 358.042L813.588 366.758C819.27 369.954 823.621 374.154 826.752 379.372L835.327 374.228ZM818.689 358.16C811.275 353.526 802.079 351.4 791.439 351.4V361.4C800.799 361.4 808.003 363.274 813.389 366.64L818.689 358.16ZM791.439 351.4C781.582 351.4 772.749 353.332 765.1 357.381L769.779 366.219C775.729 363.068 782.896 361.4 791.439 361.4V351.4ZM765.203 357.328C758.018 360.92 752.158 366.108 747.679 372.827L755.999 378.374C759.521 373.092 764.06 369.08 769.675 366.272L765.203 357.328ZM747.679 372.826C743.346 379.326 740.132 386.641 738.004 394.728L747.674 397.272C749.546 390.159 752.332 383.874 755.999 378.374L747.679 372.826ZM737.958 394.915C736.273 402.5 735.439 410.466 735.439 418.8H745.439C745.439 411.134 746.206 403.9 747.72 397.085L737.958 394.915ZM735.439 418.8V582H745.439V418.8H735.439ZM740.439 577H634.239V587H740.439V577ZM1041.19 550.8L1037.8 554.472L1037.83 554.499L1037.86 554.525L1041.19 550.8ZM1001.59 265.8V260.8H996.594V265.8H1001.59ZM1107.79 265.8H1112.79V260.8H1107.79V265.8ZM1111.99 462L1107.23 463.516L1107.24 463.549L1107.25 463.581L1111.99 462ZM1126.39 482.4L1123.36 486.372L1123.41 486.413L1123.47 486.453L1126.39 482.4ZM1182.79 481.2L1179.26 477.664L1179.2 477.725L1179.14 477.788L1182.79 481.2ZM1193.59 459L1188.67 458.143L1188.65 458.234L1188.64 458.324L1193.59 459ZM1195.99 265.8V260.8H1190.99V265.8H1195.99ZM1301.59 265.8H1306.59V260.8H1301.59V265.8ZM1261.39 553.2L1264.63 557.013L1264.63 557.008L1261.39 553.2ZM1153.99 581.8C1106.39 581.8 1070.14 570.006 1044.53 547.075L1037.86 554.525C1065.85 579.594 1104.79 591.8 1153.99 591.8V581.8ZM1044.59 547.128C1019.53 523.969 1006.59 489.109 1006.59 441.6H996.594C996.594 490.891 1010.06 528.831 1037.8 554.472L1044.59 547.128ZM1006.59 441.6V265.8H996.594V441.6H1006.59ZM1001.59 270.8H1107.79V260.8H1001.59V270.8ZM1102.79 265.8V433.2H1112.79V265.8H1102.79ZM1102.79 433.2C1102.79 444.05 1104.25 454.168 1107.23 463.516L1116.76 460.484C1114.13 452.232 1112.79 443.15 1112.79 433.2H1102.79ZM1107.25 463.581C1110.36 472.896 1115.73 480.542 1123.36 486.372L1129.43 478.428C1123.45 473.858 1119.23 467.904 1116.74 460.419L1107.25 463.581ZM1123.47 486.453C1131.75 492.433 1142.26 495.2 1154.59 495.2V485.2C1143.72 485.2 1135.44 482.767 1129.32 478.347L1123.47 486.453ZM1154.59 495.2C1168.36 495.2 1179.46 492.098 1186.45 484.612L1179.14 477.788C1174.93 482.302 1167.23 485.2 1154.59 485.2V495.2ZM1186.33 484.736C1193.14 477.925 1197.21 469.504 1198.55 459.676L1188.64 458.324C1187.58 466.096 1184.45 472.475 1179.26 477.664L1186.33 484.736ZM1198.52 459.857C1200.16 450.419 1200.99 441.53 1200.99 433.2H1190.99C1190.99 440.87 1190.23 449.181 1188.67 458.143L1198.52 459.857ZM1200.99 433.2V265.8H1190.99V433.2H1200.99ZM1195.99 270.8H1301.59V260.8H1195.99V270.8ZM1296.59 265.8V441.6H1306.59V265.8H1296.59ZM1296.59 441.6C1296.59 492.434 1283.4 527.917 1258.15 549.392L1264.63 557.008C1292.99 532.883 1306.59 493.966 1306.59 441.6H1296.59ZM1258.16 549.387C1232.91 570.812 1198.38 581.8 1153.99 581.8V591.8C1200.01 591.8 1237.08 580.388 1264.63 557.013L1258.16 549.387ZM1357.29 582H1352.29V587H1357.29V582ZM1357.29 157.2V152.2H1352.29V157.2H1357.29ZM1463.49 157.2H1468.49V152.2H1463.49V157.2ZM1463.49 294.6H1458.49V307.014L1467.09 298.066L1463.49 294.6ZM1495.89 271.8L1497.8 276.42L1497.86 276.392L1497.93 276.363L1495.89 271.8ZM1529.49 261.6L1528.78 256.65L1528.77 256.652L1528.75 256.654L1529.49 261.6ZM1624.89 279.6L1621.69 283.449L1621.72 283.468L1621.74 283.486L1624.89 279.6ZM1660.29 334.2L1655.49 335.629L1655.51 335.68L1655.53 335.73L1660.29 334.2ZM1671.09 582V587H1676.09V582H1671.09ZM1564.89 582H1559.89V587H1564.89V582ZM1562.49 396.6L1557.6 397.685L1557.61 397.715L1557.62 397.745L1562.49 396.6ZM1554.09 376.8L1549.8 379.372L1549.86 379.474L1549.93 379.573L1554.09 376.8ZM1539.09 362.4L1536.44 366.64L1536.53 366.701L1536.63 366.758L1539.09 362.4ZM1490.49 361.8L1492.72 366.272L1492.77 366.246L1492.83 366.219L1490.49 361.8ZM1474.89 375.6L1479.05 378.374L1474.89 375.6ZM1465.89 396L1461.05 394.728L1461.03 394.821L1461.01 394.915L1465.89 396ZM1463.49 582V587H1468.49V582H1463.49ZM1362.29 582V157.2H1352.29V582H1362.29ZM1357.29 162.2H1463.49V152.2H1357.29V162.2ZM1458.49 157.2V294.6H1468.49V157.2H1458.49ZM1467.09 298.066C1476.68 288.089 1486.92 280.92 1497.8 276.42L1493.97 267.18C1481.65 272.28 1470.29 280.311 1459.88 291.134L1467.09 298.066ZM1497.93 276.363C1509.18 271.32 1519.94 268.069 1530.22 266.546L1528.75 256.654C1517.43 258.331 1505.79 261.88 1493.84 267.237L1497.93 276.363ZM1530.19 266.55C1541.27 264.967 1550.22 264.2 1557.09 264.2V254.2C1549.56 254.2 1540.1 255.033 1528.78 256.65L1530.19 266.55ZM1557.09 264.2C1585.13 264.2 1606.46 270.818 1621.69 283.449L1628.08 275.751C1610.51 261.182 1586.64 254.2 1557.09 254.2V264.2ZM1621.74 283.486C1637.68 296.388 1648.95 313.694 1655.49 335.629L1665.08 332.771C1658.02 309.106 1645.69 290.012 1628.03 275.714L1621.74 283.486ZM1655.53 335.73C1662.55 357.579 1666.09 381.457 1666.09 407.4H1676.09C1676.09 380.543 1672.42 355.621 1665.05 332.67L1655.53 335.73ZM1666.09 407.4V582H1676.09V407.4H1666.09ZM1671.09 577H1564.89V587H1671.09V577ZM1569.89 582V416.4H1559.89V582H1569.89ZM1569.89 416.4C1569.89 409.581 1569.03 402.596 1567.35 395.455L1557.62 397.745C1559.14 404.204 1559.89 410.419 1559.89 416.4H1569.89ZM1567.37 395.515C1565.64 387.727 1562.6 380.552 1558.25 374.026L1549.93 379.573C1553.58 385.048 1556.14 391.073 1557.6 397.685L1567.37 395.515ZM1558.37 374.228C1554.3 367.446 1548.66 362.046 1541.54 358.042L1536.63 366.758C1542.32 369.954 1546.67 374.154 1549.8 379.372L1558.37 374.228ZM1541.74 358.16C1534.32 353.526 1525.13 351.4 1514.49 351.4V361.4C1523.85 361.4 1531.05 363.274 1536.44 366.64L1541.74 358.16ZM1514.49 351.4C1504.63 351.4 1495.8 353.332 1488.15 357.381L1492.83 366.219C1498.78 363.068 1505.94 361.4 1514.49 361.4V351.4ZM1488.25 357.328C1481.07 360.92 1475.2 366.108 1470.73 372.827L1479.05 378.374C1482.57 373.092 1487.11 369.08 1492.72 366.272L1488.25 357.328ZM1470.73 372.826C1466.39 379.326 1463.18 386.641 1461.05 394.728L1470.72 397.272C1472.59 390.159 1475.38 383.874 1479.05 378.374L1470.73 372.826ZM1461.01 394.915C1459.32 402.5 1458.49 410.466 1458.49 418.8H1468.49C1468.49 411.134 1469.25 403.9 1470.77 397.085L1461.01 394.915ZM1458.49 418.8V582H1468.49V418.8H1458.49ZM1463.49 577H1357.29V587H1463.49V577ZM1790.04 567.6L1787.63 571.981L1787.67 572.005L1787.72 572.028L1790.04 567.6ZM1733.64 511.8L1729.26 514.21L1729.27 514.237L1729.29 514.265L1733.64 511.8ZM1734.24 339L1738.62 341.404L1738.63 341.389L1738.64 341.375L1734.24 339ZM1791.24 280.2L1793.73 284.537L1791.24 280.2ZM1986.24 301.2L1989.83 297.718L1986.24 301.2ZM2016.24 350.4L2011.53 352.069L2011.54 352.113L2011.56 352.156L2016.24 350.4ZM2025.84 435L2020.88 434.38L2020.86 434.523L2020.85 434.667L2025.84 435ZM2022.84 454.2V459.2H2026.8L2027.71 455.345L2022.84 454.2ZM1818.84 454.2V449.2H1813.29L1813.87 454.723L1818.84 454.2ZM1826.04 475.8L1821.73 478.335L1821.78 478.427L1821.84 478.516L1826.04 475.8ZM1844.04 492L1846.37 487.575L1844.04 492ZM1897.44 495L1898.85 499.797L1898.94 499.772L1899.02 499.743L1897.44 495ZM1923.24 475.2V470.2H1919.64L1918.5 473.619L1923.24 475.2ZM2027.04 475.2L2031.93 476.253L2033.23 470.2H2027.04V475.2ZM1995.84 539.4L1992.13 536.045L1992.13 536.05L1995.84 539.4ZM1941.84 575.4L1940.15 570.693L1940.14 570.698L1940.12 570.704L1941.84 575.4ZM1820.64 385.2H1815.64V390.2H1820.64V385.2ZM1927.44 385.2V390.2H1932.44V385.2H1927.44ZM1922.04 366.6L1917.52 368.729L1917.59 368.893L1917.68 369.051L1922.04 366.6ZM1905.24 349.8L1902.74 354.127L1902.78 354.155L1902.83 354.181L1905.24 349.8ZM1844.04 349.8L1846.45 354.181L1844.04 349.8ZM1826.04 366.6L1821.73 364.065L1821.71 364.107L1821.68 364.149L1826.04 366.6ZM1875.24 581.8C1843.51 581.8 1815.93 575.535 1792.36 563.172L1787.72 572.028C1812.95 585.265 1842.17 591.8 1875.24 591.8V581.8ZM1792.45 563.219C1769.27 550.469 1751.14 532.535 1737.99 509.335L1729.29 514.265C1743.34 539.065 1762.81 558.331 1787.63 571.981L1792.45 563.219ZM1738.02 509.39C1725.31 486.27 1718.84 458.535 1718.84 426H1708.84C1708.84 459.865 1715.58 489.33 1729.26 514.21L1738.02 509.39ZM1718.84 426C1718.84 393.494 1725.49 365.349 1738.62 341.404L1729.86 336.596C1715.79 362.251 1708.84 392.106 1708.84 426H1718.84ZM1738.64 341.375C1751.81 316.978 1770.15 298.065 1793.73 284.537L1788.75 275.863C1763.53 290.335 1743.87 310.622 1729.84 336.625L1738.64 341.375ZM1793.73 284.537C1817.26 271.034 1844.78 264.2 1876.44 264.2V254.2C1843.3 254.2 1814.02 261.366 1788.75 275.863L1793.73 284.537ZM1876.44 264.2C1899.12 264.2 1919.29 267.719 1937.02 274.656L1940.66 265.344C1921.59 257.881 1900.16 254.2 1876.44 254.2V264.2ZM1937.02 274.656C1954.78 281.607 1969.97 291.617 1982.65 304.682L1989.83 297.718C1976.11 283.583 1959.7 272.793 1940.66 265.344L1937.02 274.656ZM1982.65 304.682C1995.31 317.728 2004.95 333.496 2011.53 352.069L2020.95 348.731C2013.93 328.904 2003.57 311.872 1989.83 297.718L1982.65 304.682ZM2011.56 352.156C2018.52 370.707 2022.04 391.699 2022.04 415.2H2032.04C2032.04 390.701 2028.37 368.493 2020.92 348.644L2011.56 352.156ZM2022.04 415.2C2022.04 421.804 2021.65 428.196 2020.88 434.38L2030.8 435.62C2031.63 429.004 2032.04 422.196 2032.04 415.2H2022.04ZM2020.85 434.667C2020.47 440.354 2019.52 446.48 2017.97 453.055L2027.71 455.345C2029.36 448.32 2030.41 441.646 2030.83 435.333L2020.85 434.667ZM2022.84 449.2H1818.84V459.2H2022.84V449.2ZM1813.87 454.723C1814.75 463.057 1817.38 470.94 1821.73 478.335L1830.35 473.265C1826.7 467.06 1824.54 460.543 1823.81 453.677L1813.87 454.723ZM1821.84 478.516C1826.74 486.08 1833.4 492.05 1841.71 496.425L1846.37 487.575C1839.48 483.95 1834.14 479.12 1830.24 473.084L1821.84 478.516ZM1841.71 496.425C1850.24 500.912 1860.7 503 1872.84 503V493C1861.78 493 1853.04 491.088 1846.37 487.575L1841.71 496.425ZM1872.84 503C1882.76 503 1891.46 501.97 1898.85 499.797L1896.03 490.203C1889.82 492.03 1882.12 493 1872.84 493V503ZM1899.02 499.743C1906.62 497.212 1913.01 493.96 1918.01 489.87L1911.67 482.13C1907.87 485.24 1902.66 487.988 1895.86 490.257L1899.02 499.743ZM1918.01 489.87C1922.8 485.95 1926.37 481.619 1927.98 476.781L1918.5 473.619C1917.71 475.981 1915.68 478.85 1911.67 482.13L1918.01 489.87ZM1923.24 480.2H2027.04V470.2H1923.24V480.2ZM2022.15 474.147C2016.71 499.44 2006.65 520.001 1992.13 536.045L1999.55 542.755C2015.43 525.199 2026.18 502.96 2031.93 476.253L2022.15 474.147ZM1992.13 536.05C1977.89 551.826 1960.59 563.366 1940.15 570.693L1943.53 580.107C1965.49 572.234 1984.19 559.775 1999.55 542.75L1992.13 536.05ZM1940.12 570.704C1919.91 578.09 1898.29 581.8 1875.24 581.8V591.8C1899.39 591.8 1922.17 587.91 1943.56 580.096L1940.12 570.704ZM1820.64 390.2H1927.44V380.2H1820.64V390.2ZM1932.44 385.2C1932.44 378.169 1930.33 371.131 1926.4 364.149L1917.68 369.051C1920.96 374.869 1922.44 380.231 1922.44 385.2H1932.44ZM1926.56 364.471C1922.83 356.526 1916.37 350.216 1907.65 345.419L1902.83 354.181C1910.11 358.184 1914.86 363.074 1917.52 368.729L1926.56 364.471ZM1907.75 345.473C1899.11 340.475 1887.94 338.2 1874.64 338.2V348.2C1886.94 348.2 1896.17 350.325 1902.74 354.127L1907.75 345.473ZM1874.64 338.2C1861.69 338.2 1850.59 340.493 1841.63 345.419L1846.45 354.181C1853.49 350.307 1862.79 348.2 1874.64 348.2V338.2ZM1841.63 345.419C1832.97 350.183 1826.25 356.375 1821.73 364.065L1830.35 369.135C1833.83 363.225 1839.11 358.217 1846.45 354.181L1841.63 345.419ZM1821.68 364.149C1817.76 371.131 1815.64 378.169 1815.64 385.2H1825.64C1825.64 380.231 1827.13 374.869 1830.4 369.051L1821.68 364.149Z" fill="black" fill-opacity="0.1" mask="url(#path-1-outside-1_225_490)"/>
<rect width="1920" height="107" transform="translate(0 488)" fill="white"/>
</svg>
